<svg width="48" height="49" viewBox="0 0 48 49" fill="none" xmlns="http://www.w3.org/2000/svg">
<circle cx="24" cy="24.8425" r="24" fill="#FAE6EA"/>
<g clip-path="url(#clip0_1665_12174)">
<path d="M33.25 14.8425H22.311L20.53 13.0625C20.39 12.9215 20.199 12.8425 20 12.8425H14.75C13.233 12.8425 12 14.0755 12 15.5925V28.0925C12 29.6095 13.233 30.8425 14.75 30.8425H17.261C17.127 30.2475 17.209 29.6045 17.533 29.0425L18.342 27.6425C18.787 26.8715 19.617 26.3925 20.508 26.3925C20.629 26.3925 20.75 26.4015 20.868 26.4185C21.239 25.4885 22.149 24.8425 23.191 24.8425H24.808C25.85 24.8425 26.76 25.4875 27.131 26.4185C27.25 26.4015 27.37 26.3925 27.491 26.3925C28.382 26.3925 29.212 26.8715 29.657 27.6425L30.466 29.0425C30.79 29.6045 30.872 30.2475 30.738 30.8425H33.249C34.766 30.8425 35.999 29.6095 35.999 28.0925V17.5925C36 16.0755 34.767 14.8425 33.25 14.8425Z" fill="#D94265"/>
<path d="M27.7004 32.3115C27.7204 32.1565 27.7474 32.0025 27.7474 31.8425C27.7474 31.6815 27.7194 31.5285 27.7004 31.3735L28.6014 30.6915C28.8024 30.5395 28.8584 30.2615 28.7324 30.0425L27.9234 28.6425C27.7974 28.4245 27.5284 28.3335 27.2964 28.4315L26.2594 28.8685C26.0064 28.6755 25.7374 28.5055 25.4404 28.3815L25.3024 27.2805C25.2704 27.0305 25.0584 26.8425 24.8064 26.8425H23.1894C22.9374 26.8425 22.7244 27.0305 22.6934 27.2805L22.5554 28.3815C22.2584 28.5055 21.9884 28.6765 21.7364 28.8685L20.6994 28.4315C20.4664 28.3335 20.1974 28.4235 20.0714 28.6425L19.2634 30.0425C19.1374 30.2605 19.1934 30.5385 19.3944 30.6915L20.2954 31.3735C20.2754 31.5285 20.2474 31.6815 20.2474 31.8425C20.2474 32.0035 20.2754 32.1565 20.2944 32.3115L19.3934 32.9935C19.1924 33.1455 19.1364 33.4235 19.2624 33.6425L20.0714 35.0425C20.1974 35.2605 20.4664 35.3515 20.6984 35.2535L21.7354 34.8155C21.9884 35.0085 22.2574 35.1785 22.5544 35.3025L22.6924 36.4035C22.7244 36.6545 22.9364 36.8425 23.1884 36.8425H24.8054C25.0574 36.8425 25.2704 36.6545 25.3014 36.4045L25.4394 35.3035C25.7364 35.1795 26.0064 35.0085 26.2584 34.8165L27.2954 35.2535C27.5274 35.3515 27.7964 35.2615 27.9224 35.0425L28.7314 33.6415C28.8574 33.4235 28.8014 33.1455 28.6004 32.9925L27.7004 32.3115ZM23.9974 33.8425C22.8924 33.8425 21.9974 32.9475 21.9974 31.8425C21.9974 30.7375 22.8924 29.8425 23.9974 29.8425C25.1024 29.8425 25.9974 30.7375 25.9974 31.8425C25.9974 32.9475 25.1024 33.8425 23.9974 33.8425Z" fill="#D94265"/>
</g>
<defs>
<clipPath id="clip0_1665_12174">
<rect width="24" height="24" fill="white" transform="translate(12 12.8425)"/>
</clipPath>
</defs>
</svg>
