<svg width="48" height="49" viewBox="0 0 48 49" fill="none" xmlns="http://www.w3.org/2000/svg">
<circle cx="24" cy="24.8423" r="24" fill="#FAE6EA"/>
<g clip-path="url(#clip0_1665_12206)">
<path d="M18.75 18.3423C18.198 18.3423 17.75 17.8943 17.75 17.3423V13.8423C17.75 13.2903 18.198 12.8423 18.75 12.8423C19.302 12.8423 19.75 13.2903 19.75 13.8423V17.3423C19.75 17.8943 19.302 18.3423 18.75 18.3423Z" fill="#D94265"/>
<path d="M23.5 18.3423C22.948 18.3423 22.5 17.8943 22.5 17.3423V13.8423C22.5 13.2903 22.948 12.8423 23.5 12.8423C24.052 12.8423 24.5 13.2903 24.5 13.8423V17.3423C24.5 17.8943 24.052 18.3423 23.5 18.3423Z" fill="#D94265"/>
<path d="M28.25 18.3423C27.698 18.3423 27.25 17.8943 27.25 17.3423V13.8423C27.25 13.2903 27.698 12.8423 28.25 12.8423C28.802 12.8423 29.25 13.2903 29.25 13.8423V17.3423C29.25 17.8943 28.802 18.3423 28.25 18.3423Z" fill="#D94265"/>
<path d="M30.25 15.0923H16.75C15.233 15.0923 14 16.3253 14 17.8423V34.0923C14 35.6093 15.233 36.8423 16.75 36.8423H30.25C31.767 36.8423 33 35.6093 33 34.0923V17.8423C33 16.3253 31.767 15.0923 30.25 15.0923ZM19 20.8423H24C24.552 20.8423 25 21.2903 25 21.8423C25 22.3943 24.552 22.8423 24 22.8423H19C18.448 22.8423 18 22.3943 18 21.8423C18 21.2903 18.448 20.8423 19 20.8423ZM29 30.8423H19C18.448 30.8423 18 30.3943 18 29.8423C18 29.2903 18.448 28.8423 19 28.8423H29C29.552 28.8423 30 29.2903 30 29.8423C30 30.3943 29.552 30.8423 29 30.8423ZM29 26.8423H19C18.448 26.8423 18 26.3943 18 25.8423C18 25.2903 18.448 24.8423 19 24.8423H29C29.552 24.8423 30 25.2903 30 25.8423C30 26.3943 29.552 26.8423 29 26.8423Z" fill="#D94265"/>
</g>
<defs>
<clipPath id="clip0_1665_12206">
<rect width="24" height="24" fill="white" transform="translate(12 12.8423)"/>
</clipPath>
</defs>
</svg>
