<svg width="48" height="49" viewBox="0 0 48 49" fill="none" xmlns="http://www.w3.org/2000/svg">
<circle cx="24" cy="24.8425" r="24" fill="#FAE6EA"/>
<path d="M32.2161 31.7018C31.7328 30.2632 29.8063 29.3627 28.4328 28.7591C27.8947 28.5234 26.405 28.1236 26.226 27.4461C26.1619 27.202 26.1705 26.9718 26.2231 26.7513C26.1403 26.7671 26.0563 26.7765 25.9694 26.7765H25.0744C24.36 26.7765 23.7794 26.1952 23.7794 25.4812C23.7794 24.7677 24.3602 24.1876 25.0744 24.1876H25.9694C26.2651 24.1876 26.5454 24.2877 26.7715 24.4662C27.1029 24.4221 27.4226 24.3513 27.7207 24.2584C28.1121 23.4383 28.4174 22.4577 28.4858 21.6136C28.7779 18.0021 26.5639 15.8891 23.3894 16.2544C21.0813 16.5201 19.7025 18.2411 19.5535 20.4568C19.4028 22.7152 20.2401 24.3832 21.1296 25.6067C21.5191 26.1417 21.9283 26.4856 21.8654 27.1302C21.7924 27.8925 20.9774 28.1049 20.3944 28.3391C19.7037 28.6166 18.9597 29.0375 18.6084 29.2322C17.398 29.9006 16.0696 30.7055 15.7711 31.8066C15.1099 34.247 17.3428 34.9862 19.1863 35.3274C20.7684 35.6193 22.5523 35.6423 24.0196 35.6423C26.6738 35.6423 31.4464 35.536 32.2161 33.5409C32.435 32.9747 32.3412 32.0726 32.2161 31.7018Z" fill="#D94265"/>
<path d="M26.5368 25.1161C26.4153 24.931 26.2077 24.8081 25.9708 24.8081H25.0759C24.7024 24.8081 24.4012 25.1098 24.4012 25.4813C24.4012 25.8543 24.7024 26.1565 25.0759 26.1565H25.9708C26.2322 26.1565 26.454 26.0074 26.5658 25.7919C27.8136 25.6937 28.8988 25.3126 29.6606 24.7498C29.8356 24.8626 30.0424 24.9286 30.2656 24.9286H30.3218C30.9439 24.9286 31.4469 24.4251 31.4469 23.8023V21.554C31.4469 21.1061 31.1844 20.7197 30.8056 20.5402C30.6405 16.9299 27.6518 14.0417 24.0009 14.0417C20.35 14.0417 17.3608 16.9299 17.1964 20.5402C16.817 20.72 16.5547 21.1061 16.5547 21.554V23.8023C16.5547 24.4251 17.0582 24.9286 17.6788 24.9286H17.7357C18.3568 24.9286 18.8606 24.4251 18.8606 23.8023V21.554C18.8606 21.1126 18.6055 20.732 18.2347 20.5479C18.3952 17.5059 20.9196 15.0812 24.0009 15.0812C27.0811 15.0812 29.6066 17.5059 29.7664 20.5479C29.3961 20.7322 29.1412 21.1126 29.1412 21.554V23.8023C29.1412 23.9516 29.1703 24.0905 29.2214 24.2204C28.5657 24.6896 27.6112 25.0239 26.5368 25.1161Z" fill="#D94265"/>
</svg>
