<svg width="212" height="136" viewBox="0 0 212 136" fill="none" xmlns="http://www.w3.org/2000/svg">
<path d="M0 133.684C0 134.825 0.951334 135.75 2.12487 135.75H4.3076C5.48113 135.75 6.43247 134.825 6.43247 133.684V131.562C6.43247 130.42 5.48113 129.495 4.3076 129.495H2.12487C0.951334 129.495 0 130.42 0 131.562L0 133.684Z" fill="url(#paint0_linear_1938_518)"/>
<path d="M25.7305 133.684C25.7305 134.825 26.6818 135.75 27.8553 135.75H30.0381C31.2116 135.75 32.1629 134.825 32.1629 133.684V131.562C32.1629 130.42 31.2116 129.495 30.0381 129.495H27.8553C26.6818 129.495 25.7305 130.42 25.7305 131.562V133.684Z" fill="url(#paint1_linear_1938_518)"/>
<path d="M51.4609 133.684C51.4609 134.825 52.4123 135.75 53.5858 135.75H55.7685C56.9421 135.75 57.8934 134.825 57.8934 133.684V131.562C57.8934 130.42 56.9421 129.495 55.7685 129.495H53.5858C52.4123 129.495 51.4609 130.42 51.4609 131.562V133.684Z" fill="url(#paint2_linear_1938_518)"/>
<path d="M77.1895 133.684C77.1895 134.825 78.1408 135.75 79.3143 135.75H81.4971C82.6706 135.75 83.6219 134.825 83.6219 133.684V131.562C83.6219 130.42 82.6706 129.495 81.4971 129.495H79.3143C78.1408 129.495 77.1895 130.42 77.1895 131.562V133.684Z" fill="url(#paint3_linear_1938_518)"/>
<path d="M102.918 133.684C102.918 134.825 103.869 135.75 105.043 135.75H107.226C108.399 135.75 109.35 134.825 109.35 133.684V131.562C109.35 130.42 108.399 129.495 107.226 129.495H105.043C103.869 129.495 102.918 130.42 102.918 131.562V133.684Z" fill="url(#paint4_linear_1938_518)"/>
<path d="M128.648 133.684C128.648 134.825 129.6 135.75 130.773 135.75H132.956C134.13 135.75 135.081 134.825 135.081 133.684V131.562C135.081 130.42 134.13 129.495 132.956 129.495H130.773C129.6 129.495 128.648 130.42 128.648 131.562V133.684Z" fill="url(#paint5_linear_1938_518)"/>
<path d="M154.379 133.684C154.379 134.825 155.33 135.75 156.504 135.75H158.686C159.86 135.75 160.811 134.825 160.811 133.684V131.562C160.811 130.42 159.86 129.495 158.686 129.495H156.504C155.33 129.495 154.379 130.42 154.379 131.562V133.684Z" fill="url(#paint6_linear_1938_518)"/>
<path d="M180.109 133.684C180.109 134.825 181.061 135.75 182.234 135.75H184.417C185.591 135.75 186.542 134.825 186.542 133.684V131.562C186.542 130.42 185.591 129.495 184.417 129.495H182.234C181.061 129.495 180.109 130.42 180.109 131.562V133.684Z" fill="url(#paint7_linear_1938_518)"/>
<path d="M205.838 133.684C205.838 134.825 206.789 135.75 207.963 135.75H210.145C211.319 135.75 212.27 134.825 212.27 133.684V131.562C212.27 130.42 211.319 129.495 210.145 129.495H207.963C206.789 129.495 205.838 130.42 205.838 131.562V133.684Z" fill="url(#paint8_linear_1938_518)"/>
<path d="M231.568 133.684C231.568 134.825 232.52 135.75 233.693 135.75H235.876C237.049 135.75 238.001 134.825 238.001 133.684V131.562C238.001 130.42 237.049 129.495 235.876 129.495H233.693C232.52 129.495 231.568 130.42 231.568 131.562V133.684Z" fill="url(#paint9_linear_1938_518)"/>
<path d="M0 108.666C0 109.807 0.951334 110.732 2.12487 110.732H4.3076C5.48113 110.732 6.43247 109.807 6.43247 108.666V106.543C6.43247 105.402 5.48113 104.477 4.3076 104.477H2.12487C0.951334 104.477 0 105.402 0 106.543L0 108.666Z" fill="url(#paint10_linear_1938_518)"/>
<path d="M25.7305 108.666C25.7305 109.807 26.6818 110.732 27.8553 110.732H30.0381C31.2116 110.732 32.1629 109.807 32.1629 108.666V106.543C32.1629 105.402 31.2116 104.477 30.0381 104.477H27.8553C26.6818 104.477 25.7305 105.402 25.7305 106.543V108.666Z" fill="url(#paint11_linear_1938_518)"/>
<path d="M51.4609 108.666C51.4609 109.807 52.4123 110.732 53.5858 110.732H55.7685C56.9421 110.732 57.8934 109.807 57.8934 108.666V106.543C57.8934 105.402 56.9421 104.477 55.7685 104.477H53.5858C52.4123 104.477 51.4609 105.402 51.4609 106.543V108.666Z" fill="url(#paint12_linear_1938_518)"/>
<path d="M77.1895 108.666C77.1895 109.807 78.1408 110.732 79.3143 110.732H81.4971C82.6706 110.732 83.6219 109.807 83.6219 108.666V106.543C83.6219 105.402 82.6706 104.477 81.4971 104.477H79.3143C78.1408 104.477 77.1895 105.402 77.1895 106.543V108.666Z" fill="url(#paint13_linear_1938_518)"/>
<path d="M102.918 108.666C102.918 109.807 103.869 110.732 105.043 110.732H107.226C108.399 110.732 109.35 109.807 109.35 108.666V106.543C109.35 105.402 108.399 104.477 107.226 104.477H105.043C103.869 104.477 102.918 105.402 102.918 106.543V108.666Z" fill="url(#paint14_linear_1938_518)"/>
<path d="M128.648 108.666C128.648 109.807 129.6 110.732 130.773 110.732H132.956C134.13 110.732 135.081 109.807 135.081 108.666V106.543C135.081 105.402 134.13 104.477 132.956 104.477H130.773C129.6 104.477 128.648 105.402 128.648 106.543V108.666Z" fill="url(#paint15_linear_1938_518)"/>
<path d="M154.379 108.666C154.379 109.807 155.33 110.732 156.504 110.732H158.686C159.86 110.732 160.811 109.807 160.811 108.666V106.543C160.811 105.402 159.86 104.477 158.686 104.477H156.504C155.33 104.477 154.379 105.402 154.379 106.543V108.666Z" fill="url(#paint16_linear_1938_518)"/>
<path d="M180.109 108.666C180.109 109.807 181.061 110.732 182.234 110.732H184.417C185.591 110.732 186.542 109.807 186.542 108.666V106.543C186.542 105.402 185.591 104.477 184.417 104.477H182.234C181.061 104.477 180.109 105.402 180.109 106.543V108.666Z" fill="url(#paint17_linear_1938_518)"/>
<path d="M205.838 108.666C205.838 109.807 206.789 110.732 207.963 110.732H210.145C211.319 110.732 212.27 109.807 212.27 108.666V106.543C212.27 105.402 211.319 104.477 210.145 104.477H207.963C206.789 104.477 205.838 105.402 205.838 106.543V108.666Z" fill="url(#paint18_linear_1938_518)"/>
<path d="M231.568 108.666C231.568 109.807 232.52 110.732 233.693 110.732H235.876C237.049 110.732 238.001 109.807 238.001 108.666V106.543C238.001 105.402 237.049 104.477 235.876 104.477H233.693C232.52 104.477 231.568 105.402 231.568 106.543V108.666Z" fill="url(#paint19_linear_1938_518)"/>
<path d="M0 83.6476C0 84.7886 0.951334 85.7137 2.12487 85.7137H4.3076C5.48113 85.7137 6.43247 84.7886 6.43247 83.6476V81.5252C6.43247 80.3841 5.48113 79.4591 4.3076 79.4591H2.12487C0.951334 79.4591 0 80.3841 0 81.5252L0 83.6476Z" fill="url(#paint20_linear_1938_518)"/>
<path d="M25.7305 83.6476C25.7305 84.7887 26.6818 85.7137 27.8553 85.7137H30.0381C31.2116 85.7137 32.1629 84.7887 32.1629 83.6476V81.5253C32.1629 80.3842 31.2116 79.4592 30.0381 79.4592H27.8553C26.6818 79.4592 25.7305 80.3842 25.7305 81.5253V83.6476Z" fill="url(#paint21_linear_1938_518)"/>
<path d="M51.4609 83.6476C51.4609 84.7887 52.4123 85.7137 53.5858 85.7137H55.7685C56.9421 85.7137 57.8934 84.7887 57.8934 83.6476V81.5253C57.8934 80.3842 56.9421 79.4592 55.7685 79.4592H53.5858C52.4123 79.4592 51.4609 80.3842 51.4609 81.5253V83.6476Z" fill="url(#paint22_linear_1938_518)"/>
<path d="M77.1895 83.6476C77.1895 84.7887 78.1408 85.7137 79.3143 85.7137H81.4971C82.6706 85.7137 83.6219 84.7887 83.6219 83.6476V81.5253C83.6219 80.3842 82.6706 79.4592 81.4971 79.4592H79.3143C78.1408 79.4592 77.1895 80.3842 77.1895 81.5253V83.6476Z" fill="url(#paint23_linear_1938_518)"/>
<path d="M102.918 83.6476C102.918 84.7887 103.869 85.7137 105.043 85.7137H107.226C108.399 85.7137 109.35 84.7887 109.35 83.6476V81.5253C109.35 80.3842 108.399 79.4592 107.226 79.4592H105.043C103.869 79.4592 102.918 80.3842 102.918 81.5253V83.6476Z" fill="url(#paint24_linear_1938_518)"/>
<path d="M128.648 83.6476C128.648 84.7887 129.6 85.7137 130.773 85.7137H132.956C134.13 85.7137 135.081 84.7887 135.081 83.6476V81.5253C135.081 80.3842 134.13 79.4592 132.956 79.4592H130.773C129.6 79.4592 128.648 80.3842 128.648 81.5253V83.6476Z" fill="url(#paint25_linear_1938_518)"/>
<path d="M154.379 83.6476C154.379 84.7886 155.33 85.7137 156.504 85.7137H158.686C159.86 85.7137 160.811 84.7886 160.811 83.6476V81.5252C160.811 80.3841 159.86 79.4591 158.686 79.4591H156.504C155.33 79.4591 154.379 80.3841 154.379 81.5252V83.6476Z" fill="url(#paint26_linear_1938_518)"/>
<path d="M180.109 83.6476C180.109 84.7887 181.061 85.7137 182.234 85.7137H184.417C185.591 85.7137 186.542 84.7887 186.542 83.6476V81.5253C186.542 80.3842 185.591 79.4592 184.417 79.4592H182.234C181.061 79.4592 180.109 80.3842 180.109 81.5253V83.6476Z" fill="url(#paint27_linear_1938_518)"/>
<path d="M205.838 83.6476C205.838 84.7887 206.789 85.7137 207.963 85.7137H210.145C211.319 85.7137 212.27 84.7887 212.27 83.6476V81.5253C212.27 80.3842 211.319 79.4592 210.145 79.4592H207.963C206.789 79.4592 205.838 80.3842 205.838 81.5253V83.6476Z" fill="url(#paint28_linear_1938_518)"/>
<path d="M231.568 83.6476C231.568 84.7887 232.52 85.7137 233.693 85.7137H235.876C237.049 85.7137 238.001 84.7887 238.001 83.6476V81.5253C238.001 80.3842 237.049 79.4592 235.876 79.4592H233.693C232.52 79.4592 231.568 80.3842 231.568 81.5253V83.6476Z" fill="url(#paint29_linear_1938_518)"/>
<path d="M0 58.6295C0 59.7706 0.951334 60.6956 2.12487 60.6956H4.3076C5.48113 60.6956 6.43247 59.7706 6.43247 58.6295V56.5071C6.43247 55.366 5.48113 54.441 4.3076 54.441H2.12487C0.951334 54.441 0 55.366 0 56.5071L0 58.6295Z" fill="url(#paint30_linear_1938_518)"/>
<path d="M25.7305 58.6295C25.7305 59.7706 26.6818 60.6956 27.8553 60.6956H30.0381C31.2116 60.6956 32.1629 59.7706 32.1629 58.6295V56.5071C32.1629 55.3661 31.2116 54.4411 30.0381 54.4411H27.8553C26.6818 54.4411 25.7305 55.3661 25.7305 56.5071V58.6295Z" fill="url(#paint31_linear_1938_518)"/>
<path d="M51.4609 58.6295C51.4609 59.7706 52.4123 60.6956 53.5858 60.6956H55.7685C56.9421 60.6956 57.8934 59.7706 57.8934 58.6295V56.5071C57.8934 55.3661 56.9421 54.4411 55.7685 54.4411H53.5858C52.4123 54.4411 51.4609 55.3661 51.4609 56.5071V58.6295Z" fill="url(#paint32_linear_1938_518)"/>
<path d="M77.1895 58.6295C77.1895 59.7706 78.1408 60.6956 79.3143 60.6956H81.4971C82.6706 60.6956 83.6219 59.7706 83.6219 58.6295V56.5071C83.6219 55.3661 82.6706 54.4411 81.4971 54.4411H79.3143C78.1408 54.4411 77.1895 55.3661 77.1895 56.5071V58.6295Z" fill="url(#paint33_linear_1938_518)"/>
<path d="M102.918 58.6295C102.918 59.7706 103.869 60.6956 105.043 60.6956H107.226C108.399 60.6956 109.35 59.7706 109.35 58.6295V56.5071C109.35 55.3661 108.399 54.4411 107.226 54.4411H105.043C103.869 54.4411 102.918 55.3661 102.918 56.5071V58.6295Z" fill="url(#paint34_linear_1938_518)"/>
<path d="M128.648 58.6295C128.648 59.7706 129.6 60.6956 130.773 60.6956L132.956 60.6956C134.13 60.6956 135.081 59.7706 135.081 58.6295V56.5071C135.081 55.3661 134.13 54.4411 132.956 54.4411L130.773 54.4411C129.6 54.4411 128.648 55.3661 128.648 56.5071V58.6295Z" fill="url(#paint35_linear_1938_518)"/>
<path d="M154.379 58.6295C154.379 59.7706 155.33 60.6956 156.504 60.6956H158.686C159.86 60.6956 160.811 59.7706 160.811 58.6295V56.5071C160.811 55.366 159.86 54.441 158.686 54.441H156.504C155.33 54.441 154.379 55.366 154.379 56.5071V58.6295Z" fill="url(#paint36_linear_1938_518)"/>
<path d="M180.109 58.6295C180.109 59.7706 181.061 60.6956 182.234 60.6956H184.417C185.591 60.6956 186.542 59.7706 186.542 58.6295V56.5071C186.542 55.3661 185.591 54.4411 184.417 54.4411H182.234C181.061 54.4411 180.109 55.3661 180.109 56.5071V58.6295Z" fill="url(#paint37_linear_1938_518)"/>
<path d="M205.838 58.6295C205.838 59.7706 206.789 60.6956 207.963 60.6956H210.145C211.319 60.6956 212.27 59.7706 212.27 58.6295V56.5071C212.27 55.3661 211.319 54.4411 210.145 54.4411H207.963C206.789 54.4411 205.838 55.3661 205.838 56.5071V58.6295Z" fill="url(#paint38_linear_1938_518)"/>
<path d="M231.568 58.6295C231.568 59.7706 232.52 60.6956 233.693 60.6956H235.876C237.049 60.6956 238.001 59.7706 238.001 58.6295V56.5071C238.001 55.3661 237.049 54.4411 235.876 54.4411H233.693C232.52 54.4411 231.568 55.3661 231.568 56.5071V58.6295Z" fill="url(#paint39_linear_1938_518)"/>
<path d="M0 33.6109C0 34.7519 0.951334 35.677 2.12487 35.677H4.3076C5.48113 35.677 6.43247 34.7519 6.43247 33.6109V31.4885C6.43247 30.3474 5.48113 29.4224 4.3076 29.4224H2.12487C0.951334 29.4224 0 30.3474 0 31.4885L0 33.6109Z" fill="url(#paint40_linear_1938_518)"/>
<path d="M25.7305 33.6109C25.7305 34.752 26.6818 35.677 27.8553 35.677H30.0381C31.2116 35.677 32.1629 34.752 32.1629 33.6109V31.4885C32.1629 30.3475 31.2116 29.4224 30.0381 29.4224H27.8553C26.6818 29.4224 25.7305 30.3475 25.7305 31.4885V33.6109Z" fill="url(#paint41_linear_1938_518)"/>
<path d="M51.4609 33.6109C51.4609 34.752 52.4123 35.677 53.5858 35.677H55.7685C56.9421 35.677 57.8934 34.752 57.8934 33.6109V31.4885C57.8934 30.3475 56.9421 29.4224 55.7685 29.4224H53.5858C52.4123 29.4224 51.4609 30.3475 51.4609 31.4885V33.6109Z" fill="url(#paint42_linear_1938_518)"/>
<path d="M77.1895 33.6109C77.1895 34.752 78.1408 35.677 79.3143 35.677H81.4971C82.6706 35.677 83.6219 34.752 83.6219 33.6109V31.4885C83.6219 30.3475 82.6706 29.4224 81.4971 29.4224H79.3143C78.1408 29.4224 77.1895 30.3475 77.1895 31.4885V33.6109Z" fill="url(#paint43_linear_1938_518)"/>
<path d="M102.918 33.6109C102.918 34.752 103.869 35.677 105.043 35.677H107.226C108.399 35.677 109.35 34.752 109.35 33.6109V31.4885C109.35 30.3475 108.399 29.4224 107.226 29.4224H105.043C103.869 29.4224 102.918 30.3475 102.918 31.4885V33.6109Z" fill="url(#paint44_linear_1938_518)"/>
<path d="M128.648 33.6109C128.648 34.752 129.6 35.677 130.773 35.677L132.956 35.677C134.13 35.677 135.081 34.752 135.081 33.6109V31.4885C135.081 30.3475 134.13 29.4224 132.956 29.4224L130.773 29.4224C129.6 29.4224 128.648 30.3475 128.648 31.4885V33.6109Z" fill="url(#paint45_linear_1938_518)"/>
<path d="M154.379 33.6109C154.379 34.7519 155.33 35.677 156.504 35.677H158.686C159.86 35.677 160.811 34.7519 160.811 33.6109V31.4885C160.811 30.3474 159.86 29.4224 158.686 29.4224H156.504C155.33 29.4224 154.379 30.3474 154.379 31.4885V33.6109Z" fill="url(#paint46_linear_1938_518)"/>
<path d="M180.109 33.6109C180.109 34.752 181.061 35.677 182.234 35.677H184.417C185.591 35.677 186.542 34.752 186.542 33.6109V31.4885C186.542 30.3475 185.591 29.4224 184.417 29.4224H182.234C181.061 29.4224 180.109 30.3475 180.109 31.4885V33.6109Z" fill="url(#paint47_linear_1938_518)"/>
<path d="M205.838 33.6109C205.838 34.752 206.789 35.677 207.963 35.677H210.145C211.319 35.677 212.27 34.752 212.27 33.6109V31.4885C212.27 30.3475 211.319 29.4224 210.145 29.4224H207.963C206.789 29.4224 205.838 30.3475 205.838 31.4885V33.6109Z" fill="url(#paint48_linear_1938_518)"/>
<path d="M231.568 33.6109C231.568 34.752 232.52 35.677 233.693 35.677H235.876C237.049 35.677 238.001 34.752 238.001 33.6109V31.4885C238.001 30.3475 237.049 29.4224 235.876 29.4224H233.693C232.52 29.4224 231.568 30.3475 231.568 31.4885V33.6109Z" fill="url(#paint49_linear_1938_518)"/>
<path d="M0 8.5926C0 9.73367 0.951334 10.6587 2.12487 10.6587H4.3076C5.48113 10.6587 6.43247 9.73367 6.43247 8.5926V6.47023C6.43247 5.32915 5.48113 4.40413 4.3076 4.40413H2.12487C0.951334 4.40413 0 5.32915 0 6.47023L0 8.5926Z" fill="url(#paint50_linear_1938_518)"/>
<path d="M25.7305 8.59255C25.7305 9.73363 26.6818 10.6586 27.8553 10.6586H30.0381C31.2116 10.6586 32.1629 9.73363 32.1629 8.59255V6.47018C32.1629 5.3291 31.2116 4.40408 30.0381 4.40408H27.8553C26.6818 4.40408 25.7305 5.3291 25.7305 6.47018V8.59255Z" fill="url(#paint51_linear_1938_518)"/>
<path d="M51.4609 8.59255C51.4609 9.73363 52.4123 10.6586 53.5858 10.6586H55.7685C56.9421 10.6586 57.8934 9.73363 57.8934 8.59255V6.47018C57.8934 5.3291 56.9421 4.40408 55.7685 4.40408H53.5858C52.4123 4.40408 51.4609 5.3291 51.4609 6.47018V8.59255Z" fill="url(#paint52_linear_1938_518)"/>
<path d="M77.1895 8.59255C77.1895 9.73363 78.1408 10.6586 79.3143 10.6586H81.4971C82.6706 10.6586 83.6219 9.73363 83.6219 8.59255V6.47018C83.6219 5.3291 82.6706 4.40408 81.4971 4.40408H79.3143C78.1408 4.40408 77.1895 5.3291 77.1895 6.47018V8.59255Z" fill="url(#paint53_linear_1938_518)"/>
<path d="M102.918 8.59255C102.918 9.73363 103.869 10.6586 105.043 10.6586H107.226C108.399 10.6586 109.35 9.73363 109.35 8.59255V6.47018C109.35 5.3291 108.399 4.40408 107.226 4.40408H105.043C103.869 4.40408 102.918 5.3291 102.918 6.47018V8.59255Z" fill="url(#paint54_linear_1938_518)"/>
<path d="M128.648 8.59255C128.648 9.73363 129.6 10.6586 130.773 10.6586L132.956 10.6586C134.13 10.6586 135.081 9.73363 135.081 8.59255V6.47018C135.081 5.3291 134.13 4.40408 132.956 4.40408H130.773C129.6 4.40408 128.648 5.3291 128.648 6.47018V8.59255Z" fill="url(#paint55_linear_1938_518)"/>
<path d="M154.379 8.5926C154.379 9.73367 155.33 10.6587 156.504 10.6587H158.686C159.86 10.6587 160.811 9.73367 160.811 8.5926V6.47023C160.811 5.32915 159.86 4.40413 158.686 4.40413H156.504C155.33 4.40413 154.379 5.32915 154.379 6.47023V8.5926Z" fill="url(#paint56_linear_1938_518)"/>
<path d="M180.109 8.59255C180.109 9.73363 181.061 10.6586 182.234 10.6586H184.417C185.591 10.6586 186.542 9.73363 186.542 8.59255V6.47018C186.542 5.3291 185.591 4.40408 184.417 4.40408H182.234C181.061 4.40408 180.109 5.3291 180.109 6.47018V8.59255Z" fill="url(#paint57_linear_1938_518)"/>
<path d="M205.838 8.59255C205.838 9.73363 206.789 10.6586 207.963 10.6586H210.145C211.319 10.6586 212.27 9.73363 212.27 8.59255V6.47018C212.27 5.3291 211.319 4.40408 210.145 4.40408H207.963C206.789 4.40408 205.838 5.3291 205.838 6.47018V8.59255Z" fill="url(#paint58_linear_1938_518)"/>
<path d="M231.568 8.59255C231.568 9.73363 232.52 10.6586 233.693 10.6586H235.876C237.049 10.6586 238.001 9.73363 238.001 8.59255V6.47018C238.001 5.3291 237.049 4.40408 235.876 4.40408H233.693C232.52 4.40408 231.568 5.3291 231.568 6.47018V8.59255Z" fill="url(#paint59_linear_1938_518)"/>
<path d="M0 -16.4255C0 -15.2844 0.951334 -14.3594 2.12487 -14.3594H4.3076C5.48113 -14.3594 6.43247 -15.2844 6.43247 -16.4255V-18.5479C6.43247 -19.6889 5.48113 -20.614 4.3076 -20.614H2.12487C0.951334 -20.614 0 -19.6889 0 -18.5479L0 -16.4255Z" fill="url(#paint60_linear_1938_518)"/>
<path d="M0 -40.5548C0 -39.4137 0.951334 -38.4887 2.12487 -38.4887H4.3076C5.48113 -38.4887 6.43247 -39.4137 6.43247 -40.5548V-42.6772C6.43247 -43.8183 5.48113 -44.7433 4.3076 -44.7433H2.12487C0.951334 -44.7433 0 -43.8183 0 -42.6772L0 -40.5548Z" fill="url(#paint61_linear_1938_518)"/>
<path d="M0 -64.684C0 -63.5429 0.951334 -62.6179 2.12487 -62.6179H4.3076C5.48113 -62.6179 6.43247 -63.5429 6.43247 -64.684V-66.8063C6.43247 -67.9474 5.48113 -68.8724 4.3076 -68.8724H2.12487C0.951334 -68.8724 0 -67.9474 0 -66.8063L0 -64.684Z" fill="url(#paint62_linear_1938_518)"/>
<path d="M0 -88.813C0 -87.672 0.951334 -86.7469 2.12487 -86.7469H4.3076C5.48113 -86.7469 6.43247 -87.672 6.43247 -88.813L6.43247 -90.9354C6.43247 -92.0765 5.48113 -93.0015 4.3076 -93.0015H2.12487C0.951334 -93.0015 0 -92.0765 0 -90.9354L0 -88.813Z" fill="url(#paint63_linear_1938_518)"/>
<path d="M25.7305 -16.4256C25.7305 -15.2845 26.6818 -14.3595 27.8553 -14.3595H30.0381C31.2116 -14.3595 32.1629 -15.2845 32.1629 -16.4256V-18.5479C32.1629 -19.689 31.2116 -20.614 30.0381 -20.614H27.8553C26.6818 -20.614 25.7305 -19.689 25.7305 -18.5479V-16.4256Z" fill="url(#paint64_linear_1938_518)"/>
<path d="M25.7305 -40.5547C25.7305 -39.4136 26.6818 -38.4886 27.8553 -38.4886H30.0381C31.2116 -38.4886 32.1629 -39.4136 32.1629 -40.5547V-42.6771C32.1629 -43.8181 31.2116 -44.7431 30.0381 -44.7431H27.8553C26.6818 -44.7431 25.7305 -43.8181 25.7305 -42.6771V-40.5547Z" fill="url(#paint65_linear_1938_518)"/>
<path d="M25.7305 -64.684C25.7305 -63.543 26.6818 -62.6179 27.8553 -62.6179H30.0381C31.2116 -62.6179 32.1629 -63.543 32.1629 -64.684V-66.8064C32.1629 -67.9475 31.2116 -68.8725 30.0381 -68.8725H27.8553C26.6818 -68.8725 25.7305 -67.9475 25.7305 -66.8064V-64.684Z" fill="url(#paint66_linear_1938_518)"/>
<path d="M25.7305 -88.8131C25.7305 -87.6721 26.6818 -86.747 27.8553 -86.747H30.0381C31.2116 -86.747 32.1629 -87.6721 32.1629 -88.8131V-90.9355C32.1629 -92.0766 31.2116 -93.0016 30.0381 -93.0016H27.8553C26.6818 -93.0016 25.7305 -92.0766 25.7305 -90.9355V-88.8131Z" fill="url(#paint67_linear_1938_518)"/>
<path d="M51.4609 -16.4256C51.4609 -15.2845 52.4123 -14.3595 53.5858 -14.3595H55.7685C56.9421 -14.3595 57.8934 -15.2845 57.8934 -16.4256V-18.5479C57.8934 -19.689 56.9421 -20.614 55.7685 -20.614H53.5858C52.4123 -20.614 51.4609 -19.689 51.4609 -18.5479V-16.4256Z" fill="url(#paint68_linear_1938_518)"/>
<path d="M51.4609 -40.5547C51.4609 -39.4136 52.4123 -38.4886 53.5858 -38.4886H55.7685C56.9421 -38.4886 57.8934 -39.4136 57.8934 -40.5547V-42.6771C57.8934 -43.8181 56.9421 -44.7431 55.7685 -44.7431H53.5858C52.4123 -44.7431 51.4609 -43.8181 51.4609 -42.6771V-40.5547Z" fill="url(#paint69_linear_1938_518)"/>
<path d="M51.4609 -64.684C51.4609 -63.543 52.4123 -62.6179 53.5858 -62.6179H55.7685C56.9421 -62.6179 57.8934 -63.543 57.8934 -64.684V-66.8064C57.8934 -67.9475 56.9421 -68.8725 55.7685 -68.8725H53.5858C52.4123 -68.8725 51.4609 -67.9475 51.4609 -66.8064V-64.684Z" fill="url(#paint70_linear_1938_518)"/>
<path d="M51.4609 -88.8131C51.4609 -87.6721 52.4123 -86.747 53.5858 -86.747H55.7685C56.9421 -86.747 57.8934 -87.6721 57.8934 -88.8131V-90.9355C57.8934 -92.0766 56.9421 -93.0016 55.7685 -93.0016H53.5858C52.4123 -93.0016 51.4609 -92.0766 51.4609 -90.9355V-88.8131Z" fill="url(#paint71_linear_1938_518)"/>
<path d="M77.1895 -16.4256C77.1895 -15.2845 78.1408 -14.3595 79.3143 -14.3595H81.4971C82.6706 -14.3595 83.6219 -15.2845 83.6219 -16.4256V-18.5479C83.6219 -19.689 82.6706 -20.614 81.4971 -20.614H79.3143C78.1408 -20.614 77.1895 -19.689 77.1895 -18.5479V-16.4256Z" fill="url(#paint72_linear_1938_518)"/>
<path d="M77.1895 -40.5547C77.1895 -39.4136 78.1408 -38.4886 79.3143 -38.4886H81.4971C82.6706 -38.4886 83.6219 -39.4136 83.6219 -40.5547V-42.6771C83.6219 -43.8181 82.6706 -44.7431 81.4971 -44.7431H79.3143C78.1408 -44.7431 77.1895 -43.8181 77.1895 -42.6771V-40.5547Z" fill="url(#paint73_linear_1938_518)"/>
<path d="M77.1895 -64.684C77.1895 -63.543 78.1408 -62.6179 79.3143 -62.6179H81.4971C82.6706 -62.6179 83.6219 -63.543 83.6219 -64.684V-66.8064C83.6219 -67.9475 82.6706 -68.8725 81.4971 -68.8725H79.3143C78.1408 -68.8725 77.1895 -67.9475 77.1895 -66.8064V-64.684Z" fill="url(#paint74_linear_1938_518)"/>
<path d="M77.1895 -88.8131C77.1895 -87.6721 78.1408 -86.747 79.3143 -86.747H81.4971C82.6706 -86.747 83.6219 -87.6721 83.6219 -88.8131V-90.9355C83.6219 -92.0766 82.6706 -93.0016 81.4971 -93.0016H79.3143C78.1408 -93.0016 77.1895 -92.0766 77.1895 -90.9355V-88.8131Z" fill="url(#paint75_linear_1938_518)"/>
<path d="M102.918 -16.4256C102.918 -15.2845 103.869 -14.3595 105.043 -14.3595H107.226C108.399 -14.3595 109.35 -15.2845 109.35 -16.4256V-18.5479C109.35 -19.689 108.399 -20.614 107.226 -20.614H105.043C103.869 -20.614 102.918 -19.689 102.918 -18.5479V-16.4256Z" fill="url(#paint76_linear_1938_518)"/>
<path d="M102.918 -40.5547C102.918 -39.4136 103.869 -38.4886 105.043 -38.4886H107.226C108.399 -38.4886 109.35 -39.4136 109.35 -40.5547V-42.6771C109.35 -43.8181 108.399 -44.7431 107.226 -44.7431H105.043C103.869 -44.7431 102.918 -43.8181 102.918 -42.6771V-40.5547Z" fill="url(#paint77_linear_1938_518)"/>
<path d="M102.918 -64.684C102.918 -63.543 103.869 -62.6179 105.043 -62.6179H107.226C108.399 -62.6179 109.35 -63.543 109.35 -64.684V-66.8064C109.35 -67.9475 108.399 -68.8725 107.226 -68.8725H105.043C103.869 -68.8725 102.918 -67.9475 102.918 -66.8064V-64.684Z" fill="url(#paint78_linear_1938_518)"/>
<path d="M102.918 -88.8131C102.918 -87.6721 103.869 -86.747 105.043 -86.747H107.226C108.399 -86.747 109.35 -87.6721 109.35 -88.8131V-90.9355C109.35 -92.0766 108.399 -93.0016 107.226 -93.0016H105.043C103.869 -93.0016 102.918 -92.0766 102.918 -90.9355V-88.8131Z" fill="url(#paint79_linear_1938_518)"/>
<path d="M128.648 -16.4256C128.648 -15.2845 129.6 -14.3595 130.773 -14.3595H132.956C134.13 -14.3595 135.081 -15.2845 135.081 -16.4256V-18.5479C135.081 -19.689 134.13 -20.614 132.956 -20.614H130.773C129.6 -20.614 128.648 -19.689 128.648 -18.5479V-16.4256Z" fill="url(#paint80_linear_1938_518)"/>
<path d="M128.648 -40.5549C128.648 -39.4138 129.6 -38.4888 130.773 -38.4888H132.956C134.13 -38.4888 135.081 -39.4138 135.081 -40.5549V-42.6773C135.081 -43.8184 134.13 -44.7434 132.956 -44.7434H130.773C129.6 -44.7434 128.648 -43.8184 128.648 -42.6773V-40.5549Z" fill="url(#paint81_linear_1938_518)"/>
<path d="M128.648 -64.684C128.648 -63.543 129.6 -62.6179 130.773 -62.6179H132.956C134.13 -62.6179 135.081 -63.543 135.081 -64.684V-66.8064C135.081 -67.9475 134.13 -68.8725 132.956 -68.8725H130.773C129.6 -68.8725 128.648 -67.9475 128.648 -66.8064V-64.684Z" fill="url(#paint82_linear_1938_518)"/>
<path d="M128.648 -88.8131C128.648 -87.6721 129.6 -86.747 130.773 -86.747H132.956C134.13 -86.747 135.081 -87.6721 135.081 -88.8131V-90.9355C135.081 -92.0766 134.13 -93.0016 132.956 -93.0016H130.773C129.6 -93.0016 128.648 -92.0766 128.648 -90.9355V-88.8131Z" fill="url(#paint83_linear_1938_518)"/>
<path d="M154.379 -16.4255C154.379 -15.2844 155.33 -14.3594 156.504 -14.3594H158.686C159.86 -14.3594 160.811 -15.2844 160.811 -16.4255V-18.5479C160.811 -19.6889 159.86 -20.614 158.686 -20.614H156.504C155.33 -20.614 154.379 -19.6889 154.379 -18.5479V-16.4255Z" fill="url(#paint84_linear_1938_518)"/>
<path d="M154.379 -40.5546C154.379 -39.4136 155.33 -38.4885 156.504 -38.4885H158.686C159.86 -38.4885 160.811 -39.4136 160.811 -40.5546V-42.677C160.811 -43.8181 159.86 -44.7431 158.686 -44.7431H156.504C155.33 -44.7431 154.379 -43.8181 154.379 -42.677V-40.5546Z" fill="url(#paint85_linear_1938_518)"/>
<path d="M154.379 -64.684C154.379 -63.5429 155.33 -62.6179 156.504 -62.6179H158.686C159.86 -62.6179 160.811 -63.5429 160.811 -64.684V-66.8063C160.811 -67.9474 159.86 -68.8724 158.686 -68.8724H156.504C155.33 -68.8724 154.379 -67.9474 154.379 -66.8063V-64.684Z" fill="url(#paint86_linear_1938_518)"/>
<path d="M154.379 -88.813C154.379 -87.672 155.33 -86.7469 156.504 -86.7469H158.686C159.86 -86.7469 160.811 -87.672 160.811 -88.813V-90.9354C160.811 -92.0765 159.86 -93.0015 158.686 -93.0015H156.504C155.33 -93.0015 154.379 -92.0765 154.379 -90.9354V-88.813Z" fill="url(#paint87_linear_1938_518)"/>
<path d="M180.109 -16.4256C180.109 -15.2845 181.061 -14.3595 182.234 -14.3595H184.417C185.591 -14.3595 186.542 -15.2845 186.542 -16.4256V-18.5479C186.542 -19.689 185.591 -20.614 184.417 -20.614H182.234C181.061 -20.614 180.109 -19.689 180.109 -18.5479V-16.4256Z" fill="url(#paint88_linear_1938_518)"/>
<path d="M180.109 -40.5547C180.109 -39.4136 181.061 -38.4886 182.234 -38.4886H184.417C185.591 -38.4886 186.542 -39.4136 186.542 -40.5547V-42.6771C186.542 -43.8181 185.591 -44.7431 184.417 -44.7431H182.234C181.061 -44.7431 180.109 -43.8181 180.109 -42.6771V-40.5547Z" fill="url(#paint89_linear_1938_518)"/>
<path d="M180.109 -64.684C180.109 -63.543 181.061 -62.6179 182.234 -62.6179H184.417C185.591 -62.6179 186.542 -63.543 186.542 -64.684V-66.8064C186.542 -67.9475 185.591 -68.8725 184.417 -68.8725H182.234C181.061 -68.8725 180.109 -67.9475 180.109 -66.8064V-64.684Z" fill="url(#paint90_linear_1938_518)"/>
<path d="M180.109 -88.8131C180.109 -87.6721 181.061 -86.747 182.234 -86.747H184.417C185.591 -86.747 186.542 -87.6721 186.542 -88.8131V-90.9355C186.542 -92.0766 185.591 -93.0016 184.417 -93.0016H182.234C181.061 -93.0016 180.109 -92.0766 180.109 -90.9355V-88.8131Z" fill="url(#paint91_linear_1938_518)"/>
<path d="M205.838 -16.4256C205.838 -15.2845 206.789 -14.3595 207.963 -14.3595H210.145C211.319 -14.3595 212.27 -15.2845 212.27 -16.4256V-18.5479C212.27 -19.689 211.319 -20.614 210.145 -20.614H207.963C206.789 -20.614 205.838 -19.689 205.838 -18.5479V-16.4256Z" fill="url(#paint92_linear_1938_518)"/>
<path d="M205.838 -40.5547C205.838 -39.4136 206.789 -38.4886 207.963 -38.4886H210.145C211.319 -38.4886 212.27 -39.4136 212.27 -40.5547V-42.6771C212.27 -43.8181 211.319 -44.7431 210.145 -44.7431H207.963C206.789 -44.7431 205.838 -43.8181 205.838 -42.6771V-40.5547Z" fill="url(#paint93_linear_1938_518)"/>
<path d="M205.838 -64.684C205.838 -63.543 206.789 -62.6179 207.963 -62.6179H210.145C211.319 -62.6179 212.27 -63.543 212.27 -64.684V-66.8064C212.27 -67.9475 211.319 -68.8725 210.145 -68.8725H207.963C206.789 -68.8725 205.838 -67.9475 205.838 -66.8064V-64.684Z" fill="url(#paint94_linear_1938_518)"/>
<path d="M205.838 -88.8131C205.838 -87.6721 206.789 -86.747 207.963 -86.747H210.145C211.319 -86.747 212.27 -87.6721 212.27 -88.8131V-90.9355C212.27 -92.0766 211.319 -93.0016 210.145 -93.0016H207.963C206.789 -93.0016 205.838 -92.0766 205.838 -90.9355V-88.8131Z" fill="url(#paint95_linear_1938_518)"/>
<path d="M231.568 -16.4256C231.568 -15.2845 232.52 -14.3595 233.693 -14.3595H235.876C237.049 -14.3595 238.001 -15.2845 238.001 -16.4256V-18.5479C238.001 -19.689 237.049 -20.614 235.876 -20.614H233.693C232.52 -20.614 231.568 -19.689 231.568 -18.5479V-16.4256Z" fill="url(#paint96_linear_1938_518)"/>
<path d="M231.568 -40.5547C231.568 -39.4136 232.52 -38.4886 233.693 -38.4886H235.876C237.049 -38.4886 238.001 -39.4136 238.001 -40.5547V-42.6771C238.001 -43.8181 237.049 -44.7431 235.876 -44.7431H233.693C232.52 -44.7431 231.568 -43.8181 231.568 -42.6771V-40.5547Z" fill="url(#paint97_linear_1938_518)"/>
<path d="M231.568 -64.684C231.568 -63.543 232.52 -62.6179 233.693 -62.6179H235.876C237.049 -62.6179 238.001 -63.543 238.001 -64.684V-66.8064C238.001 -67.9475 237.049 -68.8725 235.876 -68.8725H233.693C232.52 -68.8725 231.568 -67.9475 231.568 -66.8064V-64.684Z" fill="url(#paint98_linear_1938_518)"/>
<path d="M231.568 -88.8131C231.568 -87.6721 232.52 -86.747 233.693 -86.747H235.876C237.049 -86.747 238.001 -87.6721 238.001 -88.8131V-90.9355C238.001 -92.0766 237.049 -93.0016 235.876 -93.0016H233.693C232.52 -93.0016 231.568 -92.0766 231.568 -90.9355V-88.8131Z" fill="url(#paint99_linear_1938_518)"/>
<defs>
<linearGradient id="paint0_linear_1938_518" x1="120.414" y1="-194.96" x2="128.437" y2="228.579" gradientUnits="userSpaceOnUse">
<stop stop-color="#EEAABA"/>
<stop offset="1" stop-color="#E47992" stop-opacity="0"/>
</linearGradient>
<linearGradient id="paint1_linear_1938_518" x1="120.414" y1="-194.96" x2="128.437" y2="228.579" gradientUnits="userSpaceOnUse">
<stop stop-color="#EEAABA"/>
<stop offset="1" stop-color="#E47992" stop-opacity="0"/>
</linearGradient>
<linearGradient id="paint2_linear_1938_518" x1="120.414" y1="-194.96" x2="128.437" y2="228.579" gradientUnits="userSpaceOnUse">
<stop stop-color="#EEAABA"/>
<stop offset="1" stop-color="#E47992" stop-opacity="0"/>
</linearGradient>
<linearGradient id="paint3_linear_1938_518" x1="120.414" y1="-194.96" x2="128.437" y2="228.579" gradientUnits="userSpaceOnUse">
<stop stop-color="#EEAABA"/>
<stop offset="1" stop-color="#E47992" stop-opacity="0"/>
</linearGradient>
<linearGradient id="paint4_linear_1938_518" x1="120.414" y1="-194.96" x2="128.437" y2="228.579" gradientUnits="userSpaceOnUse">
<stop stop-color="#EEAABA"/>
<stop offset="1" stop-color="#E47992" stop-opacity="0"/>
</linearGradient>
<linearGradient id="paint5_linear_1938_518" x1="120.414" y1="-194.96" x2="128.437" y2="228.579" gradientUnits="userSpaceOnUse">
<stop stop-color="#EEAABA"/>
<stop offset="1" stop-color="#E47992" stop-opacity="0"/>
</linearGradient>
<linearGradient id="paint6_linear_1938_518" x1="120.414" y1="-194.96" x2="128.437" y2="228.579" gradientUnits="userSpaceOnUse">
<stop stop-color="#EEAABA"/>
<stop offset="1" stop-color="#E47992" stop-opacity="0"/>
</linearGradient>
<linearGradient id="paint7_linear_1938_518" x1="120.414" y1="-194.96" x2="128.437" y2="228.579" gradientUnits="userSpaceOnUse">
<stop stop-color="#EEAABA"/>
<stop offset="1" stop-color="#E47992" stop-opacity="0"/>
</linearGradient>
<linearGradient id="paint8_linear_1938_518" x1="120.414" y1="-194.96" x2="128.437" y2="228.579" gradientUnits="userSpaceOnUse">
<stop stop-color="#EEAABA"/>
<stop offset="1" stop-color="#E47992" stop-opacity="0"/>
</linearGradient>
<linearGradient id="paint9_linear_1938_518" x1="120.414" y1="-194.96" x2="128.437" y2="228.579" gradientUnits="userSpaceOnUse">
<stop stop-color="#EEAABA"/>
<stop offset="1" stop-color="#E47992" stop-opacity="0"/>
</linearGradient>
<linearGradient id="paint10_linear_1938_518" x1="120.414" y1="-194.96" x2="128.437" y2="228.579" gradientUnits="userSpaceOnUse">
<stop stop-color="#EEAABA"/>
<stop offset="1" stop-color="#E47992" stop-opacity="0"/>
</linearGradient>
<linearGradient id="paint11_linear_1938_518" x1="120.414" y1="-194.96" x2="128.437" y2="228.579" gradientUnits="userSpaceOnUse">
<stop stop-color="#EEAABA"/>
<stop offset="1" stop-color="#E47992" stop-opacity="0"/>
</linearGradient>
<linearGradient id="paint12_linear_1938_518" x1="120.414" y1="-194.96" x2="128.437" y2="228.579" gradientUnits="userSpaceOnUse">
<stop stop-color="#EEAABA"/>
<stop offset="1" stop-color="#E47992" stop-opacity="0"/>
</linearGradient>
<linearGradient id="paint13_linear_1938_518" x1="120.414" y1="-194.96" x2="128.437" y2="228.579" gradientUnits="userSpaceOnUse">
<stop stop-color="#EEAABA"/>
<stop offset="1" stop-color="#E47992" stop-opacity="0"/>
</linearGradient>
<linearGradient id="paint14_linear_1938_518" x1="120.414" y1="-194.96" x2="128.437" y2="228.579" gradientUnits="userSpaceOnUse">
<stop stop-color="#EEAABA"/>
<stop offset="1" stop-color="#E47992" stop-opacity="0"/>
</linearGradient>
<linearGradient id="paint15_linear_1938_518" x1="120.414" y1="-194.96" x2="128.437" y2="228.579" gradientUnits="userSpaceOnUse">
<stop stop-color="#EEAABA"/>
<stop offset="1" stop-color="#E47992" stop-opacity="0"/>
</linearGradient>
<linearGradient id="paint16_linear_1938_518" x1="120.414" y1="-194.96" x2="128.437" y2="228.579" gradientUnits="userSpaceOnUse">
<stop stop-color="#EEAABA"/>
<stop offset="1" stop-color="#E47992" stop-opacity="0"/>
</linearGradient>
<linearGradient id="paint17_linear_1938_518" x1="120.414" y1="-194.96" x2="128.437" y2="228.579" gradientUnits="userSpaceOnUse">
<stop stop-color="#EEAABA"/>
<stop offset="1" stop-color="#E47992" stop-opacity="0"/>
</linearGradient>
<linearGradient id="paint18_linear_1938_518" x1="120.414" y1="-194.96" x2="128.437" y2="228.579" gradientUnits="userSpaceOnUse">
<stop stop-color="#EEAABA"/>
<stop offset="1" stop-color="#E47992" stop-opacity="0"/>
</linearGradient>
<linearGradient id="paint19_linear_1938_518" x1="120.414" y1="-194.96" x2="128.437" y2="228.579" gradientUnits="userSpaceOnUse">
<stop stop-color="#EEAABA"/>
<stop offset="1" stop-color="#E47992" stop-opacity="0"/>
</linearGradient>
<linearGradient id="paint20_linear_1938_518" x1="120.414" y1="-194.96" x2="128.437" y2="228.579" gradientUnits="userSpaceOnUse">
<stop stop-color="#EEAABA"/>
<stop offset="1" stop-color="#E47992" stop-opacity="0"/>
</linearGradient>
<linearGradient id="paint21_linear_1938_518" x1="120.414" y1="-194.96" x2="128.437" y2="228.579" gradientUnits="userSpaceOnUse">
<stop stop-color="#EEAABA"/>
<stop offset="1" stop-color="#E47992" stop-opacity="0"/>
</linearGradient>
<linearGradient id="paint22_linear_1938_518" x1="120.414" y1="-194.96" x2="128.437" y2="228.579" gradientUnits="userSpaceOnUse">
<stop stop-color="#EEAABA"/>
<stop offset="1" stop-color="#E47992" stop-opacity="0"/>
</linearGradient>
<linearGradient id="paint23_linear_1938_518" x1="120.414" y1="-194.96" x2="128.437" y2="228.579" gradientUnits="userSpaceOnUse">
<stop stop-color="#EEAABA"/>
<stop offset="1" stop-color="#E47992" stop-opacity="0"/>
</linearGradient>
<linearGradient id="paint24_linear_1938_518" x1="120.414" y1="-194.96" x2="128.437" y2="228.579" gradientUnits="userSpaceOnUse">
<stop stop-color="#EEAABA"/>
<stop offset="1" stop-color="#E47992" stop-opacity="0"/>
</linearGradient>
<linearGradient id="paint25_linear_1938_518" x1="120.414" y1="-194.96" x2="128.437" y2="228.579" gradientUnits="userSpaceOnUse">
<stop stop-color="#EEAABA"/>
<stop offset="1" stop-color="#E47992" stop-opacity="0"/>
</linearGradient>
<linearGradient id="paint26_linear_1938_518" x1="120.414" y1="-194.96" x2="128.437" y2="228.579" gradientUnits="userSpaceOnUse">
<stop stop-color="#EEAABA"/>
<stop offset="1" stop-color="#E47992" stop-opacity="0"/>
</linearGradient>
<linearGradient id="paint27_linear_1938_518" x1="120.414" y1="-194.96" x2="128.437" y2="228.579" gradientUnits="userSpaceOnUse">
<stop stop-color="#EEAABA"/>
<stop offset="1" stop-color="#E47992" stop-opacity="0"/>
</linearGradient>
<linearGradient id="paint28_linear_1938_518" x1="120.414" y1="-194.96" x2="128.437" y2="228.579" gradientUnits="userSpaceOnUse">
<stop stop-color="#EEAABA"/>
<stop offset="1" stop-color="#E47992" stop-opacity="0"/>
</linearGradient>
<linearGradient id="paint29_linear_1938_518" x1="120.414" y1="-194.96" x2="128.437" y2="228.579" gradientUnits="userSpaceOnUse">
<stop stop-color="#EEAABA"/>
<stop offset="1" stop-color="#E47992" stop-opacity="0"/>
</linearGradient>
<linearGradient id="paint30_linear_1938_518" x1="120.414" y1="-194.96" x2="128.437" y2="228.579" gradientUnits="userSpaceOnUse">
<stop stop-color="#EEAABA"/>
<stop offset="1" stop-color="#E47992" stop-opacity="0"/>
</linearGradient>
<linearGradient id="paint31_linear_1938_518" x1="120.414" y1="-194.96" x2="128.437" y2="228.579" gradientUnits="userSpaceOnUse">
<stop stop-color="#EEAABA"/>
<stop offset="1" stop-color="#E47992" stop-opacity="0"/>
</linearGradient>
<linearGradient id="paint32_linear_1938_518" x1="120.414" y1="-194.96" x2="128.437" y2="228.579" gradientUnits="userSpaceOnUse">
<stop stop-color="#EEAABA"/>
<stop offset="1" stop-color="#E47992" stop-opacity="0"/>
</linearGradient>
<linearGradient id="paint33_linear_1938_518" x1="120.414" y1="-194.96" x2="128.437" y2="228.579" gradientUnits="userSpaceOnUse">
<stop stop-color="#EEAABA"/>
<stop offset="1" stop-color="#E47992" stop-opacity="0"/>
</linearGradient>
<linearGradient id="paint34_linear_1938_518" x1="120.414" y1="-194.96" x2="128.437" y2="228.579" gradientUnits="userSpaceOnUse">
<stop stop-color="#EEAABA"/>
<stop offset="1" stop-color="#E47992" stop-opacity="0"/>
</linearGradient>
<linearGradient id="paint35_linear_1938_518" x1="120.414" y1="-194.96" x2="128.437" y2="228.579" gradientUnits="userSpaceOnUse">
<stop stop-color="#EEAABA"/>
<stop offset="1" stop-color="#E47992" stop-opacity="0"/>
</linearGradient>
<linearGradient id="paint36_linear_1938_518" x1="120.414" y1="-194.96" x2="128.437" y2="228.579" gradientUnits="userSpaceOnUse">
<stop stop-color="#EEAABA"/>
<stop offset="1" stop-color="#E47992" stop-opacity="0"/>
</linearGradient>
<linearGradient id="paint37_linear_1938_518" x1="120.414" y1="-194.96" x2="128.437" y2="228.579" gradientUnits="userSpaceOnUse">
<stop stop-color="#EEAABA"/>
<stop offset="1" stop-color="#E47992" stop-opacity="0"/>
</linearGradient>
<linearGradient id="paint38_linear_1938_518" x1="120.414" y1="-194.96" x2="128.437" y2="228.579" gradientUnits="userSpaceOnUse">
<stop stop-color="#EEAABA"/>
<stop offset="1" stop-color="#E47992" stop-opacity="0"/>
</linearGradient>
<linearGradient id="paint39_linear_1938_518" x1="120.414" y1="-194.96" x2="128.437" y2="228.579" gradientUnits="userSpaceOnUse">
<stop stop-color="#EEAABA"/>
<stop offset="1" stop-color="#E47992" stop-opacity="0"/>
</linearGradient>
<linearGradient id="paint40_linear_1938_518" x1="120.414" y1="-194.96" x2="128.437" y2="228.579" gradientUnits="userSpaceOnUse">
<stop stop-color="#EEAABA"/>
<stop offset="1" stop-color="#E47992" stop-opacity="0"/>
</linearGradient>
<linearGradient id="paint41_linear_1938_518" x1="120.414" y1="-194.96" x2="128.437" y2="228.579" gradientUnits="userSpaceOnUse">
<stop stop-color="#EEAABA"/>
<stop offset="1" stop-color="#E47992" stop-opacity="0"/>
</linearGradient>
<linearGradient id="paint42_linear_1938_518" x1="120.414" y1="-194.96" x2="128.437" y2="228.579" gradientUnits="userSpaceOnUse">
<stop stop-color="#EEAABA"/>
<stop offset="1" stop-color="#E47992" stop-opacity="0"/>
</linearGradient>
<linearGradient id="paint43_linear_1938_518" x1="120.414" y1="-194.96" x2="128.437" y2="228.579" gradientUnits="userSpaceOnUse">
<stop stop-color="#EEAABA"/>
<stop offset="1" stop-color="#E47992" stop-opacity="0"/>
</linearGradient>
<linearGradient id="paint44_linear_1938_518" x1="120.414" y1="-194.96" x2="128.437" y2="228.579" gradientUnits="userSpaceOnUse">
<stop stop-color="#EEAABA"/>
<stop offset="1" stop-color="#E47992" stop-opacity="0"/>
</linearGradient>
<linearGradient id="paint45_linear_1938_518" x1="120.414" y1="-194.96" x2="128.437" y2="228.579" gradientUnits="userSpaceOnUse">
<stop stop-color="#EEAABA"/>
<stop offset="1" stop-color="#E47992" stop-opacity="0"/>
</linearGradient>
<linearGradient id="paint46_linear_1938_518" x1="120.414" y1="-194.96" x2="128.437" y2="228.579" gradientUnits="userSpaceOnUse">
<stop stop-color="#EEAABA"/>
<stop offset="1" stop-color="#E47992" stop-opacity="0"/>
</linearGradient>
<linearGradient id="paint47_linear_1938_518" x1="120.414" y1="-194.96" x2="128.437" y2="228.579" gradientUnits="userSpaceOnUse">
<stop stop-color="#EEAABA"/>
<stop offset="1" stop-color="#E47992" stop-opacity="0"/>
</linearGradient>
<linearGradient id="paint48_linear_1938_518" x1="120.414" y1="-194.96" x2="128.437" y2="228.579" gradientUnits="userSpaceOnUse">
<stop stop-color="#EEAABA"/>
<stop offset="1" stop-color="#E47992" stop-opacity="0"/>
</linearGradient>
<linearGradient id="paint49_linear_1938_518" x1="120.414" y1="-194.96" x2="128.437" y2="228.579" gradientUnits="userSpaceOnUse">
<stop stop-color="#EEAABA"/>
<stop offset="1" stop-color="#E47992" stop-opacity="0"/>
</linearGradient>
<linearGradient id="paint50_linear_1938_518" x1="120.414" y1="-194.96" x2="128.437" y2="228.579" gradientUnits="userSpaceOnUse">
<stop stop-color="#EEAABA"/>
<stop offset="1" stop-color="#E47992" stop-opacity="0"/>
</linearGradient>
<linearGradient id="paint51_linear_1938_518" x1="120.414" y1="-194.96" x2="128.437" y2="228.579" gradientUnits="userSpaceOnUse">
<stop stop-color="#EEAABA"/>
<stop offset="1" stop-color="#E47992" stop-opacity="0"/>
</linearGradient>
<linearGradient id="paint52_linear_1938_518" x1="120.414" y1="-194.96" x2="128.437" y2="228.579" gradientUnits="userSpaceOnUse">
<stop stop-color="#EEAABA"/>
<stop offset="1" stop-color="#E47992" stop-opacity="0"/>
</linearGradient>
<linearGradient id="paint53_linear_1938_518" x1="120.414" y1="-194.96" x2="128.437" y2="228.579" gradientUnits="userSpaceOnUse">
<stop stop-color="#EEAABA"/>
<stop offset="1" stop-color="#E47992" stop-opacity="0"/>
</linearGradient>
<linearGradient id="paint54_linear_1938_518" x1="120.414" y1="-194.96" x2="128.437" y2="228.579" gradientUnits="userSpaceOnUse">
<stop stop-color="#EEAABA"/>
<stop offset="1" stop-color="#E47992" stop-opacity="0"/>
</linearGradient>
<linearGradient id="paint55_linear_1938_518" x1="120.414" y1="-194.96" x2="128.437" y2="228.579" gradientUnits="userSpaceOnUse">
<stop stop-color="#EEAABA"/>
<stop offset="1" stop-color="#E47992" stop-opacity="0"/>
</linearGradient>
<linearGradient id="paint56_linear_1938_518" x1="120.414" y1="-194.96" x2="128.437" y2="228.579" gradientUnits="userSpaceOnUse">
<stop stop-color="#EEAABA"/>
<stop offset="1" stop-color="#E47992" stop-opacity="0"/>
</linearGradient>
<linearGradient id="paint57_linear_1938_518" x1="120.414" y1="-194.96" x2="128.437" y2="228.579" gradientUnits="userSpaceOnUse">
<stop stop-color="#EEAABA"/>
<stop offset="1" stop-color="#E47992" stop-opacity="0"/>
</linearGradient>
<linearGradient id="paint58_linear_1938_518" x1="120.414" y1="-194.96" x2="128.437" y2="228.579" gradientUnits="userSpaceOnUse">
<stop stop-color="#EEAABA"/>
<stop offset="1" stop-color="#E47992" stop-opacity="0"/>
</linearGradient>
<linearGradient id="paint59_linear_1938_518" x1="120.414" y1="-194.96" x2="128.437" y2="228.579" gradientUnits="userSpaceOnUse">
<stop stop-color="#EEAABA"/>
<stop offset="1" stop-color="#E47992" stop-opacity="0"/>
</linearGradient>
<linearGradient id="paint60_linear_1938_518" x1="120.414" y1="-194.96" x2="128.437" y2="228.579" gradientUnits="userSpaceOnUse">
<stop stop-color="#EEAABA"/>
<stop offset="1" stop-color="#E47992" stop-opacity="0"/>
</linearGradient>
<linearGradient id="paint61_linear_1938_518" x1="120.414" y1="-194.96" x2="128.437" y2="228.579" gradientUnits="userSpaceOnUse">
<stop stop-color="#EEAABA"/>
<stop offset="1" stop-color="#E47992" stop-opacity="0"/>
</linearGradient>
<linearGradient id="paint62_linear_1938_518" x1="120.414" y1="-194.96" x2="128.437" y2="228.579" gradientUnits="userSpaceOnUse">
<stop stop-color="#EEAABA"/>
<stop offset="1" stop-color="#E47992" stop-opacity="0"/>
</linearGradient>
<linearGradient id="paint63_linear_1938_518" x1="120.414" y1="-194.96" x2="128.437" y2="228.579" gradientUnits="userSpaceOnUse">
<stop stop-color="#EEAABA"/>
<stop offset="1" stop-color="#E47992" stop-opacity="0"/>
</linearGradient>
<linearGradient id="paint64_linear_1938_518" x1="120.414" y1="-194.96" x2="128.437" y2="228.579" gradientUnits="userSpaceOnUse">
<stop stop-color="#EEAABA"/>
<stop offset="1" stop-color="#E47992" stop-opacity="0"/>
</linearGradient>
<linearGradient id="paint65_linear_1938_518" x1="120.414" y1="-194.96" x2="128.437" y2="228.579" gradientUnits="userSpaceOnUse">
<stop stop-color="#EEAABA"/>
<stop offset="1" stop-color="#E47992" stop-opacity="0"/>
</linearGradient>
<linearGradient id="paint66_linear_1938_518" x1="120.414" y1="-194.96" x2="128.437" y2="228.579" gradientUnits="userSpaceOnUse">
<stop stop-color="#EEAABA"/>
<stop offset="1" stop-color="#E47992" stop-opacity="0"/>
</linearGradient>
<linearGradient id="paint67_linear_1938_518" x1="120.414" y1="-194.96" x2="128.437" y2="228.579" gradientUnits="userSpaceOnUse">
<stop stop-color="#EEAABA"/>
<stop offset="1" stop-color="#E47992" stop-opacity="0"/>
</linearGradient>
<linearGradient id="paint68_linear_1938_518" x1="120.414" y1="-194.96" x2="128.437" y2="228.579" gradientUnits="userSpaceOnUse">
<stop stop-color="#EEAABA"/>
<stop offset="1" stop-color="#E47992" stop-opacity="0"/>
</linearGradient>
<linearGradient id="paint69_linear_1938_518" x1="120.414" y1="-194.96" x2="128.437" y2="228.579" gradientUnits="userSpaceOnUse">
<stop stop-color="#EEAABA"/>
<stop offset="1" stop-color="#E47992" stop-opacity="0"/>
</linearGradient>
<linearGradient id="paint70_linear_1938_518" x1="120.414" y1="-194.96" x2="128.437" y2="228.579" gradientUnits="userSpaceOnUse">
<stop stop-color="#EEAABA"/>
<stop offset="1" stop-color="#E47992" stop-opacity="0"/>
</linearGradient>
<linearGradient id="paint71_linear_1938_518" x1="120.414" y1="-194.96" x2="128.437" y2="228.579" gradientUnits="userSpaceOnUse">
<stop stop-color="#EEAABA"/>
<stop offset="1" stop-color="#E47992" stop-opacity="0"/>
</linearGradient>
<linearGradient id="paint72_linear_1938_518" x1="120.414" y1="-194.96" x2="128.437" y2="228.579" gradientUnits="userSpaceOnUse">
<stop stop-color="#EEAABA"/>
<stop offset="1" stop-color="#E47992" stop-opacity="0"/>
</linearGradient>
<linearGradient id="paint73_linear_1938_518" x1="120.414" y1="-194.96" x2="128.437" y2="228.579" gradientUnits="userSpaceOnUse">
<stop stop-color="#EEAABA"/>
<stop offset="1" stop-color="#E47992" stop-opacity="0"/>
</linearGradient>
<linearGradient id="paint74_linear_1938_518" x1="120.414" y1="-194.96" x2="128.437" y2="228.579" gradientUnits="userSpaceOnUse">
<stop stop-color="#EEAABA"/>
<stop offset="1" stop-color="#E47992" stop-opacity="0"/>
</linearGradient>
<linearGradient id="paint75_linear_1938_518" x1="120.414" y1="-194.96" x2="128.437" y2="228.579" gradientUnits="userSpaceOnUse">
<stop stop-color="#EEAABA"/>
<stop offset="1" stop-color="#E47992" stop-opacity="0"/>
</linearGradient>
<linearGradient id="paint76_linear_1938_518" x1="120.414" y1="-194.96" x2="128.437" y2="228.579" gradientUnits="userSpaceOnUse">
<stop stop-color="#EEAABA"/>
<stop offset="1" stop-color="#E47992" stop-opacity="0"/>
</linearGradient>
<linearGradient id="paint77_linear_1938_518" x1="120.414" y1="-194.96" x2="128.437" y2="228.579" gradientUnits="userSpaceOnUse">
<stop stop-color="#EEAABA"/>
<stop offset="1" stop-color="#E47992" stop-opacity="0"/>
</linearGradient>
<linearGradient id="paint78_linear_1938_518" x1="120.414" y1="-194.96" x2="128.437" y2="228.579" gradientUnits="userSpaceOnUse">
<stop stop-color="#EEAABA"/>
<stop offset="1" stop-color="#E47992" stop-opacity="0"/>
</linearGradient>
<linearGradient id="paint79_linear_1938_518" x1="120.414" y1="-194.96" x2="128.437" y2="228.579" gradientUnits="userSpaceOnUse">
<stop stop-color="#EEAABA"/>
<stop offset="1" stop-color="#E47992" stop-opacity="0"/>
</linearGradient>
<linearGradient id="paint80_linear_1938_518" x1="120.414" y1="-194.96" x2="128.437" y2="228.579" gradientUnits="userSpaceOnUse">
<stop stop-color="#EEAABA"/>
<stop offset="1" stop-color="#E47992" stop-opacity="0"/>
</linearGradient>
<linearGradient id="paint81_linear_1938_518" x1="120.414" y1="-194.96" x2="128.437" y2="228.579" gradientUnits="userSpaceOnUse">
<stop stop-color="#EEAABA"/>
<stop offset="1" stop-color="#E47992" stop-opacity="0"/>
</linearGradient>
<linearGradient id="paint82_linear_1938_518" x1="120.414" y1="-194.96" x2="128.437" y2="228.579" gradientUnits="userSpaceOnUse">
<stop stop-color="#EEAABA"/>
<stop offset="1" stop-color="#E47992" stop-opacity="0"/>
</linearGradient>
<linearGradient id="paint83_linear_1938_518" x1="120.414" y1="-194.96" x2="128.437" y2="228.579" gradientUnits="userSpaceOnUse">
<stop stop-color="#EEAABA"/>
<stop offset="1" stop-color="#E47992" stop-opacity="0"/>
</linearGradient>
<linearGradient id="paint84_linear_1938_518" x1="120.414" y1="-194.96" x2="128.437" y2="228.579" gradientUnits="userSpaceOnUse">
<stop stop-color="#EEAABA"/>
<stop offset="1" stop-color="#E47992" stop-opacity="0"/>
</linearGradient>
<linearGradient id="paint85_linear_1938_518" x1="120.414" y1="-194.96" x2="128.437" y2="228.579" gradientUnits="userSpaceOnUse">
<stop stop-color="#EEAABA"/>
<stop offset="1" stop-color="#E47992" stop-opacity="0"/>
</linearGradient>
<linearGradient id="paint86_linear_1938_518" x1="120.414" y1="-194.96" x2="128.437" y2="228.579" gradientUnits="userSpaceOnUse">
<stop stop-color="#EEAABA"/>
<stop offset="1" stop-color="#E47992" stop-opacity="0"/>
</linearGradient>
<linearGradient id="paint87_linear_1938_518" x1="120.414" y1="-194.96" x2="128.437" y2="228.579" gradientUnits="userSpaceOnUse">
<stop stop-color="#EEAABA"/>
<stop offset="1" stop-color="#E47992" stop-opacity="0"/>
</linearGradient>
<linearGradient id="paint88_linear_1938_518" x1="120.414" y1="-194.96" x2="128.437" y2="228.579" gradientUnits="userSpaceOnUse">
<stop stop-color="#EEAABA"/>
<stop offset="1" stop-color="#E47992" stop-opacity="0"/>
</linearGradient>
<linearGradient id="paint89_linear_1938_518" x1="120.414" y1="-194.96" x2="128.437" y2="228.579" gradientUnits="userSpaceOnUse">
<stop stop-color="#EEAABA"/>
<stop offset="1" stop-color="#E47992" stop-opacity="0"/>
</linearGradient>
<linearGradient id="paint90_linear_1938_518" x1="120.414" y1="-194.96" x2="128.437" y2="228.579" gradientUnits="userSpaceOnUse">
<stop stop-color="#EEAABA"/>
<stop offset="1" stop-color="#E47992" stop-opacity="0"/>
</linearGradient>
<linearGradient id="paint91_linear_1938_518" x1="120.414" y1="-194.96" x2="128.437" y2="228.579" gradientUnits="userSpaceOnUse">
<stop stop-color="#EEAABA"/>
<stop offset="1" stop-color="#E47992" stop-opacity="0"/>
</linearGradient>
<linearGradient id="paint92_linear_1938_518" x1="120.414" y1="-194.96" x2="128.437" y2="228.579" gradientUnits="userSpaceOnUse">
<stop stop-color="#EEAABA"/>
<stop offset="1" stop-color="#E47992" stop-opacity="0"/>
</linearGradient>
<linearGradient id="paint93_linear_1938_518" x1="120.414" y1="-194.96" x2="128.437" y2="228.579" gradientUnits="userSpaceOnUse">
<stop stop-color="#EEAABA"/>
<stop offset="1" stop-color="#E47992" stop-opacity="0"/>
</linearGradient>
<linearGradient id="paint94_linear_1938_518" x1="120.414" y1="-194.96" x2="128.437" y2="228.579" gradientUnits="userSpaceOnUse">
<stop stop-color="#EEAABA"/>
<stop offset="1" stop-color="#E47992" stop-opacity="0"/>
</linearGradient>
<linearGradient id="paint95_linear_1938_518" x1="120.414" y1="-194.96" x2="128.437" y2="228.579" gradientUnits="userSpaceOnUse">
<stop stop-color="#EEAABA"/>
<stop offset="1" stop-color="#E47992" stop-opacity="0"/>
</linearGradient>
<linearGradient id="paint96_linear_1938_518" x1="120.414" y1="-194.96" x2="128.437" y2="228.579" gradientUnits="userSpaceOnUse">
<stop stop-color="#EEAABA"/>
<stop offset="1" stop-color="#E47992" stop-opacity="0"/>
</linearGradient>
<linearGradient id="paint97_linear_1938_518" x1="120.414" y1="-194.96" x2="128.437" y2="228.579" gradientUnits="userSpaceOnUse">
<stop stop-color="#EEAABA"/>
<stop offset="1" stop-color="#E47992" stop-opacity="0"/>
</linearGradient>
<linearGradient id="paint98_linear_1938_518" x1="120.414" y1="-194.96" x2="128.437" y2="228.579" gradientUnits="userSpaceOnUse">
<stop stop-color="#EEAABA"/>
<stop offset="1" stop-color="#E47992" stop-opacity="0"/>
</linearGradient>
<linearGradient id="paint99_linear_1938_518" x1="120.414" y1="-194.96" x2="128.437" y2="228.579" gradientUnits="userSpaceOnUse">
<stop stop-color="#EEAABA"/>
<stop offset="1" stop-color="#E47992" stop-opacity="0"/>
</linearGradient>
</defs>
</svg>
