<svg width="48" height="49" viewBox="0 0 48 49" fill="none" xmlns="http://www.w3.org/2000/svg">
<circle cx="24" cy="24.8423" r="24" fill="#FAE6EA"/>
<g clip-path="url(#clip0_1665_12220)">
<path d="M35.9243 23.5101C35.8864 23.1727 35.4929 22.919 35.1527 22.919C34.0531 22.919 33.0773 22.2736 32.668 21.2747C32.2503 20.2518 32.5198 19.0592 33.339 18.3076C33.5971 18.0717 33.6285 17.6767 33.4122 17.4024C32.8492 16.6877 32.2097 16.0421 31.5112 15.4825C31.2379 15.2633 30.8363 15.2938 30.5992 15.5563C29.8839 16.3484 28.5991 16.6428 27.6062 16.2286C26.5734 15.794 25.9215 14.747 25.9855 13.6233C26.0066 13.2701 25.7484 12.9632 25.3964 12.9222C24.5 12.8184 23.5956 12.8154 22.6966 12.9151C22.3491 12.9535 22.0911 13.2532 22.1026 13.6019C22.1415 14.7147 21.4822 15.7431 20.4594 16.1621C19.4784 16.5629 18.2025 16.2707 17.4887 15.4855C17.2528 15.2269 16.8583 15.1951 16.5832 15.4097C15.8641 15.974 15.2101 16.6201 14.642 17.329C14.4206 17.6045 14.4533 18.0039 14.7135 18.2407C15.5489 18.9972 15.8182 20.2001 15.3845 21.2349C14.9703 22.2215 13.946 22.857 12.7735 22.857C12.393 22.8448 12.1222 23.1004 12.0802 23.4464C11.9747 24.3476 11.9736 25.2664 12.0751 26.175C12.113 26.5138 12.5181 26.7654 12.862 26.7654C13.9072 26.7388 14.91 27.3854 15.3313 28.4095C15.7505 29.4324 15.4807 30.6245 14.6601 31.3771C14.4034 31.613 14.3706 32.0071 14.5874 32.2811C15.1446 32.9913 15.7848 33.6374 16.4854 34.2017C16.7604 34.4232 17.1604 34.3922 17.3989 34.1294C18.1169 33.3354 19.4015 33.0415 20.3903 33.4566C21.4262 33.89 22.0778 34.9369 22.0142 36.0609C21.9933 36.4141 22.2521 36.722 22.6029 36.762C23.0616 36.8157 23.5228 36.8423 23.9854 36.8423C24.4244 36.8423 24.8635 36.8183 25.3027 36.7694C25.6506 36.731 25.9082 36.431 25.8965 36.0822C25.8563 34.97 26.517 33.9414 27.5387 33.5232C28.5261 33.1199 29.7963 33.4151 30.5105 34.1991C30.7477 34.4572 31.1398 34.4886 31.4161 34.2749C32.1339 33.712 32.7867 33.0662 33.3573 32.3555C33.5789 32.0804 33.5475 31.6805 33.2858 31.4433C32.4506 30.6873 32.1798 29.4839 32.6135 28.4501C33.0212 27.4769 34.0075 26.8234 35.0682 26.8234L35.2166 26.8273C35.561 26.8553 35.8775 26.5901 35.9191 26.2387C36.0251 25.3367 36.0262 24.419 35.9243 23.5101ZM23.9998 31.7604C20.1789 31.7604 17.0817 28.6632 17.0817 24.8424C17.0817 21.0217 20.179 17.9244 23.9998 17.9244C27.8206 17.9244 30.9179 21.0217 30.9179 24.8424C30.9179 26.1393 30.5603 27.3523 29.9394 28.3896L26.9101 25.3602C27.1294 24.8432 27.2452 24.2826 27.2451 23.704C27.2451 22.5712 26.8039 21.5062 26.0028 20.7052C25.2018 19.9042 24.1368 19.4631 23.0041 19.4631C22.6261 19.4631 22.2499 19.5134 21.8859 19.6125C21.7264 19.656 21.5961 19.7874 21.5536 19.9471C21.5102 20.1105 21.5591 20.2779 21.6868 20.4057C21.6868 20.4057 23.1823 21.9127 23.6827 22.413C23.7351 22.4654 23.735 22.5905 23.7276 22.6355L23.723 22.6684C23.6725 23.2185 23.5753 23.8788 23.495 24.1326C23.4843 24.1433 23.4741 24.1523 23.4631 24.1633C23.4516 24.1748 23.441 24.1859 23.4299 24.1974C23.1728 24.2799 22.5023 24.3783 21.9435 24.4283L21.9436 24.4253L21.9185 24.4316C21.914 24.4321 21.9057 24.4328 21.8947 24.4328C21.8343 24.4328 21.7454 24.4158 21.6647 24.3352C21.1439 23.8144 19.707 22.3878 19.707 22.3878C19.5781 22.2593 19.4458 22.2323 19.3577 22.2323C19.1523 22.2323 18.9684 22.3807 18.9105 22.5936C18.5149 24.0573 18.9342 25.6319 20.0051 26.7028C20.8062 27.5038 21.8713 27.945 23.0042 27.945C23.5828 27.945 24.1433 27.8292 24.6603 27.6099L27.7225 30.6721C26.6474 31.36 25.3708 31.7604 23.9998 31.7604Z" fill="#D94265"/>
</g>
<defs>
<clipPath id="clip0_1665_12220">
<rect width="24" height="24" fill="white" transform="translate(12 12.8423)"/>
</clipPath>
</defs>
</svg>
