<svg width="56" height="57" viewBox="0 0 56 57" fill="none" xmlns="http://www.w3.org/2000/svg">
<circle cx="28" cy="28.4211" r="28" fill="white"/>
<path d="M34.5625 18.5227H31.2812V16.0618C31.2812 15.6087 30.914 15.2415 30.4609 15.2415H25.5391C25.086 15.2415 24.7188 15.6087 24.7188 16.0618V18.5227H21.4375C20.9845 18.5227 20.6172 18.89 20.6172 19.343V21.804H35.3828V19.343C35.3828 18.89 35.0155 18.5227 34.5625 18.5227ZM29.6406 18.5227H26.3594V16.8821H29.6406V18.5227Z" fill="#D94265"/>
<path d="M28.8203 25.0852C28.8203 25.5382 28.453 25.9055 28 25.9055C27.547 25.9055 27.1797 25.5382 27.1797 25.0852V23.4446H20.6172V28.093C20.6172 29.1484 21.4758 30.0071 22.5312 30.0071H33.4688C34.5242 30.0071 35.3828 29.1484 35.3828 28.093V23.4446H28.8203V25.0852Z" fill="#D94265"/>
<path d="M18.902 31.4095L15.6406 34.6709V32.8231C15.6406 32.3701 15.2733 32.0028 14.8203 32.0028C14.3673 32.0028 14 32.3701 14 32.8231V36.6512C14 37.1042 14.3673 37.4715 14.8203 37.4715H18.6484C19.1015 37.4715 19.4688 37.1042 19.4688 36.6512C19.4688 36.1982 19.1015 35.8309 18.6484 35.8309H16.8007L20.0621 32.5695C20.3825 32.2492 20.3825 31.7298 20.0621 31.4094C19.7418 31.0891 19.2224 31.0891 18.902 31.4095Z" fill="#D94265"/>
<path d="M41.1774 32.0027C40.7243 32.0027 40.3571 32.37 40.3571 32.823V34.6708L37.0957 31.4094C36.7754 31.0891 36.2559 31.0891 35.9356 31.4094C35.6152 31.7297 35.6152 32.2491 35.9356 32.5695L39.197 35.8309H37.3493C36.8962 35.8309 36.5289 36.1982 36.5289 36.6512C36.5289 37.1042 36.8962 37.4715 37.3493 37.4715H41.1774C41.6304 37.4715 41.9977 37.1042 41.9977 36.6512V32.8231C41.9977 32.37 41.6304 32.0027 41.1774 32.0027Z" fill="#D94265"/>
<path d="M30.1267 37.4936L28.8202 38.8001V33.9446C28.8202 33.4915 28.4529 33.1243 27.9999 33.1243C27.5468 33.1243 27.1796 33.4915 27.1796 33.9446V38.8001L25.873 37.4936C25.5527 37.1733 25.0333 37.1733 24.7129 37.4936C24.3926 37.8139 24.3926 38.3334 24.7129 38.6537L27.4197 41.3605C27.7399 41.6807 28.2601 41.6805 28.58 41.3605L31.2868 38.6537C31.6072 38.3334 31.6072 37.814 31.2868 37.4936C30.9664 37.1732 30.4471 37.1732 30.1267 37.4936Z" fill="#D94265"/>
</svg>
