<svg width="56" height="56" viewBox="0 0 56 56" fill="none" xmlns="http://www.w3.org/2000/svg">
<circle cx="28" cy="28" r="28" fill="#FAE6EA"/>
<path d="M33.005 23C33.2702 23 33.5245 23.1054 33.7121 23.2929C33.8996 23.4804 34.005 23.7348 34.005 24C34.005 25.4933 33.349 26.8347 32.3116 27.7493C32.2141 27.8415 32.099 27.913 31.9732 27.9597C31.8475 28.0064 31.7136 28.0274 31.5796 28.0213C31.4456 28.0152 31.3141 27.9822 31.1931 27.9243C31.0721 27.8663 30.964 27.7846 30.8752 27.684C30.7865 27.5834 30.7188 27.466 30.6764 27.3387C30.6339 27.2115 30.6175 27.077 30.6281 26.9432C30.6387 26.8095 30.6762 26.6793 30.7381 26.5603C30.8001 26.4413 30.8854 26.336 30.989 26.2507C31.3088 25.9695 31.5649 25.6232 31.7401 25.2351C31.9153 24.8469 32.0056 24.4259 32.005 24C32.005 23.7348 32.1103 23.4804 32.2979 23.2929C32.4854 23.1054 32.7397 23 33.005 23Z" fill="#D94265"/>
<path fill-rule="evenodd" clip-rule="evenodd" d="M28 15C20.82 15 15 20.82 15 28C15 35.18 20.82 41 28 41C35.18 41 41 35.18 41 28C41 20.82 35.18 15 28 15ZM18.1 32.8C19.1937 35.057 21.0258 36.8725 23.2927 37.9456C25.5596 39.0186 28.1251 39.2848 30.564 38.7C30.3766 38.2007 30.0413 37.7705 29.6029 37.4667C29.1646 37.163 28.644 37.0002 28.1107 37C27.8002 37.0001 27.4998 36.89 27.2629 36.6893C27.0261 36.4885 26.8682 36.2103 26.8173 35.904L26.72 35.3213C26.5947 34.568 27.0533 33.8413 27.7867 33.632L29.1067 33.256C29.676 33.092 30.1507 32.6987 30.416 32.168L30.464 32.0707C30.6013 31.7959 30.802 31.5578 31.0494 31.3758C31.2969 31.1939 31.5841 31.0734 31.8873 31.0243C32.1904 30.9752 32.501 30.9989 32.7932 31.0935C33.0854 31.188 33.351 31.3506 33.568 31.568L34 32H34.8373C35.3798 31.9999 35.9122 32.1469 36.3778 32.4253C36.8434 32.7038 37.2248 33.1033 37.4813 33.5813C38.4211 31.9851 38.9425 30.1774 38.9973 28.3258C39.052 26.4743 38.6383 24.6389 37.7945 22.9899C36.9508 21.3409 35.7042 19.9317 34.1705 18.893C32.6369 17.8543 30.8657 17.2196 29.0213 17.048C29.08 17.3973 29.2613 17.7187 29.54 17.9493L30.964 19.136C31.5533 19.628 31.6773 20.4827 31.252 21.1227L30.572 22.144C30.2017 22.6989 29.657 23.1146 29.024 23.3253L28.8333 23.3893C28.6182 23.4613 28.4225 23.5818 28.2615 23.7416C28.1005 23.9015 27.9785 24.0962 27.905 24.3108C27.8315 24.5255 27.8085 24.7541 27.8376 24.9791C27.8668 25.204 27.9475 25.4193 28.0733 25.608C28.5653 26.348 28.2987 27.3507 27.504 27.748L24 29.5L24.564 30.912C24.6777 31.1988 24.6836 31.5171 24.5805 31.8079C24.4774 32.0987 24.2724 32.3422 24.0034 32.4933C23.7344 32.6444 23.4198 32.6928 23.1178 32.6296C22.8158 32.5663 22.5471 32.3957 22.3613 32.1493L21.456 30.9413C21.3026 30.7369 21.0994 30.575 20.8658 30.4711C20.6323 30.3672 20.376 30.3247 20.1214 30.3477C19.8668 30.3707 19.6223 30.4584 19.4111 30.6024C19.1999 30.7464 19.029 30.942 18.9147 31.1707L18.1 32.8Z" fill="#D94265"/>
</svg>
