<svg width="32" height="32" viewBox="0 0 32 32" fill="none" xmlns="http://www.w3.org/2000/svg">
<path d="M27.4286 13.7143V5.71426C27.4286 5.08305 26.9169 4.57138 26.2857 4.57138H18.2857C18.2857 2.04669 16.239 0 13.7143 0C11.1895 0 9.14283 2.04669 9.14283 4.57145H1.14288C0.511674 4.57145 0 5.08312 0 5.71426V13.8765C0.372388 13.7736 0.756495 13.7191 1.14288 13.7143C3.66763 13.7143 5.71433 15.761 5.71433 18.2857C5.71433 20.8105 3.66763 22.8572 1.14288 22.8572C0.756495 22.8523 0.372388 22.7978 0 22.6949V30.8571C0 31.4883 0.511674 32 1.14288 32H9.30515C9.20223 31.6276 9.14772 31.2435 9.14289 30.8571C9.14289 28.3324 11.1896 26.2857 13.7143 26.2857C16.2391 26.2857 18.2858 28.3324 18.2858 30.8571C18.281 31.2434 18.2264 31.6275 18.1235 32H26.2858C26.917 32 27.4287 31.4883 27.4287 30.8571V22.8571C29.9534 22.8571 32.0001 20.8104 32.0001 18.2857C32.0001 15.7609 29.9533 13.7143 27.4286 13.7143Z" fill="#D94265"/>
</svg>
