<svg width="32" height="32" viewBox="0 0 32 32" fill="none" xmlns="http://www.w3.org/2000/svg">
<path d="M30.4862 17.4765C30.738 17.3229 30.946 17.1071 31.0904 16.8499C31.2348 16.5927 31.3106 16.3027 31.3106 16.0078C31.3106 15.7128 31.2348 15.4229 31.0904 15.1656C30.946 14.9084 30.738 14.6927 30.4862 14.539C27.832 12.9301 25.3812 11.0073 23.1869 8.81216C20.9939 6.61815 19.0732 4.16801 17.4662 1.51466C17.3131 1.2626 17.0977 1.05414 16.8408 0.909289C16.5838 0.76444 16.294 0.688068 15.9991 0.687503C15.7041 0.686938 15.414 0.7622 15.1565 0.906063C14.899 1.04993 14.6828 1.25756 14.5287 1.50904C12.9118 4.15519 10.9869 6.60037 8.79435 8.79341C6.60093 10.9864 4.15533 12.9117 1.50872 14.529C1.25728 14.6832 1.04969 14.8994 0.905885 15.1569C0.762076 15.4144 0.686876 15.7046 0.687504 15.9995C0.688131 16.2945 0.764566 16.5843 0.909469 16.8412C1.05437 17.0981 1.26288 17.3134 1.51497 17.4665C4.16115 19.0686 6.60515 20.9829 8.79435 23.1684C10.996 25.3668 12.9237 27.8234 14.5356 30.4847C14.6892 30.7364 14.905 30.9445 15.1622 31.0888C15.4194 31.2332 15.7094 31.309 16.0044 31.309C16.2993 31.309 16.5893 31.2332 16.8465 31.0888C17.1037 30.9445 17.3195 30.7364 17.4731 30.4847C20.7056 25.1683 25.1686 20.7069 30.4862 17.4765Z" fill="#D94265"/>
</svg>
