<svg width="48" height="49" viewBox="0 0 48 49" fill="none" xmlns="http://www.w3.org/2000/svg">
<circle cx="24" cy="24.8423" r="24" fill="#FAE6EA"/>
<g clip-path="url(#clip0_1665_12187)">
<path d="M15.5642 28.729L12.9297 31.3635L18.4085 36.8424L21.043 34.2078L15.5642 28.729ZM18.9002 35.3236C18.5555 35.3236 18.2761 35.0441 18.2761 34.6995C18.276 34.3548 18.5554 34.0754 18.9002 34.0754C19.2448 34.0754 19.5243 34.3548 19.5243 34.6995C19.5243 35.0441 19.2448 35.3236 18.9002 35.3236Z" fill="#D94265"/>
<path d="M34.5397 22.7536C33.8838 22.1428 32.8512 22.1897 32.2175 22.8235L28.551 26.49L28.5436 26.4911C28.6957 26.2545 28.7886 25.9772 28.7993 25.6774C28.8327 24.7371 28.0804 23.9642 27.1475 23.9642H23.1918C22.0633 23.9642 20.981 24.4126 20.1831 25.2105L17.1172 28.2764L20.7783 31.9375L21.4293 31.2864H26.6672C27.7957 31.2864 28.878 30.8381 29.6759 30.0402L34.583 25.1331C35.2427 24.4733 35.2283 23.3949 34.5397 22.7536Z" fill="#D94265"/>
<path d="M30.3974 18.3201C30.2783 17.8317 30.0854 17.3722 29.8312 16.9541L31.0391 15.4601L29.6897 14.1107L28.1957 15.3186C27.7775 15.0644 27.3181 14.8715 26.8297 14.7523L26.6275 12.8423H24.7191L24.5169 14.7523C24.0285 14.8715 23.569 15.0644 23.1509 15.3186L21.6569 14.1107L20.3075 15.4601L21.5154 16.9541C21.2612 17.3722 21.0683 17.8317 20.9491 18.3201L19.0391 18.5224V20.4307L20.9491 20.633C21.0683 21.1213 21.2612 21.5808 21.5154 21.9989L20.5214 23.2283C20.6848 23.141 20.8531 23.0615 21.026 22.9899C21.7163 22.7039 22.4452 22.559 23.1924 22.559H27.1481C27.9859 22.559 28.7676 22.891 29.3495 23.4939C29.384 23.5297 29.4177 23.5663 29.4503 23.6035L30.3783 22.6755L29.8312 21.9989C30.0854 21.5808 30.2783 21.1213 30.3974 20.6329L32.3075 20.4306V18.5223L30.3974 18.3201ZM25.6733 21.7121C24.4386 21.7121 23.4377 20.7112 23.4377 19.4765C23.4377 18.2418 24.4386 17.2409 25.6733 17.2409C26.9079 17.2409 27.9088 18.2418 27.9088 19.4765C27.9088 20.7112 26.908 21.7121 25.6733 21.7121Z" fill="#D94265"/>
</g>
<defs>
<clipPath id="clip0_1665_12187">
<rect width="24" height="24" fill="white" transform="translate(12 12.8423)"/>
</clipPath>
</defs>
</svg>
