<svg width="48" height="49" viewBox="0 0 48 49" fill="none" xmlns="http://www.w3.org/2000/svg">
<circle cx="24" cy="24.8425" r="24" fill="#FAE6EA"/>
<path d="M32.418 32.325H28.3258H19.8362C19.4823 32.325 19.1953 32.6119 19.1953 32.9659V33.3603C19.1953 33.7143 19.4823 34.0014 19.8362 34.0014H28.3259H32.418H34.538V32.325L32.418 32.325Z" fill="#D94265"/>
<path d="M18.5093 22.2342C20.469 22.2342 22.0577 20.6455 22.0577 18.6858C22.0577 16.7261 20.469 15.1375 18.5093 15.1375C16.5496 15.1375 14.9609 16.7261 14.9609 18.6858C14.9609 20.6455 16.5496 22.2342 18.5093 22.2342Z" fill="#D94265"/>
<path d="M27.163 27.3898L19.0316 27.3853L18.839 27.3847V26.4411L18.8324 25.6513C18.8324 23.7646 17.3029 22.2351 15.4162 22.2351C15.3523 22.2351 15.2888 22.2373 15.2257 22.2407L15.2209 22.2351C13.442 22.2352 12 23.6772 12 25.456V34.5527H18.839V30.6775L18.7486 30.6704C18.7421 30.6698 18.7405 30.6705 18.7365 30.6705C18.2738 30.6705 17.8303 30.4756 17.5178 30.1345L14.742 27.1045C14.6535 27.0079 14.6601 26.858 14.7567 26.7695C14.8532 26.681 15.0032 26.6876 15.0916 26.7842L17.8674 29.8142C18.093 30.0604 18.4111 30.2109 18.746 30.2158C18.7683 30.2161 19.0723 30.2205 19.0723 30.2205H27.163C27.9446 30.2205 28.5783 29.5868 28.5783 28.8051C28.5784 28.0234 27.9446 27.3898 27.163 27.3898Z" fill="#D94265"/>
<path d="M35.5657 22.3671C35.2347 22.2537 34.8745 22.4302 34.761 22.7612L32.0746 30.6037H22.4617C22.1119 30.6037 21.8281 30.8873 21.8281 31.2372C21.8281 31.5871 22.1119 31.8707 22.4617 31.8707H32.5195C32.735 31.8707 32.9252 31.7628 33.0395 31.5984C33.079 31.5462 33.1112 31.4872 33.1337 31.4219L35.9601 23.1715C36.0731 22.8407 35.8968 22.4804 35.5657 22.3671Z" fill="#D94265"/>
</svg>
