<svg width="32" height="32" viewBox="0 0 32 32" fill="none" xmlns="http://www.w3.org/2000/svg">
<circle cx="16" cy="16" r="16" fill="white"/>
<path d="M23.6872 12.0101L16.156 9.35289C16.0551 9.31727 15.945 9.31727 15.8441 9.35289L8.31281 12.0101C8.12556 12.0762 8.00025 12.253 8 12.4516C7.99975 12.6502 8.12466 12.8273 8.31175 12.8938L15.843 15.5712C15.8938 15.5893 15.9469 15.5983 16 15.5983C16.0531 15.5983 16.1062 15.5893 16.157 15.5712L23.6882 12.8938C23.8753 12.8273 24.0002 12.6502 24 12.4516C23.9998 12.253 23.8744 12.0762 23.6872 12.0101Z" fill="#D94265"/>
<path d="M22.875 18.2665V14.1777L21.9375 14.511V18.2665C21.6551 18.429 21.4648 18.7335 21.4648 19.0828C21.4648 19.432 21.6551 19.7365 21.9375 19.899V22.2027C21.9375 22.4615 22.1474 22.6714 22.4062 22.6714C22.6651 22.6714 22.875 22.4615 22.875 22.2027V19.8991C23.1574 19.7366 23.3477 19.432 23.3477 19.0828C23.3477 18.7336 23.1574 18.429 22.875 18.2665Z" fill="#D94265"/>
<path d="M16.0017 16.5356C15.8408 16.5356 15.6824 16.5083 15.5307 16.4544L11.2969 14.9492V17.012C11.2969 17.5166 11.8233 17.9434 12.8617 18.2804C13.7667 18.5742 14.8819 18.7359 16.0017 18.7359C17.1216 18.7359 18.2368 18.5742 19.1418 18.2804C20.1802 17.9434 20.7066 17.5166 20.7066 17.012V14.9492L16.4728 16.4544C16.3211 16.5083 16.1627 16.5356 16.0017 16.5356Z" fill="#D94265"/>
</svg>
