<svg width="32" height="32" viewBox="0 0 32 32" fill="none" xmlns="http://www.w3.org/2000/svg">
<circle cx="16" cy="16" r="16" fill="white"/>
<path d="M14.116 10.6673C14.3906 9.89065 15.1313 9.33398 16.002 9.33398C16.872 9.33398 17.6126 9.89065 17.8873 10.6673H19.6686C20.1106 10.6673 20.5333 10.8427 20.846 11.1553C21.1593 11.468 21.3353 11.892 21.3353 12.334V21.0007C21.3353 21.9213 20.588 22.6673 19.6686 22.6673H12.3346C11.414 22.6673 10.668 21.9213 10.668 21.0007V12.334C10.668 11.892 10.8433 11.468 11.156 11.1553C11.4686 10.8427 11.8926 10.6673 12.3346 10.6673H14.116ZM16.6686 20.0007H18.002C18.3693 20.0007 18.6686 19.702 18.6686 19.334C18.6686 18.966 18.3693 18.6673 18.002 18.6673H16.6686C16.3006 18.6673 16.002 18.966 16.002 19.334C16.002 19.702 16.3006 20.0007 16.6686 20.0007ZM14.002 17.334H18.002C18.3693 17.334 18.6686 17.0353 18.6686 16.6673C18.6686 16.2993 18.3693 16.0007 18.002 16.0007H14.002C13.634 16.0007 13.3353 16.2993 13.3353 16.6673C13.3353 17.0353 13.634 17.334 14.002 17.334ZM14.002 14.6673H18.002C18.3693 14.6673 18.6686 14.3687 18.6686 14.0007C18.6686 13.6327 18.3693 13.334 18.002 13.334H14.002C13.634 13.334 13.3353 13.6327 13.3353 14.0007C13.3353 14.3687 13.634 14.6673 14.002 14.6673Z" fill="#D94265"/>
</svg>
