<svg width="32" height="32" viewBox="0 0 32 32" fill="none" xmlns="http://www.w3.org/2000/svg">
<circle cx="16" cy="16" r="16" fill="white"/>
<path d="M12.5 18.5C13.6046 18.5 14.5 17.6046 14.5 16.5C14.5 15.3954 13.6046 14.5 12.5 14.5C11.3954 14.5 10.5 15.3954 10.5 16.5C10.5 17.6046 11.3954 18.5 12.5 18.5Z" fill="#D94265"/>
<path d="M14 19H11C10.4696 19 9.96086 19.2107 9.58579 19.5858C9.21071 19.9609 9 20.4696 9 21V22.5C9 22.6326 9.05268 22.7598 9.14645 22.8536C9.24021 22.9473 9.36739 23 9.5 23H15.5C15.6326 23 15.7598 22.9473 15.8536 22.8536C15.9473 22.7598 16 22.6326 16 22.5V21C16 20.4696 15.7893 19.9609 15.4142 19.5858C15.0391 19.2107 14.5304 19 14 19Z" fill="#D94265"/>
<path d="M21.5 9H15.5C15.1022 9 14.7206 9.15804 14.4393 9.43934C14.158 9.72064 14 10.1022 14 10.5V13.5C14 13.8978 14.158 14.2794 14.4393 14.5607C14.7206 14.842 15.1022 15 15.5 15H17V16C17.0003 16.0923 17.0261 16.1828 17.0747 16.2613C17.1232 16.3399 17.1925 16.4034 17.275 16.445C17.358 16.4871 17.4512 16.5052 17.5439 16.4973C17.6367 16.4893 17.7254 16.4556 17.8 16.4L19.665 15H21.5C21.8978 15 22.2794 14.842 22.5607 14.5607C22.842 14.2794 23 13.8978 23 13.5V10.5C23 10.1022 22.842 9.72064 22.5607 9.43934C22.2794 9.15804 21.8978 9 21.5 9ZM16.5 12.5C16.4011 12.5 16.3044 12.4707 16.2222 12.4157C16.14 12.3608 16.0759 12.2827 16.0381 12.1913C16.0002 12.1 15.9903 11.9994 16.0096 11.9025C16.0289 11.8055 16.0765 11.7164 16.1464 11.6464C16.2164 11.5765 16.3055 11.5289 16.4025 11.5096C16.4994 11.4903 16.6 11.5002 16.6913 11.5381C16.7827 11.5759 16.8608 11.64 16.9157 11.7222C16.9707 11.8044 17 11.9011 17 12C17 12.1326 16.9473 12.2598 16.8536 12.3536C16.7598 12.4473 16.6326 12.5 16.5 12.5ZM18.5 12.5C18.4011 12.5 18.3044 12.4707 18.2222 12.4157C18.14 12.3608 18.0759 12.2827 18.0381 12.1913C18.0002 12.1 17.9903 11.9994 18.0096 11.9025C18.0289 11.8055 18.0765 11.7164 18.1464 11.6464C18.2164 11.5765 18.3055 11.5289 18.4025 11.5096C18.4994 11.4903 18.6 11.5002 18.6913 11.5381C18.7827 11.5759 18.8608 11.64 18.9157 11.7222C18.9707 11.8044 19 11.9011 19 12C19 12.1326 18.9473 12.2598 18.8536 12.3536C18.7598 12.4473 18.6326 12.5 18.5 12.5ZM20.5 12.5C20.4011 12.5 20.3044 12.4707 20.2222 12.4157C20.14 12.3608 20.0759 12.2827 20.0381 12.1913C20.0002 12.1 19.9903 11.9994 20.0096 11.9025C20.0289 11.8055 20.0765 11.7164 20.1464 11.6464C20.2164 11.5765 20.3055 11.5289 20.4025 11.5096C20.4994 11.4903 20.6 11.5002 20.6913 11.5381C20.7827 11.5759 20.8608 11.64 20.9157 11.7222C20.9707 11.8044 21 11.9011 21 12C21 12.1326 20.9473 12.2598 20.8536 12.3536C20.7598 12.4473 20.6326 12.5 20.5 12.5Z" fill="#D94265"/>
<path d="M20.5 19.5C21.3284 19.5 22 18.8284 22 18C22 17.1716 21.3284 16.5 20.5 16.5C19.6716 16.5 19 17.1716 19 18C19 18.8284 19.6716 19.5 20.5 19.5Z" fill="#D94265"/>
<path d="M21.5 20H19.5C19.1022 20 18.7206 20.158 18.4393 20.4393C18.158 20.7206 18 21.1022 18 21.5V22.5C18 22.6326 18.0527 22.7598 18.1464 22.8536C18.2402 22.9473 18.3674 23 18.5 23H22.5C22.6326 23 22.7598 22.9473 22.8536 22.8536C22.9473 22.7598 23 22.6326 23 22.5V21.5C23 21.1022 22.842 20.7206 22.5607 20.4393C22.2794 20.158 21.8978 20 21.5 20Z" fill="#D94265"/>
</svg>
