<svg width="34" height="34" viewBox="0 0 34 34" fill="none" xmlns="http://www.w3.org/2000/svg">
<circle cx="17" cy="17" r="16.5" stroke="#CDCDD7"/>
<g clip-path="url(#clip0_1677_14603)">
<path d="M21.2427 20.5746L17 24.8173L12.7573 20.5746C11.9182 19.7355 11.3468 18.6664 11.1153 17.5025C10.8838 16.3387 11.0026 15.1323 11.4567 14.0359C11.9109 12.9396 12.6799 12.0025 13.6666 11.3432C14.6533 10.6839 15.8133 10.332 17 10.332C18.1867 10.332 19.3467 10.6839 20.3334 11.3432C21.3201 12.0025 22.0891 12.9396 22.5433 14.0359C22.9974 15.1323 23.1162 16.3387 22.8847 17.5025C22.6532 18.6664 22.0818 19.7355 21.2427 20.5746ZM17 17.6653C17.3536 17.6653 17.6928 17.5248 17.9428 17.2748C18.1929 17.0247 18.3333 16.6856 18.3333 16.332C18.3333 15.9784 18.1929 15.6392 17.9428 15.3892C17.6928 15.1391 17.3536 14.9986 17 14.9986C16.6464 14.9986 16.3072 15.1391 16.0572 15.3892C15.8071 15.6392 15.6667 15.9784 15.6667 16.332C15.6667 16.6856 15.8071 17.0247 16.0572 17.2748C16.3072 17.5248 16.6464 17.6653 17 17.6653Z" fill="#6A6A6A"/>
</g>
<defs>
<clipPath id="clip0_1677_14603">
<rect width="16" height="16" fill="white" transform="translate(9 9)"/>
</clipPath>
</defs>
</svg>
