<svg width="224" height="72" viewBox="0 0 224 72" fill="none" xmlns="http://www.w3.org/2000/svg">
<rect x="0.5" y="0.5" width="223" height="71" rx="9.5" fill="white"/>
<path d="M181.423 43.8044C180.947 43.273 180.543 42.6799 180.221 42.041C179.714 41.0396 179.013 40.1506 178.16 39.4263C177.306 38.7021 176.317 38.1572 175.251 37.8239C174.319 37.5337 173.344 37.4105 172.369 37.4599C173.078 37.4191 173.777 37.6497 174.324 38.1057C174.872 38.5616 175.228 39.209 175.321 39.9183C175.578 41.4509 176.252 42.8815 177.269 44.0502C178.286 45.219 179.606 46.08 181.08 46.537C182.767 47.059 184.574 47.0309 186.243 46.4567C184.384 46.1512 182.683 45.2155 181.423 43.8044Z" fill="#22D3EE"/>
<path d="M169.468 37.3084C169.685 38.2546 170.066 39.156 170.595 39.972C170.209 39.3795 170.06 38.6648 170.179 37.9688C170.297 37.2727 170.674 36.646 171.235 36.2122C172.426 35.2341 173.32 33.9469 173.818 32.4941C174.316 31.0412 174.398 29.4797 174.054 27.9835C173.662 26.2718 172.733 24.7282 171.399 23.5753C172.063 25.3367 172.101 27.2704 171.507 29.0564C171.28 29.7306 170.964 30.3721 170.567 30.9643C169.958 31.8945 169.544 32.9365 169.348 34.0286C169.151 35.1206 169.178 36.2407 169.425 37.3224L169.468 37.3084Z" fill="#8B5CF6"/>
<path d="M173.622 40.6027C173.306 41.2392 172.766 41.7313 172.109 41.98C171.451 42.2288 170.726 42.2159 170.078 41.944C168.649 41.4 167.099 41.2704 165.602 41.5696C164.105 41.8688 162.719 42.585 161.6 43.6382C160.323 44.8446 159.457 46.4316 159.126 48.1704C160.314 46.7057 161.958 45.6963 163.786 45.309C164.473 45.1661 165.175 45.1108 165.876 45.1442C166.974 45.2021 168.073 45.0357 169.108 44.655C170.142 44.2743 171.091 43.6869 171.898 42.9276C172.605 42.2611 173.191 41.4743 173.631 40.6027H173.622Z" fill="#2DD4BF"/>
<path d="M37.7568 48.06H41.7385V38.3641C41.7385 37.2902 42.0323 36.429 42.62 35.7806C43.2076 35.1322 43.9776 34.808 44.9299 34.808C45.9026 34.808 46.6725 35.1322 47.2399 35.7806C47.8275 36.4087 48.1214 37.2699 48.1214 38.3641V48.06H52.103V38.3641C52.103 37.2902 52.3968 36.429 52.9845 35.7806C53.5721 35.1322 54.3421 34.808 55.2944 34.808C56.2671 34.808 57.0371 35.1322 57.6044 35.7806C58.1921 36.4087 58.4859 37.2699 58.4859 38.3641V48.06H62.4675V37.4219C62.4675 36.1859 62.194 35.1018 61.6469 34.1697C61.1201 33.2173 60.4007 32.4777 59.4889 31.9509C58.5771 31.4241 57.5335 31.1606 56.3583 31.1606C55.2641 31.1606 54.2712 31.3835 53.3796 31.8293C52.5083 32.2751 51.789 32.9438 51.2216 33.8353C50.7353 33.0248 50.0362 32.3764 49.1244 31.8901C48.2328 31.4038 47.2298 31.1606 46.1153 31.1606C45.0819 31.1606 44.1599 31.3633 43.3494 31.7685C42.5389 32.1738 41.9209 32.7817 41.4954 33.5922V31.5254H37.7568V48.06Z" fill="#0F172A"/>
<path d="M70.8512 48.4247C72.9991 48.4247 74.7214 47.7155 76.0183 46.2971V48.06H79.7872V37.0572C79.7872 35.9022 79.4934 34.8789 78.9057 33.9873C78.3181 33.0957 77.5076 32.4068 76.4742 31.9205C75.461 31.4139 74.2756 31.1606 72.918 31.1606C71.2565 31.1606 69.7773 31.5558 68.4804 32.346C67.1836 33.1363 66.292 34.1798 65.8057 35.4766L69.0579 37.0572C69.3619 36.3074 69.838 35.7097 70.4865 35.2639C71.1349 34.7978 71.8947 34.5648 72.766 34.5648C73.6779 34.5648 74.4074 34.808 74.9545 35.2943C75.5218 35.7603 75.8055 36.348 75.8055 37.0572V37.6043L70.8816 38.3945C68.9363 38.7187 67.4977 39.3367 66.5656 40.2486C65.6335 41.1604 65.1674 42.3053 65.1674 43.6832C65.1674 45.1421 65.6841 46.2971 66.7175 47.1481C67.751 47.9992 69.1288 48.4247 70.8512 48.4247ZM69.3011 43.5312C69.3011 42.3762 70.0812 41.6467 71.6415 41.3428L75.8055 40.6437V41.3124C75.8055 42.4471 75.4104 43.4096 74.6201 44.1999C73.8501 44.9901 72.837 45.3852 71.5807 45.3852C70.912 45.3852 70.3649 45.2231 69.9394 44.8989C69.5138 44.5545 69.3011 44.0985 69.3011 43.5312Z" fill="#0F172A"/>
<path d="M83.4673 48.06H87.449V38.8504C87.449 37.5941 87.7934 36.6215 88.4824 35.9326C89.1916 35.2234 90.1034 34.8688 91.2179 34.8688H92.6464V31.343H91.6738C90.6606 31.343 89.7691 31.5254 88.9991 31.8901C88.2291 32.2548 87.6313 32.9134 87.2058 33.8657V31.5254H83.4673V48.06Z" fill="#0F172A"/>
<path d="M102.819 48.2423C103.487 48.2423 104.146 48.1917 104.794 48.0904V44.6558C104.409 44.7166 104.055 44.747 103.73 44.747C102.758 44.747 102.049 44.5241 101.603 44.0783C101.157 43.6325 100.934 42.9942 100.934 42.1634V35.0815H104.733V31.5254H100.934V27.7565H96.9525V29.033C96.9525 29.8435 96.7296 30.4616 96.2838 30.8871C95.838 31.3126 95.2098 31.5254 94.3993 31.5254H94.0954V35.0815H96.9525V42.3762C96.9525 44.2201 97.459 45.6588 98.4722 46.6922C99.5056 47.7256 100.954 48.2423 102.819 48.2423Z" fill="#0F172A"/>
<path d="M107.836 29.6713H111.818V25.4161H107.836V29.6713ZM107.836 48.06H111.818V31.5254H107.836V48.06Z" fill="#0F172A"/>
<path d="M115.494 48.06H119.476V38.3641C119.476 37.2902 119.78 36.429 120.388 35.7806C121.016 35.1322 121.826 34.808 122.819 34.808C123.812 34.808 124.613 35.1322 125.221 35.7806C125.849 36.4087 126.163 37.2699 126.163 38.3641V48.06H130.144V37.4219C130.144 36.1859 129.881 35.1018 129.354 34.1697C128.827 33.2173 128.088 32.4777 127.135 31.9509C126.203 31.4241 125.129 31.1606 123.914 31.1606C122.88 31.1606 121.948 31.3633 121.117 31.7685C120.307 32.1738 119.679 32.7715 119.233 33.5618V31.5254H115.494V48.06Z" fill="#0F172A"/>
<path d="M141.596 48.4247C143.197 48.4247 144.656 48.06 145.973 47.3305C147.29 46.5808 148.344 45.5575 149.134 44.2607C149.924 42.9436 150.319 41.4542 150.319 39.7927C150.319 38.1311 149.924 36.6519 149.134 35.3551C148.364 34.0582 147.321 33.035 146.003 32.2852C144.686 31.5355 143.217 31.1606 141.596 31.1606C139.955 31.1606 138.476 31.5355 137.159 32.2852C135.842 33.035 134.788 34.0582 133.998 35.3551C133.228 36.6519 132.843 38.1311 132.843 39.7927C132.843 41.4542 133.228 42.9334 133.998 44.2303C134.788 45.5271 135.842 46.5504 137.159 47.3001C138.496 48.0498 139.975 48.4247 141.596 48.4247ZM141.596 44.7774C140.705 44.7774 139.904 44.5646 139.195 44.1391C138.506 43.7136 137.959 43.1259 137.554 42.3762C137.169 41.6062 136.976 40.745 136.976 39.7927C136.976 38.8403 137.169 37.9893 137.554 37.2395C137.959 36.4898 138.506 35.9022 139.195 35.4766C139.904 35.0309 140.705 34.808 141.596 34.808C142.488 34.808 143.268 35.0309 143.937 35.4766C144.626 35.9022 145.163 36.4898 145.548 37.2395C145.953 37.9893 146.155 38.8403 146.155 39.7927C146.155 40.745 145.953 41.6062 145.548 42.3762C145.163 43.1259 144.626 43.7136 143.937 44.1391C143.268 44.5646 142.488 44.7774 141.596 44.7774Z" fill="#0F172A"/>
<rect x="0.5" y="0.5" width="223" height="71" rx="9.5" stroke="#E6E2E9"/>
</svg>
