<svg width="32" height="32" viewBox="0 0 32 32" fill="none" xmlns="http://www.w3.org/2000/svg">
<rect width="32" height="32" rx="16" fill="white"/>
<circle cx="16" cy="16" r="16" fill="white"/>
<path d="M21.612 20.9863H18.8839H13.2242C12.9882 20.9863 12.7969 21.1776 12.7969 21.4136V21.6766C12.7969 21.9125 12.9882 22.1039 13.2242 22.1039H18.8839H21.612H23.0253V20.9864L21.612 20.9863Z" fill="#D94265"/>
<path d="M12.3382 14.2604C13.6447 14.2604 14.7038 13.2013 14.7038 11.8949C14.7038 10.5884 13.6447 9.5293 12.3382 9.5293C11.0318 9.5293 9.97266 10.5884 9.97266 11.8949C9.97266 13.2013 11.0318 14.2604 12.3382 14.2604Z" fill="#D94265"/>
<path d="M18.1086 17.6962L12.6877 17.6932L12.5594 17.6928V17.0637L12.5549 16.5372C12.5549 15.2795 11.5353 14.2598 10.2775 14.2598C10.2348 14.2598 10.1925 14.2612 10.1505 14.2635L10.1473 14.2598C8.96136 14.2598 8 15.2211 8 16.4071V22.4715H12.5594V19.888L12.499 19.8833C12.4947 19.8829 12.4937 19.8833 12.491 19.8833C12.1825 19.8833 11.8869 19.7535 11.6786 19.526L9.82799 17.506C9.76899 17.4416 9.77337 17.3417 9.83777 17.2827C9.90211 17.2237 10.0021 17.2281 10.0611 17.2925L11.9116 19.3125C12.062 19.4766 12.274 19.577 12.4973 19.5802C12.5122 19.5804 12.7149 19.5834 12.7149 19.5834H18.1086C18.6297 19.5834 19.0522 19.1609 19.0522 18.6398C19.0522 18.1187 18.6297 17.6962 18.1086 17.6962Z" fill="#D94265"/>
<path d="M23.7131 14.3491C23.4924 14.2735 23.2522 14.3912 23.1766 14.6118L21.3856 19.8401H14.9771C14.7438 19.8401 14.5547 20.0292 14.5547 20.2624C14.5547 20.4957 14.7438 20.6848 14.9771 20.6848H21.6823C21.8259 20.6848 21.9527 20.6129 22.0289 20.5032C22.0553 20.4684 22.0768 20.4292 22.0917 20.3856L23.976 14.8854C24.0513 14.6648 23.9338 14.4246 23.7131 14.3491Z" fill="#D94265"/>
</svg>
