<svg width="224" height="72" viewBox="0 0 224 72" fill="none" xmlns="http://www.w3.org/2000/svg">
<rect x="0.5" y="0.5" width="223" height="71" rx="9.5" fill="white"/>
<path d="M51.0402 25.1348L52.2958 23.8793C54.7613 21.4138 58.7752 21.3527 61.2549 23.8041C62.1945 24.735 62.819 25.9368 63.0404 27.2408C63.2619 28.5448 63.0693 29.8854 62.4898 31.0744C62.2118 31.6423 62.1181 32.2829 62.2218 32.9067C62.3256 33.5304 62.6215 34.1062 63.0684 34.5536C63.8901 33.73 64.5414 32.7525 64.9852 31.6771C65.429 30.6017 65.6566 29.4494 65.655 28.286C65.6532 27.1226 65.4225 25.971 64.9756 24.8968C64.5288 23.8227 63.8746 22.8471 63.0506 22.0258C59.5832 18.5779 53.9549 18.6465 50.4972 22.1041L38.5299 34.071L37.5461 33.0872C35.0387 30.5799 35.0228 26.4814 37.5743 24.0186C38.5188 23.1098 39.7221 22.5165 41.0181 22.3207C42.3141 22.1249 43.6389 22.3362 44.8098 22.9253C45.3442 23.1992 45.9514 23.2971 46.5448 23.2052C47.1383 23.1133 47.6874 22.8363 48.114 22.4136L48.1445 22.3832C48.154 22.3738 48.1615 22.3626 48.1666 22.3502C48.1718 22.3379 48.1744 22.3246 48.1744 22.3112C48.1744 22.2978 48.1718 22.2846 48.1666 22.2722C48.1615 22.2599 48.154 22.2487 48.1445 22.2392C46.4974 20.6335 44.2901 19.7315 41.9898 19.7242C39.6895 19.7169 37.4766 20.6049 35.8193 22.2001C32.2494 25.6464 32.2621 31.3772 35.7709 34.886L47.7346 46.8497L46.4637 48.1206C43.9982 50.5861 39.9841 50.6471 37.5046 48.1958C36.565 47.2649 35.9406 46.063 35.7191 44.759C35.4976 43.4551 35.6901 42.1145 36.2696 40.9255C36.5476 40.3575 36.6413 39.7169 36.5376 39.0933C36.4339 38.4695 36.1379 37.8936 35.6911 37.4463C34.8694 38.2699 34.2181 39.2473 33.7743 40.3227C33.3304 41.3982 33.1029 42.5504 33.1045 43.7139C33.1062 44.8772 33.337 46.0289 33.7839 47.103C34.2307 48.1772 34.8849 49.1528 35.7089 49.9741C39.1761 53.4221 44.8046 53.3537 48.2623 49.8959L60.2451 37.913L61.2326 38.9005C63.6982 41.366 63.7592 45.3799 61.3079 47.8595C60.377 48.7993 59.1751 49.4235 57.8711 49.6452C56.5672 49.8667 55.2266 49.6741 54.0375 49.0945C53.4694 48.8164 52.8285 48.7226 52.2046 48.8265C51.5806 48.9303 51.0046 49.2266 50.5572 49.6738C51.3809 50.4955 52.3582 51.1469 53.4336 51.5907C54.5091 52.0345 55.6613 52.2622 56.8248 52.2605C57.9882 52.2588 59.1399 52.0279 60.2139 51.581C61.2882 51.1342 62.2638 50.48 63.085 49.656C66.5331 46.1888 66.4644 40.5603 63.0069 37.1027L51.0402 25.1348ZM49.5211 45.0624L40.3169 35.8582L49.2531 26.9221L58.4573 36.1263L49.5211 45.0624Z" fill="#0EA5E9"/>
<path d="M80.9343 46.6741C79.1027 46.6741 77.7026 46.1368 76.7338 45.0621C75.7726 43.9873 75.2352 42.519 75.1217 40.6572L78.028 39.9306C78.1718 42.8369 79.1406 44.2901 80.9343 44.2901C82.3874 44.2901 83.114 43.5635 83.114 42.1104C83.114 41.6789 83.0535 41.2816 82.9324 40.9183C82.8188 40.5475 82.641 40.2107 82.3988 39.9079C82.1566 39.5976 81.9371 39.3516 81.7403 39.17C81.5436 38.9808 81.2749 38.7499 80.9343 38.4775L77.3014 35.5712C76.6354 35.049 76.1018 34.3867 75.7007 33.5845C75.3071 32.7746 75.1104 31.8551 75.1104 30.8258C75.1104 29.3272 75.5758 28.1352 76.5067 27.2497C77.4377 26.3641 78.6713 25.9214 80.2077 25.9214C81.8576 25.9214 83.167 26.3263 84.1358 27.1361C85.1121 27.9384 85.7138 29.0774 85.9408 30.5533C85.9635 30.7122 85.99 30.9317 86.0203 31.2117L83.114 31.9383C83.1064 31.8097 83.0875 31.6167 83.0572 31.3593C82.9286 30.436 82.6372 29.6981 82.1831 29.1456C81.7366 28.5855 81.0781 28.3055 80.2077 28.3055C79.5114 28.3055 78.9741 28.5022 78.5956 28.8958C78.2172 29.2818 78.028 29.8229 78.028 30.5192C78.028 31.6621 78.5124 32.6195 79.4811 33.3915L83.114 36.2978C85.0515 37.8644 86.0203 39.7376 86.0203 41.9174C86.0203 43.4083 85.5586 44.5739 84.6353 45.414C83.7195 46.2541 82.4858 46.6741 80.9343 46.6741Z" fill="#18181B"/>
<path d="M92.094 44.2901C92.8584 44.2901 93.585 44.0933 94.2737 43.6997V34.7084C94.2435 34.6932 94.1678 34.6478 94.0467 34.5722C93.9256 34.4965 93.8385 34.4473 93.7856 34.4246C93.7401 34.3943 93.6607 34.3489 93.5472 34.2883C93.4336 34.2278 93.339 34.1862 93.2633 34.1635C93.1952 34.1332 93.1044 34.1029 92.9909 34.0726C92.8849 34.0348 92.779 34.0083 92.673 33.9932C92.5746 33.978 92.4686 33.9705 92.3551 33.9705C92.1129 33.9705 91.8972 34.0272 91.708 34.1407C91.5264 34.2467 91.375 34.3754 91.2539 34.5267C91.1328 34.6781 91.0269 34.8938 90.936 35.1738C90.8528 35.4539 90.7922 35.7036 90.7544 35.9231C90.7165 36.135 90.6863 36.4226 90.6636 36.7859C90.6409 37.1416 90.6257 37.4179 90.6182 37.6147C90.6182 37.8115 90.6182 38.0877 90.6182 38.4434C90.6182 38.4586 90.6182 38.4699 90.6182 38.4775C90.6182 38.6061 90.6182 38.8143 90.6182 39.1019C90.6182 39.3895 90.6182 39.6657 90.6182 39.9306C90.6182 40.1955 90.6182 40.4453 90.6182 40.6799C90.6257 41.187 90.6484 41.6335 90.6863 42.0195C90.7317 42.398 90.8036 42.7726 90.902 43.1434C91.0079 43.5067 91.1593 43.7906 91.3561 43.9949C91.5604 44.1917 91.8064 44.2901 92.094 44.2901ZM94.2737 50.8292V45.1642C93.8423 45.6108 93.3958 45.9741 92.9341 46.2541C92.48 46.5341 91.9578 46.6741 91.3674 46.6741C90.8074 46.6741 90.3078 46.5341 89.8689 46.2541C89.4375 45.9665 89.0893 45.5994 88.8244 45.1529C88.5671 44.7063 88.3514 44.1803 88.1773 43.5749C88.0108 42.9618 87.8935 42.3601 87.8254 41.7698C87.7648 41.1794 87.7346 40.5664 87.7346 39.9306V37.7169C87.7346 37.0584 87.7648 36.4567 87.8254 35.9118C87.8859 35.3668 87.9957 34.8295 88.1546 34.2997C88.3136 33.7699 88.5217 33.3234 88.779 32.9601C89.0439 32.5892 89.3921 32.294 89.8235 32.0746C90.2549 31.8475 90.7544 31.734 91.322 31.734C91.6475 31.734 91.9502 31.7794 92.2302 31.8702C92.5178 31.9535 92.7903 32.0897 93.0476 32.2789C93.3125 32.4681 93.5169 32.6346 93.6607 32.7784C93.8121 32.9147 94.0164 33.119 94.2737 33.3915V31.9383H97.18V50.8292H94.2737Z" fill="#18181B"/>
<path d="M101.585 46.6741C100.949 46.6741 100.438 46.4509 100.052 46.0043C99.6663 45.5502 99.4733 44.9902 99.4733 44.3241V31.9383H102.38V43.4386C102.38 43.7414 102.47 43.9873 102.652 44.1765C102.841 44.3658 103.083 44.4604 103.379 44.4604C103.538 44.4604 103.693 44.4414 103.844 44.4036C103.995 44.3658 104.143 44.3014 104.287 44.2106C104.438 44.1122 104.555 44.0365 104.639 43.9835C104.722 43.923 104.839 43.8246 104.991 43.6884C105.15 43.5521 105.248 43.4689 105.286 43.4386V31.9383H108.192V46.4698H105.286V44.9031C104.998 45.1529 104.786 45.3345 104.65 45.448C104.521 45.5616 104.321 45.7167 104.048 45.9135C103.776 46.1027 103.534 46.2427 103.322 46.3336C103.117 46.4168 102.86 46.4925 102.55 46.5606C102.24 46.6363 101.918 46.6741 101.585 46.6741Z" fill="#18181B"/>
<path d="M114.709 44.2901C114.913 44.2901 115.11 44.2295 115.299 44.1084C115.496 43.9873 115.643 43.87 115.742 43.7565C115.84 43.643 115.961 43.4916 116.105 43.3024C116.128 43.2645 116.147 43.2381 116.162 43.2229V39.2041C116.041 39.2873 115.84 39.416 115.56 39.5901C115.28 39.7641 115.057 39.9079 114.89 40.0215C114.724 40.1274 114.523 40.2788 114.289 40.4756C114.054 40.6648 113.872 40.8502 113.744 41.0318C113.615 41.2059 113.501 41.4216 113.403 41.6789C113.305 41.9363 113.255 42.205 113.255 42.485C113.255 43.6884 113.74 44.2901 114.709 44.2901ZM113.255 46.6741C112.446 46.6741 111.757 46.326 111.189 45.6297C110.629 44.9258 110.349 44.1349 110.349 43.257C110.349 42.5531 110.466 41.9136 110.701 41.3384C110.943 40.7632 111.197 40.3053 111.462 39.9647C111.727 39.6165 112.169 39.2608 112.79 38.8975C113.411 38.5267 113.88 38.2731 114.198 38.1369C114.516 38.0007 115.068 37.7774 115.855 37.4671C115.991 37.4141 116.094 37.3725 116.162 37.3422V36.2978C116.162 35.5636 116.06 34.996 115.855 34.5949C115.651 34.1862 115.269 33.9818 114.709 33.9818C114.209 33.9818 113.85 34.1559 113.63 34.504C113.418 34.8446 113.297 35.3176 113.267 35.9231C113.259 36.0064 113.255 36.1313 113.255 36.2978H110.349C110.364 34.9052 110.754 33.7964 111.518 32.9714C112.283 32.1465 113.346 31.734 114.709 31.734C116.063 31.734 117.127 32.154 117.899 32.9941C118.678 33.8267 119.068 34.9279 119.068 36.2978V42.8369C119.068 44.3506 119.193 45.5616 119.443 46.4698H116.548L116.162 44.2901C116.01 44.5928 115.886 44.8274 115.787 44.9939C115.696 45.1604 115.56 45.3686 115.378 45.6183C115.197 45.8605 115.015 46.0497 114.833 46.186C114.652 46.3146 114.425 46.4282 114.152 46.5266C113.88 46.6249 113.581 46.6741 113.255 46.6741Z" fill="#18181B"/>
<path d="M121.577 46.4698V31.9383H124.483V33.8796C124.778 33.3044 125.206 32.8049 125.766 32.3811C126.334 31.9497 126.962 31.734 127.651 31.734C127.673 31.734 127.829 31.7491 128.116 31.7794V34.9922C127.579 34.7803 127.041 34.6743 126.504 34.6743C125.899 34.6743 125.41 34.856 125.04 35.2193C124.669 35.5825 124.483 36.0631 124.483 36.6611V46.4698H121.577Z" fill="#18181B"/>
<path d="M133.452 46.6741C132.748 46.6741 132.135 46.553 131.613 46.3109C131.098 46.0687 130.686 45.7546 130.375 45.3686C130.073 44.975 129.827 44.4755 129.637 43.87C129.448 43.257 129.316 42.6477 129.24 42.0422C129.172 41.4292 129.13 40.7178 129.115 39.9079C129.092 39.2722 129.092 38.6364 129.115 38.0007C129.138 37.2438 129.187 36.574 129.263 35.9912C129.346 35.4009 129.486 34.8295 129.683 34.277C129.88 33.7245 130.133 33.2704 130.443 32.9147C130.761 32.5589 131.174 32.2751 131.681 32.0632C132.196 31.8437 132.793 31.734 133.475 31.734C134.095 31.734 134.64 31.8172 135.109 31.9837C135.586 32.1427 135.98 32.3886 136.29 32.7217C136.608 33.0471 136.869 33.4104 137.073 33.8115C137.285 34.2126 137.444 34.7008 137.55 35.276C137.656 35.8437 137.728 36.4037 137.766 36.9562C137.811 37.5087 137.834 38.1445 137.834 38.8635V39.2041H132.021V39.9306C132.021 40.029 132.021 40.1842 132.021 40.3961C132.006 40.6761 132.003 40.9675 132.01 41.2703C132.025 41.5654 132.04 41.8568 132.056 42.1444C132.071 42.432 132.112 42.7083 132.18 42.9732C132.249 43.2305 132.332 43.4575 132.43 43.6543C132.529 43.8511 132.665 44.0063 132.839 44.1198C133.021 44.2333 133.232 44.2901 133.475 44.2901C133.777 44.2901 134.027 44.2333 134.224 44.1198C134.421 43.9987 134.564 43.8208 134.655 43.5862C134.754 43.3516 134.822 43.117 134.86 42.8823C134.898 42.6477 134.92 42.3525 134.928 41.9968V41.3838H137.811V41.9628C137.743 43.5143 137.361 44.6874 136.665 45.4821C135.968 46.2768 134.898 46.6741 133.452 46.6741ZM132.021 37.7509H134.905V36.8768C134.898 36.4908 134.875 36.154 134.837 35.8664C134.799 35.5788 134.731 35.2912 134.633 35.0036C134.542 34.716 134.398 34.4965 134.201 34.3451C134.004 34.1937 133.762 34.118 133.475 34.118C133.179 34.118 132.93 34.1975 132.725 34.3565C132.529 34.5154 132.381 34.7462 132.283 35.049C132.192 35.3441 132.127 35.6355 132.09 35.9231C132.052 36.2107 132.029 36.5551 132.021 36.9562V37.7509Z" fill="#18181B"/>
<path d="M145.372 46.6741C143.541 46.6741 142.141 46.1368 141.172 45.0621C140.211 43.9873 139.673 42.519 139.56 40.6572L142.466 39.9306C142.61 42.8369 143.579 44.2901 145.372 44.2901C146.825 44.2901 147.552 43.5635 147.552 42.1104C147.552 41.6789 147.491 41.2816 147.37 40.9183C147.257 40.5475 147.079 40.2107 146.837 39.9079C146.595 39.5976 146.375 39.3516 146.178 39.17C145.982 38.9808 145.713 38.7499 145.372 38.4775L141.739 35.5712C141.073 35.049 140.54 34.3867 140.139 33.5845C139.745 32.7746 139.548 31.8551 139.548 30.8258C139.548 29.3272 140.014 28.1352 140.945 27.2497C141.876 26.3641 143.109 25.9214 144.646 25.9214C146.296 25.9214 147.605 26.3263 148.574 27.1361C149.55 27.9384 150.152 29.0774 150.379 30.5533C150.402 30.7122 150.428 30.9317 150.458 31.2117L147.552 31.9383C147.544 31.8097 147.526 31.6167 147.495 31.3593C147.367 30.436 147.075 29.6981 146.621 29.1456C146.175 28.5855 145.516 28.3055 144.646 28.3055C143.949 28.3055 143.412 28.5022 143.034 28.8958C142.655 29.2818 142.466 29.8229 142.466 30.5192C142.466 31.6621 142.95 32.6195 143.919 33.3915L147.552 36.2978C149.49 37.8644 150.458 39.7376 150.458 41.9174C150.458 43.4083 149.997 44.5739 149.073 45.414C148.157 46.2541 146.924 46.6741 145.372 46.6741Z" fill="#18181B"/>
<path d="M156.487 46.6741C155.344 46.6741 154.511 46.3828 153.989 45.8C153.474 45.2172 153.209 44.3355 153.194 43.1548V34.118H151.741V31.9383H153.194V26.8523H156.101V31.9383H158.28V34.118H156.101V42.5985C156.101 43.1813 156.18 43.6089 156.339 43.8814C156.498 44.1538 156.82 44.2901 157.304 44.2901C157.516 44.2901 157.841 44.2522 158.28 44.1765V46.5379C157.554 46.6287 156.956 46.6741 156.487 46.6741Z" fill="#18181B"/>
<path d="M167.748 45.3118C167.075 46.22 165.959 46.6741 164.399 46.6741C162.84 46.6741 161.724 46.22 161.05 45.3118C160.377 44.4036 160.04 43.0943 160.04 41.3838V37.0243C160.04 35.3139 160.377 34.0045 161.05 33.0963C161.724 32.1881 162.84 31.734 164.399 31.734C165.959 31.734 167.075 32.1881 167.748 33.0963C168.422 34.0045 168.759 35.3139 168.759 37.0243V41.3838C168.759 43.0943 168.422 44.4036 167.748 45.3118ZM163.854 44.1993C164.013 44.2598 164.195 44.2901 164.399 44.2901C164.604 44.2901 164.782 44.2598 164.933 44.1993C165.092 44.1387 165.221 44.0668 165.319 43.9835C165.425 43.8927 165.512 43.7641 165.58 43.5976C165.648 43.4235 165.701 43.2721 165.739 43.1434C165.777 43.0148 165.803 42.8294 165.819 42.5872C165.834 42.345 165.841 42.1558 165.841 42.0195C165.849 41.8757 165.853 41.6638 165.853 41.3838V37.0243C165.853 36.7443 165.849 36.5362 165.841 36.3999C165.841 36.2561 165.834 36.0631 165.819 35.821C165.803 35.5788 165.777 35.3933 165.739 35.2647C165.701 35.136 165.648 34.9884 165.58 34.8219C165.512 34.6478 165.425 34.5192 165.319 34.4359C165.221 34.3451 165.092 34.2694 164.933 34.2089C164.782 34.1483 164.604 34.118 164.399 34.118C164.195 34.118 164.013 34.1483 163.854 34.2089C163.703 34.2694 163.574 34.3451 163.468 34.4359C163.37 34.5192 163.287 34.6478 163.219 34.8219C163.151 34.9884 163.098 35.136 163.06 35.2647C163.022 35.3933 162.995 35.5788 162.98 35.821C162.965 36.0631 162.954 36.2561 162.946 36.3999C162.946 36.5362 162.946 36.7443 162.946 37.0243V41.3838C162.946 41.6638 162.946 41.8757 162.946 42.0195C162.954 42.1558 162.965 42.345 162.98 42.5872C162.995 42.8294 163.022 43.0148 163.06 43.1434C163.098 43.2721 163.151 43.4235 163.219 43.5976C163.287 43.7641 163.37 43.8927 163.468 43.9835C163.574 44.0668 163.703 44.1387 163.854 44.1993Z" fill="#18181B"/>
<path d="M171.143 46.4698V31.9383H174.049V33.505C174.481 33.1114 174.833 32.8125 175.105 32.6081C175.377 32.3962 175.752 32.1994 176.229 32.0178C176.713 31.8286 177.228 31.734 177.773 31.734C178.394 31.734 178.897 31.961 179.283 32.4151C179.669 32.8692 179.862 33.4255 179.862 34.084V46.4698H176.956V35.5712C176.956 35.0641 176.884 34.697 176.74 34.47C176.596 34.2354 176.305 34.118 175.866 34.118C175.616 34.118 175.366 34.171 175.116 34.277C174.874 34.3754 174.693 34.47 174.571 34.5608C174.45 34.6441 174.276 34.7803 174.049 34.9695V46.4698H171.143Z" fill="#18181B"/>
<path d="M186.515 46.6741C185.811 46.6741 185.198 46.553 184.675 46.3109C184.161 46.0687 183.748 45.7546 183.438 45.3686C183.135 44.975 182.889 44.4755 182.7 43.87C182.511 43.257 182.378 42.6477 182.303 42.0422C182.235 41.4292 182.193 40.7178 182.178 39.9079C182.155 39.2722 182.155 38.6364 182.178 38.0007C182.2 37.2438 182.25 36.574 182.325 35.9912C182.409 35.4009 182.549 34.8295 182.745 34.277C182.942 33.7245 183.196 33.2704 183.506 32.9147C183.824 32.5589 184.236 32.2751 184.743 32.0632C185.258 31.8437 185.856 31.734 186.537 31.734C187.158 31.734 187.703 31.8172 188.172 31.9837C188.649 32.1427 189.042 32.3886 189.353 32.7217C189.671 33.0471 189.932 33.4104 190.136 33.8115C190.348 34.2126 190.507 34.7008 190.613 35.276C190.719 35.8437 190.791 36.4037 190.829 36.9562C190.874 37.5087 190.897 38.1445 190.897 38.8635V39.2041H185.084V39.9306C185.084 40.029 185.084 40.1842 185.084 40.3961C185.069 40.6761 185.065 40.9675 185.073 41.2703C185.088 41.5654 185.103 41.8568 185.118 42.1444C185.133 42.432 185.175 42.7083 185.243 42.9732C185.311 43.2305 185.394 43.4575 185.493 43.6543C185.591 43.8511 185.727 44.0063 185.901 44.1198C186.083 44.2333 186.295 44.2901 186.537 44.2901C186.84 44.2901 187.09 44.2333 187.286 44.1198C187.483 43.9987 187.627 43.8208 187.718 43.5862C187.816 43.3516 187.884 43.117 187.922 42.8823C187.96 42.6477 187.983 42.3525 187.99 41.9968V41.3838H190.874V41.9628C190.806 43.5143 190.424 44.6874 189.727 45.4821C189.031 46.2768 187.96 46.6741 186.515 46.6741ZM185.084 37.7509H187.968V36.8768C187.96 36.4908 187.937 36.154 187.9 35.8664C187.862 35.5788 187.794 35.2912 187.695 35.0036C187.604 34.716 187.461 34.4965 187.264 34.3451C187.067 34.1937 186.825 34.118 186.537 34.118C186.242 34.118 185.992 34.1975 185.788 34.3565C185.591 34.5154 185.444 34.7462 185.345 35.049C185.254 35.3441 185.19 35.6355 185.152 35.9231C185.114 36.2107 185.092 36.5551 185.084 36.9562V37.7509Z" fill="#18181B"/>
<rect x="0.5" y="0.5" width="223" height="71" rx="9.5" stroke="#E6E2E9"/>
</svg>
