<svg width="32" height="32" viewBox="0 0 32 32" fill="none" xmlns="http://www.w3.org/2000/svg">
<circle cx="16" cy="16" r="16" fill="white"/>
<g clip-path="url(#clip0_1663_11399)">
<path d="M20.0192 15.0966C20.9046 15.0966 21.736 15.3319 22.4544 15.7432V8.49368C22.4544 8.23506 22.2447 8.02539 21.9861 8.02539H12.1831C11.9245 8.02539 11.7148 8.23506 11.7148 8.49368V20.7006C11.7148 20.9593 11.9245 21.1689 12.1831 21.1689H15.2396C14.4676 18.1397 16.8856 15.0542 20.0192 15.0966ZM14.0564 9.55518H20.1128C20.7341 9.57993 20.7337 10.4673 20.1128 10.4918H14.0564C13.4351 10.467 13.4355 9.57969 14.0564 9.55518ZM14.0564 11.4283H20.1128C20.7341 11.4531 20.7337 12.3404 20.1128 12.3649H14.0564C13.4351 12.3402 13.4355 11.4529 14.0564 11.4283ZM14.0564 13.3015H20.1128C20.7341 13.3263 20.7337 14.2136 20.1128 14.2381H14.0564C13.4351 14.2133 13.4355 13.326 14.0564 13.3015ZM13.5881 15.643C13.5881 15.3844 13.7978 15.1747 14.0564 15.1747H15.5465C16.1678 15.1994 16.1673 16.0868 15.5465 16.1113H14.0564C13.7978 16.1113 13.5881 15.9016 13.5881 15.643Z" fill="#D94265"/>
<path d="M20.0196 16.0332C17.8247 16.0332 16.0391 17.8188 16.0391 20.0137C16.2577 25.2943 23.7822 25.2928 24 20.0137C24 17.8188 22.2144 16.0332 20.0196 16.0332ZM21.8581 19.1784L20.0798 21.4505C19.9935 21.5608 19.8624 21.6267 19.7224 21.6301C19.5828 21.6336 19.4482 21.5741 19.3567 21.4681L18.4009 20.3622C18.2318 20.1665 18.2533 19.8708 18.449 19.7017C18.6447 19.5325 18.9404 19.5541 19.1095 19.7498L19.6931 20.425L21.1205 18.6011C21.2799 18.3975 21.5742 18.3616 21.778 18.521C21.9816 18.6804 22.0175 18.9747 21.8581 19.1784Z" fill="#D94265"/>
<path d="M8 12.3027H10.8098V18.0471H8V12.3027Z" fill="#D94265"/>
<path d="M9.40488 9.55469C8.63023 9.55469 8 10.1849 8 10.9596V11.3654H10.8098V10.9596C10.8098 10.1849 10.1795 9.55469 9.40488 9.55469Z" fill="#D94265"/>
<path d="M8.97273 20.944C9.1303 21.3258 9.67979 21.3257 9.83726 20.944L10.6538 18.9844H8.15625L8.97273 20.944Z" fill="#D94265"/>
</g>
<defs>
<clipPath id="clip0_1663_11399">
<rect width="16" height="16" fill="white" transform="translate(8 8)"/>
</clipPath>
</defs>
</svg>
