<svg width="16" height="14" viewBox="0 0 16 14" fill="none" xmlns="http://www.w3.org/2000/svg">
<path d="M5.20958 13.007C10.8703 13.007 13.9658 8.31731 13.9658 4.25075C13.9658 4.11756 13.9631 3.98491 13.9571 3.853C14.558 3.41856 15.0802 2.87643 15.4922 2.25935C14.9408 2.50455 14.3473 2.66939 13.7249 2.74397C14.3603 2.36282 14.8481 1.76014 15.0782 1.0417C14.4836 1.39422 13.825 1.65034 13.124 1.78867C12.5624 1.19049 11.7628 0.816406 10.8775 0.816406C9.17808 0.816406 7.79981 2.19458 7.79981 3.89346C7.79981 4.13508 7.82687 4.36991 7.87962 4.5952C5.32186 4.4665 3.0537 3.24198 1.536 1.37982C1.27182 1.83454 1.11936 2.36291 1.11936 2.92669C1.11936 3.99427 1.66268 4.937 2.48882 5.4883C1.98393 5.4728 1.50968 5.33419 1.09505 5.10349C1.09459 5.11642 1.09459 5.12899 1.09459 5.14275C1.09459 6.63321 2.15538 7.87764 3.56373 8.15962C3.30505 8.22998 3.03288 8.26787 2.75218 8.26787C2.55422 8.26787 2.36122 8.24842 2.17372 8.21237C2.56551 9.43515 3.7017 10.325 5.04869 10.3499C3.99533 11.1755 2.66843 11.6673 1.22632 11.6673C0.978274 11.6673 0.733075 11.653 0.492188 11.6246C1.85422 12.4976 3.47154 13.0071 5.20967 13.0071" fill="#6A6A6A"/>
</svg>
