<svg width="337" height="107" viewBox="0 0 337 107" fill="none" xmlns="http://www.w3.org/2000/svg">
<path fill-rule="evenodd" clip-rule="evenodd" d="M306.461 448.932L-231.578 120.621L-201.671 71.6094L336.368 399.92L306.461 448.932ZM146.69 157.854C143.918 175.576 137.682 192.578 128.339 207.889L11.7428 136.743L-104.853 65.596C-95.5101 50.2844 -83.2427 36.963 -68.7512 26.3924C-54.2598 15.8218 -37.8283 8.20893 -20.3947 3.98857C-2.96122 -0.231781 15.1329 -0.977031 32.8544 1.79539C50.5759 4.56781 67.5779 10.8036 82.8895 20.1467C98.2011 29.4898 111.523 41.7573 122.093 56.2487C132.664 70.7402 140.277 87.1717 144.497 104.605C148.717 122.039 149.463 140.133 146.69 157.854Z" fill="url(#paint0_linear_1663_10715)"/>
<defs>
<linearGradient id="paint0_linear_1663_10715" x1="225.126" y1="-77.0017" x2="-123.376" y2="271.499" gradientUnits="userSpaceOnUse">
<stop stop-color="#F4CCD6"/>
<stop offset="1" stop-color="#FAE5EA" stop-opacity="0"/>
</linearGradient>
</defs>
</svg>
