<svg width="234" height="157" viewBox="0 0 234 157" fill="none" xmlns="http://www.w3.org/2000/svg">
<path fill-rule="evenodd" clip-rule="evenodd" d="M16.2273 -172.656L306.319 4.35789L298.358 17.4039L392.399 74.7873C380.777 93.8331 365.518 110.403 347.492 123.552C329.466 136.701 309.027 146.17 287.342 151.42C265.657 156.67 243.15 157.597 221.106 154.148C199.062 150.699 177.914 142.943 158.868 131.321C139.822 119.699 123.252 104.44 110.103 86.4142C96.9546 68.3885 87.4851 47.9495 82.2355 26.2642C76.9858 4.57888 76.0588 -17.9281 79.5074 -39.9717C82.1458 -56.8362 87.3057 -73.1769 94.7888 -88.4529L0.102556 -146.23L16.2273 -172.656Z" fill="url(#paint0_linear_1663_10718)"/>
<defs>
<linearGradient id="paint0_linear_1663_10718" x1="60.079" y1="110.91" x2="247.98" y2="-76.9902" gradientUnits="userSpaceOnUse">
<stop stop-color="#F4CCD6"/>
<stop offset="1" stop-color="#FAE5EA" stop-opacity="0"/>
</linearGradient>
</defs>
</svg>
