<svg width="64" height="64" viewBox="0 0 64 64" fill="none" xmlns="http://www.w3.org/2000/svg">
<path d="M0 52.8798V5.78248C0 5.07127 0.576515 4.49475 1.28773 4.49475H62.7122C63.4235 4.49475 64 5.07127 64 5.78248V52.8797C64 53.5909 63.4235 54.1674 62.7122 54.1674H1.28773C0.576515 54.1675 0 53.5909 0 52.8798V52.8798Z" fill="#AEADAE"/>
<path d="M3.95312 50.2265H60.0519V8.43616H3.95312V50.2265Z" fill="#F0EFF0"/>
<path d="M11.5595 17.4859H44.8533C45.3868 17.4859 45.8191 17.0535 45.8191 16.5201C45.8191 15.9867 45.3868 15.5543 44.8533 15.5543H11.5595C11.026 15.5543 10.5938 15.9867 10.5938 16.5201C10.5938 17.0535 11.026 17.4859 11.5595 17.4859V17.4859Z" fill="#969395"/>
<path d="M52.4415 21.4286H11.5595C11.026 21.4286 10.5938 21.861 10.5938 22.3944C10.5938 22.9278 11.026 23.3602 11.5595 23.3602H52.4416C52.9751 23.3602 53.4074 22.9278 53.4074 22.3944C53.4074 21.861 52.975 21.4286 52.4415 21.4286V21.4286Z" fill="#969395"/>
<path d="M34.7868 27.3029H11.5595C11.026 27.3029 10.5938 27.7353 10.5938 28.2687C10.5938 28.802 11.026 29.2344 11.5595 29.2344H34.7868C35.3203 29.2344 35.7526 28.802 35.7526 28.2687C35.7526 27.7353 35.3202 27.3029 34.7868 27.3029Z" fill="#969395"/>
<path d="M27.9851 41.7199C26.3458 41.7244 24.7065 41.7283 23.0673 41.731C22.5407 41.7319 22.014 41.7325 21.4875 41.7329C21.0845 41.7332 20.6497 41.8044 20.3092 41.5443C19.9282 41.2533 19.7971 40.8422 19.7099 40.3894C19.521 39.4088 18.1066 39.5337 17.8473 40.3894C17.7326 40.7684 17.1531 41.8533 16.6469 41.7646C16.3787 41.7176 16.2615 41.3039 16.1623 41.0896C15.9693 40.6725 15.8287 40.2304 15.7083 39.7874C15.1999 37.9158 15.0984 35.9617 14.7804 34.0549C14.596 32.9491 12.9104 33.2617 12.8833 34.3116C12.7967 37.656 12.25 40.9545 11.0593 44.0892C10.6175 45.2524 12.4841 45.7554 12.9219 44.6028C13.381 43.3941 13.7454 42.1565 14.0282 40.9004C14.1799 41.3581 14.3608 41.807 14.5817 42.2436C15.1457 43.3583 16.296 44.0177 17.5268 43.522C17.9661 43.345 18.3668 43.0357 18.7079 42.6593C18.7561 42.7148 18.8046 42.7697 18.8554 42.8209C19.7921 43.7665 21.0242 43.6653 22.2494 43.6637C24.1613 43.6613 26.0732 43.6568 27.9852 43.6515C29.2279 43.648 29.2302 41.7164 27.9851 41.7199V41.7199Z" fill="#AEADAE"/>
<path d="M49.3732 59.5053L46.6045 58.2176L43.8359 59.5053V42.8937H49.3732V59.5053Z" fill="#969395"/>
<path d="M46.6 46.1045C45.623 46.1045 44.9832 44.4416 44.1337 44.0886C43.253 43.7227 41.63 44.4316 40.9663 43.7667C40.3026 43.1018 41.0102 41.4758 40.645 40.5936C40.2927 39.7425 38.6328 39.1016 38.6328 38.1228C38.6328 37.1441 40.2927 36.5032 40.645 35.6521C41.0102 34.7698 40.3026 33.1438 40.9663 32.479C41.63 31.8141 43.253 32.523 44.1336 32.1572C44.9831 31.8042 45.6228 30.1412 46.5998 30.1412C47.5768 30.1412 48.2166 31.8042 49.0661 32.1572C49.9468 32.523 51.5698 31.8141 52.2335 32.4791C52.8972 33.144 52.1896 34.77 52.5548 35.6522C52.9071 36.5032 54.567 37.1441 54.567 38.1229C54.567 39.1016 52.9071 39.7425 52.5548 40.5937C52.1896 41.4759 52.8972 43.1019 52.2335 43.7668C51.5698 44.4316 49.9468 43.7227 49.0662 44.0886C48.2167 44.4416 47.577 46.1045 46.6 46.1045Z" fill="#AEADAE"/>
<path d="M52.5539 35.6522C52.1887 34.77 52.8963 33.144 52.2326 32.4791C51.5689 31.8142 49.9458 32.523 49.0651 32.1572C48.2156 31.8042 47.5759 30.1412 46.5989 30.1412C45.6219 30.1412 44.9821 31.8042 44.1326 32.1572C44.0975 32.1717 44.0608 32.1841 44.0234 32.1954C44.9232 32.4682 46.4444 31.8406 47.0815 32.4791C47.7452 33.144 47.0376 34.77 47.4028 35.6522C47.7551 36.5032 49.415 37.1441 49.415 38.1229C49.415 39.1017 47.7551 39.7426 47.4028 40.5937C47.0376 41.4759 47.7452 43.1019 47.0815 43.7668C46.4444 44.4051 44.9232 43.7777 44.0234 44.0505C44.0608 44.0618 44.0975 44.0742 44.1326 44.0887C44.9821 44.4417 45.6219 46.1047 46.5989 46.1047C47.5759 46.1047 48.2155 44.4417 49.0651 44.0887C49.9458 43.7229 51.5689 44.4318 52.2324 43.7668C52.8961 43.1019 52.1885 41.4759 52.5537 40.5937C52.9061 39.7426 54.5659 39.1017 54.5659 38.1229C54.5661 37.1441 52.9062 36.5032 52.5539 35.6522Z" fill="#AEADAE"/>
<path d="M46.6033 40.9295C48.1533 40.9295 49.4098 39.673 49.4098 38.123C49.4098 36.573 48.1533 35.3165 46.6033 35.3165C45.0534 35.3165 43.7969 36.573 43.7969 38.123C43.7969 39.673 45.0534 40.9295 46.6033 40.9295Z" fill="#969395"/>
</svg>
