<svg width="221" height="33" viewBox="0 0 221 33" fill="none" xmlns="http://www.w3.org/2000/svg">
<g clip-path="url(#clip0_1247_5351)">
<path d="M53.5589 5.90173L75.5663 28.7326L73.2458 30.9782L69.765 27.3852L66.3217 30.7162C64.7123 32.2507 62.6163 33.1116 60.3707 33.0742C58.1625 33.0367 56.0665 32.1385 54.532 30.5291C52.9974 28.9197 52.174 26.8238 52.2115 24.6155C52.2489 22.4073 53.1472 20.3114 54.7565 18.7768L57.0396 16.5686L59.2853 18.8891L57.0022 21.0973C56.0291 22.033 55.4677 23.343 55.4302 24.6904C55.3928 26.0378 55.9168 27.3477 56.8525 28.3209C57.7882 29.294 59.0607 29.8554 60.4455 29.8928C61.8304 29.9302 63.1029 29.4063 64.076 28.4706L67.5193 25.1395L53.5589 10.655V5.90173ZM13.1371 6.46315V28.1711H11.7897H11.0037V25.8506C10.1054 27.5349 8.38378 28.3957 6.17555 28.3957C2.69479 28.3957 0 25.5886 0 21.771C0 17.9908 2.69479 15.1838 6.13812 15.1838C8.57092 15.1838 10.1054 16.3815 11.0037 18.0657V6.46315H13.1371ZM11.116 21.771C11.116 19.0388 9.31947 17.0926 6.62468 17.0926C3.96732 17.0926 2.24565 19.0388 2.24565 21.771C2.24565 24.5407 3.96732 26.5243 6.62468 26.5243C9.28204 26.5243 11.116 24.5407 11.116 21.771ZM26.9853 22.4447C26.9853 24.9149 25.4133 26.4495 23.018 26.4495C20.922 26.4495 19.874 25.2144 19.874 23.0061V15.4832H17.7407V23.2681C17.7407 26.5243 19.6869 28.4331 22.494 28.4331C24.5151 28.4331 26.1244 27.6846 26.9853 26.0003V28.1337H27.5093H29.1187V15.4832H26.9853V22.4447ZM40.8335 15.1838C38.8124 15.1838 37.1656 15.9323 36.3422 17.654V15.4832H35.5188H34.2088V28.1711H36.3422V21.1722C36.3422 18.6645 37.9516 17.1674 40.3095 17.1674C42.4429 17.1674 43.4534 18.44 43.4534 20.6856V28.1711H45.5868V20.4236C45.5868 17.13 43.6406 15.1838 40.8335 15.1838Z" fill="#474747"/>
<path d="M73.6589 11.8901C75.1935 13.4995 76.0169 15.5954 75.9794 17.8037C75.942 20.0119 75.0437 22.1078 73.4344 23.6424L73.1349 23.9044L70.8893 21.6213L71.1887 21.3593C72.1618 20.4236 72.7232 19.1136 72.7607 17.7662C72.7981 16.4188 72.2741 15.1089 71.3384 14.1358C70.8144 13.5744 70.2156 13.1627 69.5045 12.9007V9.56961C71.0764 9.90645 72.4987 10.6924 73.6589 11.8901ZM55.6563 2.68293L54.0469 4.21746L56.2925 6.53797L57.9019 5.00344C59.4364 3.54377 61.8692 3.58119 63.3289 5.0783C64.7886 6.61283 64.7512 9.04562 63.2166 10.5053L61.6447 12.0024L63.8903 14.3229L65.4623 12.8258C68.2694 10.131 68.3442 5.63971 65.6494 2.83264C62.9546 0.0630032 58.4633 -0.0118517 55.6563 2.68293ZM142.937 25.4763C143.761 27.0857 145.557 28.4331 148.364 28.4331C151.546 28.4331 153.005 26.8237 153.005 24.6529C153.005 22.1827 150.947 21.3593 148.813 20.7604C146.568 20.1242 145.819 19.7873 145.819 18.5896C145.819 17.6165 146.643 16.9803 148.028 16.9803C149.263 16.9803 150.161 17.5417 150.797 18.4399L152.257 17.3171C151.359 16.0446 149.974 15.2586 148.028 15.2586C145.707 15.2586 143.873 16.5311 143.873 18.7394C143.873 21.1347 145.707 21.9207 147.691 22.5195C149.899 23.1558 151.022 23.4552 151.022 24.8401C151.022 26.0003 150.049 26.7489 148.327 26.7489C146.493 26.7489 145.37 25.8132 144.659 24.6155L142.937 25.4763ZM158.358 24.3161C158.358 27.3103 159.817 28.4331 161.763 28.4331C163.335 28.4331 164.309 27.7594 164.87 27.1606L163.71 25.8132C163.298 26.1874 162.849 26.5617 161.988 26.5617C161.052 26.5617 160.491 26.0377 160.491 24.3535V17.2797H164.047V15.4832H160.491V6.46312H158.358V15.4832H156.411V17.2797H158.358V24.3161ZM169.324 28.1711H171.457V21.4716C171.457 18.5148 172.917 17.2048 174.751 17.2048C175.537 17.2048 176.098 17.4294 176.51 17.6914L177.333 15.82C176.734 15.4083 176.061 15.2212 175.125 15.2212C173.628 15.2212 172.206 15.7077 171.42 17.654L171.495 15.4832H169.361V28.1711H169.324ZM189.834 20.9102C189.647 18.7394 188.262 17.0177 185.605 17.0177C183.172 17.0177 181.563 18.5896 181.226 20.9102H189.834ZM185.904 26.5991C187.813 26.5991 189.086 25.8506 189.909 24.9149L191.219 26.1874C190.059 27.4974 188.374 28.3957 185.867 28.3957C181.712 28.3957 178.98 25.5138 178.98 21.8084C178.98 18.1031 181.825 15.1837 185.53 15.1837C189.61 15.1837 192.08 18.3277 191.893 22.5195H181.113C181.45 24.9523 183.135 26.5991 185.904 26.5991ZM206.415 20.9102C206.227 18.7394 204.843 17.0177 202.185 17.0177C199.752 17.0177 198.143 18.5896 197.806 20.9102H206.415ZM202.485 26.5991C204.393 26.5991 205.666 25.8506 206.489 24.9149L207.799 26.1874C206.639 27.4974 204.955 28.3957 202.447 28.3957C198.293 28.3957 195.561 25.5138 195.561 21.8084C195.561 18.1031 198.405 15.1837 202.11 15.1837C206.19 15.1837 208.66 18.3277 208.473 22.5195H197.694C198.068 24.9523 199.715 26.5991 202.485 26.5991ZM213.975 24.3161C213.975 27.3103 215.435 28.4331 217.381 28.4331C218.953 28.4331 219.926 27.7594 220.487 27.1606L219.327 25.8132C218.915 26.1874 218.466 26.5617 217.605 26.5617C216.67 26.5617 216.108 26.0377 216.108 24.3535V17.2797H219.664V15.4832H216.108V6.46312H213.975V15.4832H212.029V17.2797H213.975V24.3161ZM90.0148 15.1837C87.6568 15.1837 86.0475 16.082 85.1492 17.7662V6.46312H83.0158V28.1711H84.3632H85.1492V25.8506C86.01 27.5348 87.7691 28.3957 89.9773 28.3957C93.4581 28.3957 96.1529 25.5886 96.1529 21.771C96.1529 18.0282 93.4581 15.1837 90.0148 15.1837ZM89.5282 26.5243C86.8334 26.5243 85.0369 24.5406 85.0369 21.771C85.0369 19.0388 86.8334 17.0925 89.5282 17.0925C92.1856 17.0925 93.9072 19.0388 93.9072 21.771C93.9447 24.5406 92.223 26.5243 89.5282 26.5243ZM102.815 17.5042V15.4832H101.917H100.682V28.1711H102.815V21.4716C102.815 18.5148 104.275 17.2048 106.109 17.2048C106.895 17.2048 107.456 17.4294 107.868 17.6914L108.691 15.82C108.092 15.4083 107.419 15.2212 106.483 15.2212C104.986 15.2212 103.601 15.7077 102.815 17.5042ZM116.551 15.1837C114.118 15.1837 112.471 16.1194 111.386 17.654L112.696 18.8516C113.482 17.7662 114.642 17.0177 116.401 17.0177C118.273 17.0177 119.358 17.9534 119.358 20.4236V20.723H115.391C112.733 20.723 110.563 21.9581 110.563 24.5406C110.563 27.1606 112.509 28.3957 115.241 28.3957C117.187 28.3957 118.497 27.8717 119.358 26.674V28.1337H119.732H121.342V20.3862C121.379 16.868 119.358 15.1837 116.551 15.1837ZM119.358 23.9418C119.358 25.5886 117.711 26.674 115.728 26.674C113.744 26.674 112.658 25.9255 112.658 24.4658C112.658 22.9312 113.931 22.3324 115.54 22.3324H119.358V23.9418ZM136.65 6.46312V17.7662C135.714 16.082 134.179 15.1837 131.784 15.1837C128.341 15.1837 125.646 17.9908 125.646 21.771C125.646 25.5886 128.341 28.3957 131.821 28.3957C134.03 28.3957 135.789 27.5348 136.65 25.8506V28.1711H137.248H138.745V6.46312H136.65ZM132.233 26.5243C129.576 26.5243 127.854 24.5406 127.854 21.771C127.854 19.0388 129.576 17.0925 132.233 17.0925C134.928 17.0925 136.724 19.0388 136.724 21.771C136.724 24.5406 134.928 26.5243 132.233 26.5243ZM170.709 18.8142H171.457V15.4457H170.709V18.8142Z" fill="#7E7E7E"/>
</g>
<defs>
<clipPath id="clip0_1247_5351">
<rect width="220.448" height="32.3" fill="white" transform="translate(0 0.699219)"/>
</clipPath>
</defs>
</svg>
