<svg width="80" height="80" viewBox="0 0 80 80" fill="none" xmlns="http://www.w3.org/2000/svg">
<circle cx="40" cy="40" r="40" fill="white"/>
<path d="M36.9686 32.5033L40.0038 30.9076L43.0391 32.5033C43.1965 32.5861 43.3739 32.6231 43.5513 32.6103C43.7287 32.5975 43.899 32.5353 44.0429 32.4308C44.1867 32.3263 44.2985 32.1836 44.3655 32.0188C44.4326 31.8541 44.4522 31.6739 44.4221 31.4986L43.8423 28.1187L46.298 25.7251C46.4253 25.601 46.5154 25.4437 46.558 25.271C46.6006 25.0983 46.5941 24.9172 46.5391 24.7481C46.4842 24.5789 46.383 24.4285 46.247 24.3139C46.1111 24.1992 45.9457 24.1249 45.7697 24.0993L42.3762 23.6062L40.8586 20.5314C40.7799 20.3719 40.6581 20.2376 40.5071 20.1437C40.356 20.0498 40.1817 20 40.0038 20C39.826 20 39.6517 20.0498 39.5006 20.1437C39.3495 20.2376 39.2278 20.3719 39.1491 20.5314L37.6315 23.6062L34.2379 24.0993C34.0619 24.1249 33.8966 24.1992 33.7606 24.3139C33.6247 24.4285 33.5235 24.5789 33.4685 24.7481C33.4136 24.9172 33.407 25.0983 33.4497 25.271C33.4923 25.4437 33.5824 25.601 33.7097 25.7251L36.1652 28.1187L35.5854 31.4986C35.5553 31.6739 35.5749 31.8541 35.642 32.0188C35.709 32.1836 35.8208 32.3263 35.9646 32.4308C36.1085 32.5353 36.2788 32.5975 36.4562 32.6103C36.6336 32.6231 36.811 32.5861 36.9684 32.5033H36.9686Z" fill="#D94265"/>
<path d="M59.6185 34.1532L56.8751 32.0959L57.0145 28.6695C57.0217 28.4918 56.9791 28.3155 56.8914 28.1608C56.8037 28.006 56.6744 27.8788 56.5182 27.7937C56.362 27.7086 56.1851 27.6689 56.0075 27.6791C55.8299 27.6892 55.6587 27.7489 55.5132 27.8514L52.7091 29.8248L49.4935 28.6334C49.3268 28.5716 49.146 28.5577 48.9718 28.5933C48.7976 28.6289 48.6367 28.7125 48.5075 28.8347C48.3783 28.9569 48.2859 29.1128 48.2406 29.2848C48.1954 29.4568 48.1992 29.638 48.2516 29.8079L49.2618 33.0849L47.1351 35.775C47.0248 35.9146 46.9558 36.0821 46.9357 36.2589C46.9157 36.4356 46.9455 36.6144 47.0218 36.7751C47.0981 36.9357 47.2179 37.0718 47.3675 37.168C47.5171 37.2642 47.6906 37.3166 47.8685 37.3193L51.2972 37.371L53.1984 40.2249C53.2855 40.3555 53.4034 40.4626 53.5417 40.5367C53.6801 40.6108 53.8345 40.6496 53.9915 40.6496C54.0326 40.6496 54.0737 40.6469 54.1144 40.6417C54.2908 40.6188 54.4573 40.547 54.595 40.4344C54.7327 40.3218 54.8362 40.173 54.8937 40.0047L56.0024 36.7597L59.3042 35.8334C59.4754 35.7854 59.6298 35.6904 59.7498 35.5592C59.8699 35.428 59.9509 35.2658 59.9836 35.091C60.0163 34.9162 59.9994 34.7357 59.9349 34.57C59.8704 34.4042 59.7608 34.2598 59.6185 34.1531V34.1532Z" fill="#E16A86"/>
<path d="M32.1312 37.3193C32.3091 37.3166 32.4826 37.2643 32.6322 37.1681C32.7818 37.0719 32.9015 36.9358 32.9778 36.7751C33.0541 36.6145 33.084 36.4357 33.0639 36.259C33.0439 36.0822 32.9748 35.9146 32.8645 35.7751L30.7378 33.085L31.7481 29.808C31.8005 29.638 31.8043 29.4568 31.7591 29.2848C31.7139 29.1128 31.6214 28.9569 31.4922 28.8347C31.363 28.7125 31.2022 28.6289 31.0279 28.5933C30.8536 28.5577 30.6729 28.5716 30.5061 28.6334L27.2905 29.8248L24.4866 27.8514C24.3412 27.7489 24.17 27.6892 23.9923 27.6791C23.8147 27.6689 23.6378 27.7086 23.4816 27.7937C23.3254 27.8788 23.1961 28.006 23.1084 28.1608C23.0207 28.3155 22.9781 28.4918 22.9854 28.6695L23.1248 32.0959L20.3813 34.1532C20.239 34.2599 20.1294 34.4043 20.0649 34.57C20.0004 34.7358 19.9836 34.9162 20.0163 35.0911C20.049 35.2659 20.1299 35.4281 20.25 35.5593C20.3701 35.6905 20.5244 35.7854 20.6957 35.8335L23.9974 36.7597L25.106 40.0047C25.1635 40.173 25.267 40.3219 25.4047 40.4345C25.5424 40.547 25.7088 40.6188 25.8852 40.6418C26.0615 40.6647 26.2408 40.6378 26.4027 40.5641C26.5646 40.4905 26.7026 40.373 26.8012 40.225L28.7025 37.371L32.1312 37.3193Z" fill="#E16A86"/>
<path d="M51.7508 47.3079C52.1735 47.3079 52.5841 47.1675 52.9183 46.9087C53.2525 46.6499 53.4913 46.2874 53.5971 45.8782C53.4913 45.4689 53.2525 45.1065 52.9183 44.8477C52.5841 44.5889 52.1735 44.4484 51.7508 44.4484H44.7608V40.0797C44.7608 38.8912 44.7608 36.5219 41.643 36.2193C41.5549 36.2111 41.466 36.2213 41.3821 36.2494C41.2981 36.2774 41.221 36.3227 41.1556 36.3823C41.0902 36.4419 41.0379 36.5146 41.0022 36.5955C40.9665 36.6765 40.9481 36.7641 40.9481 36.8526V41.1708C40.9481 41.2883 40.9155 41.4036 40.8539 41.5037L39.0418 44.4484H39.1212L36.5 46.1602V58.4051C36.8861 58.6289 37.3246 58.7465 37.7709 58.746H50.4799C50.9026 58.746 51.3133 58.6055 51.6474 58.3467C51.9816 58.0879 52.2204 57.7255 52.3262 57.3162C52.2204 56.907 51.9816 56.5445 51.6474 56.2857C51.3133 56.027 50.9026 55.8865 50.4799 55.8865H48.5735V54.9333H51.1153C51.538 54.9333 51.9487 54.7928 52.2829 54.534C52.6171 54.2753 52.8558 53.9128 52.9616 53.5036C52.8558 53.0943 52.6171 52.7318 52.2829 52.4731C51.9487 52.2143 51.538 52.0738 51.1153 52.0738H48.5735V51.1206H51.7508C52.1735 51.1206 52.5841 50.9801 52.9183 50.7214C53.2525 50.4626 53.4913 50.1001 53.5971 49.6909C53.4913 49.2816 53.2525 48.9192 52.9183 48.6604C52.5841 48.4016 52.1735 48.2611 51.7508 48.2611H48.5735V47.3079H51.7508Z" fill="#EA95A9"/>
<path d="M34.6202 44.4475H28.2657C28.0129 44.4475 27.7704 44.5479 27.5917 44.7267C27.4129 44.9054 27.3125 45.1479 27.3125 45.4007V58.7451C27.3125 58.9979 27.4129 59.2404 27.5917 59.4191C27.7704 59.5979 28.0129 59.6983 28.2657 59.6983H34.6202C34.873 59.6983 35.1154 59.5979 35.2942 59.4191C35.4729 59.2404 35.5733 58.9979 35.5733 58.7451V45.4007C35.5733 45.1479 35.4729 44.9054 35.2942 44.7267C35.1154 44.5479 34.873 44.4475 34.6202 44.4475ZM31.4429 58.1891C31.2544 58.1891 31.0701 58.1332 30.9134 58.0285C30.7566 57.9237 30.6344 57.7749 30.5623 57.6007C30.4902 57.4265 30.4713 57.2349 30.5081 57.05C30.5448 56.8651 30.6356 56.6952 30.7689 56.5619C30.9022 56.4286 31.0721 56.3378 31.257 56.3011C31.4419 56.2643 31.6335 56.2832 31.8077 56.3553C31.9819 56.4274 32.1307 56.5496 32.2355 56.7064C32.3402 56.8631 32.3961 57.0474 32.3961 57.2359C32.3961 57.4887 32.2957 57.7312 32.1169 57.9099C31.9382 58.0887 31.6957 58.1891 31.4429 58.1891Z" fill="#D94265"/>
</svg>
