<svg width="80" height="80" viewBox="0 0 80 80" fill="none" xmlns="http://www.w3.org/2000/svg">
<circle cx="40" cy="40" r="40" fill="white"/>
<path d="M49.6312 45.7436C49.6312 44.8404 49.2797 43.9912 48.6414 43.3522L48.2984 43.0092H46.6602C44.4977 43.0092 42.4398 42.4553 40.6187 41.3928L40.1734 41.7265C37.4134 43.7973 33.473 43.5651 30.9828 41.0733L30.0148 40.1054C28.5367 38.624 28.6739 36.2047 30.275 34.8968L35.1531 30.9054C34.875 30.8499 34.5891 30.8218 34.2992 30.8218H28.2008C27.0328 30.8218 25.9344 31.2765 25.1086 32.1022C24.7258 32.4858 24.2164 32.6968 23.6742 32.6968H21.1719C20.525 32.6968 20 33.2218 20 33.8687V48.2437C20 48.8905 20.525 49.4155 21.1719 49.4155H25.7852L34.5109 57.628C35.8497 58.887 37.9186 58.8587 39.2195 57.5562C39.8551 56.9312 40.1899 56.1739 40.2477 55.3647C41.9248 55.2423 43.2535 53.9094 43.3727 52.2397C45.0498 52.1173 46.3785 50.7844 46.4977 49.1147C48.2546 48.9865 49.6312 47.5291 49.6312 45.7436Z" fill="#EA95A9"/>
<path d="M37.5 27.5405C38.1472 27.5405 38.6719 27.0158 38.6719 26.3687V22.6187C38.6719 21.9715 38.1472 21.4468 37.5 21.4468C36.8528 21.4468 36.3281 21.9715 36.3281 22.6187V26.3687C36.3281 27.0158 36.8528 27.5405 37.5 27.5405Z" fill="#D94265"/>
<path d="M31.6714 27.8222C31.9003 28.0511 32.2002 28.1655 32.5 28.1655C32.7999 28.1655 33.0999 28.0511 33.3286 27.8222C33.7863 27.3646 33.7863 26.6226 33.3286 26.165L31.4536 24.29C30.9961 23.8324 30.254 23.8324 29.7964 24.29C29.3387 24.7475 29.3387 25.4896 29.7964 25.9472L31.6714 27.8222Z" fill="#D94265"/>
<path d="M42.5 28.1655C42.8 28.1655 43.0999 28.0511 43.3286 27.8222L45.2036 25.9472C45.6613 25.4896 45.6613 24.7476 45.2036 24.29C44.7461 23.8324 44.004 23.8324 43.5464 24.29L41.6714 26.165C41.2137 26.6225 41.2137 27.3646 41.6714 27.8222C41.9002 28.0511 42.2001 28.1655 42.5 28.1655Z" fill="#D94265"/>
<path d="M58.8279 32.6968H52.8122C52.0568 32.6968 51.3076 32.4468 50.7029 31.9937C49.6951 31.2382 48.4466 30.8218 47.1872 30.8218H41.0482C39.7305 30.8218 38.4067 31.2717 37.338 32.146L31.7576 36.7116C31.2227 37.1487 31.1802 37.9554 31.6708 38.4476L32.6404 39.4163C34.2787 41.0554 36.913 41.2421 38.7669 39.8515L40.5576 38.5085C42.2802 39.9062 44.4115 40.6655 46.6599 40.6655H49.2685L50.2982 41.6952C53.1981 44.5994 52.1868 49.4937 48.4232 51.0397C48.2193 51.5382 47.9443 52.0077 47.6044 52.4327C48.9841 52.2038 50.2904 51.6101 51.3747 50.7061C52.374 49.8741 53.6404 49.4154 54.9404 49.4154H58.8279C59.4747 49.4154 59.9997 48.8904 59.9997 48.2436C59.9997 46.4539 59.9997 35.4201 59.9997 33.8686C59.9997 33.2218 59.4747 32.6968 58.8279 32.6968Z" fill="#D94265"/>
</svg>
