<svg width="80" height="80" viewBox="0 0 80 80" fill="none" xmlns="http://www.w3.org/2000/svg">
<circle cx="40" cy="40" r="40" fill="white"/>
<g clip-path="url(#clip0_1663_10738)">
<path d="M54.2172 51.0756H52.6289C51.9817 51.0756 51.457 50.551 51.457 49.9038V46.6131C51.457 45.966 50.9323 45.4413 50.2852 45.4413H46.9945C46.3473 45.4413 45.8227 44.9166 45.8227 44.2694V42.6811C45.8227 41.7639 45.1031 40.9999 44.218 40.9796C43.3193 40.9387 42.5138 41.7256 42.5328 42.6241V44.2694C42.5328 44.9166 42.0081 45.4413 41.3609 45.4413H36.8984V48.7319C37.2091 48.738 37.89 48.7146 38.1695 48.7522C40.1789 48.9569 41.7516 50.6585 41.7516 52.721C41.7516 54.7827 40.1789 56.4842 38.1695 56.6889C37.8991 56.7281 37.1993 56.7037 36.8984 56.71V59.9999H50.2852C50.9323 59.9999 51.457 59.4752 51.457 58.828V55.5381C51.457 54.8905 51.982 54.3663 52.6289 54.3663H54.2274C54.6856 54.3663 55.1341 54.1954 55.4537 53.8671C55.7643 53.5479 55.9295 53.1274 55.9187 52.6803C55.8984 51.7952 55.1352 51.0756 54.2172 51.0756Z" fill="#EA95A9"/>
<path d="M39.4105 52.6571C39.3766 51.767 38.6166 51.0758 37.7259 51.0758H35.7305C35.0833 51.0758 34.5586 50.5511 34.5586 49.9039V45.4414H31.268V46.3055C31.268 47.3703 30.8531 48.3719 30.0992 49.1258C29.2412 49.9971 27.9723 50.425 26.7617 50.2602C24.8063 50.0055 23.2898 48.3297 23.2898 46.3055V45.4414H20V58.8281C20 59.4753 20.5247 60 21.1719 60H34.5586V55.5383C34.5586 54.8911 35.0833 54.3664 35.7305 54.3664H37.7664C38.6947 54.3664 39.4462 53.5931 39.4105 52.6571Z" fill="#D94265"/>
<path d="M25.6336 44.2693V46.2482C25.6336 47.0951 26.2477 47.8091 27.0375 47.931C27.9965 48.0982 28.9498 47.28 28.9242 46.3052V44.2693C28.9242 43.6221 29.4489 43.0974 30.0961 43.0974H34.5586V39.2451C34.5586 38.5979 34.0339 38.0732 33.3867 38.0732H32.3273C31.0773 38.073 30.0702 37.0453 30.0966 35.7933C30.1227 34.5726 31.1517 33.6107 32.3727 33.6107H33.3868C34.034 33.6107 34.5587 33.086 34.5587 32.4388V29.7107C34.5587 29.0635 34.034 28.5388 33.3868 28.5388H21.1719C20.5247 28.5388 20 29.0635 20 29.7107V43.0974H24.4617C25.1094 43.0974 25.6336 43.6224 25.6336 44.2693Z" fill="#EA95A9"/>
<path d="M58.8281 20H46.6132C45.966 20 45.4413 20.5247 45.4413 21.1719V24.4617C45.4413 25.1094 44.9163 25.6336 44.2695 25.6336H42.2906C41.4437 25.6336 40.7296 26.2477 40.6077 27.0375C40.4406 27.9965 41.2588 28.9498 42.2335 28.9242H44.2695C44.9167 28.9242 45.4413 29.4489 45.4413 30.0961V33.3867C45.4413 34.0339 45.966 34.5586 46.6132 34.5586H49.2937C49.9409 34.5586 50.4656 34.0339 50.4656 33.3867V32.3273C50.4657 31.0773 51.4934 30.0702 52.7454 30.0966C53.9661 30.1227 54.9281 31.1517 54.9281 32.3727V33.3868C54.9281 34.034 55.4527 34.5587 56.0999 34.5587H58.8281C59.4752 34.5587 59.9999 34.034 59.9999 33.3868V21.1719C59.9999 20.5247 59.4752 20 58.8281 20V20Z" fill="#D94265"/>
</g>
<defs>
<clipPath id="clip0_1663_10738">
<rect width="40" height="40" fill="white" transform="translate(20 20)"/>
</clipPath>
</defs>
</svg>
