<svg width="80" height="80" viewBox="0 0 80 80" fill="none" xmlns="http://www.w3.org/2000/svg">
<circle cx="40" cy="40" r="40" fill="white"/>
<g clip-path="url(#clip0_1663_10750)">
<path d="M49.6981 27.0625L43.7243 26.1939L41.0532 20.6008C40.6595 19.7997 39.3457 19.7997 38.952 20.6008L36.281 26.1939L30.3072 27.0625C29.8654 27.1265 29.4992 27.4355 29.3618 27.8601C29.2245 28.2836 29.3389 28.7493 29.6594 29.0606L33.9807 33.2743L32.9599 39.223C32.8843 39.6625 33.0652 40.1065 33.4268 40.3686C33.7862 40.6329 34.2691 40.665 34.6605 40.4578L40.0026 37.6494L45.3447 40.4578C45.7523 40.6724 46.23 40.6228 46.5784 40.3685C46.94 40.1064 47.1208 39.6624 47.0454 39.2229L46.0246 33.2743L50.3458 29.0605C50.6663 28.7493 50.7807 28.2835 50.6434 27.86C50.506 27.4356 50.1398 27.1266 49.6981 27.0625Z" fill="#D94265"/>
<path d="M49.375 57.6564H48.2031V52.9689C48.2031 52.4642 47.8804 52.0167 47.402 51.8577L40.3708 49.5139C40.1282 49.4338 39.8718 49.4338 39.6292 49.5139L32.598 51.8577C32.1196 52.0167 31.7969 52.4642 31.7969 52.9689V57.6564H30.625C29.9773 57.6564 29.4531 58.1806 29.4531 58.8283C29.4531 59.476 29.9773 60.0002 30.625 60.0002H49.375C50.0227 60.0002 50.5469 59.476 50.5469 58.8283C50.5469 58.1806 50.0227 57.6564 49.375 57.6564ZM42.3438 56.4845H37.6562C37.0085 56.4845 36.4844 55.9604 36.4844 55.3127C36.4844 54.6649 37.0085 54.1408 37.6562 54.1408H42.3438C42.9915 54.1408 43.5156 54.6649 43.5156 55.3127C43.5156 55.9604 42.9915 56.4845 42.3438 56.4845Z" fill="#D94265"/>
<path d="M27.1094 30.625C27.1094 29.9773 26.5852 29.4531 25.9375 29.4531H23.5938C22.946 29.4531 22.4219 29.9773 22.4219 30.625C22.4219 31.2727 22.946 31.7969 23.5938 31.7969H25.9375C26.5852 31.7969 27.1094 31.2727 27.1094 30.625Z" fill="#EA95A9"/>
<path d="M56.4062 29.4531H54.0625C53.4148 29.4531 52.8906 29.9773 52.8906 30.625C52.8906 31.2727 53.4148 31.7969 54.0625 31.7969H56.4062C57.054 31.7969 57.5781 31.2727 57.5781 30.625C57.5781 29.9773 57.054 29.4531 56.4062 29.4531Z" fill="#EA95A9"/>
<path d="M26.5604 34.9236L24.3951 35.8208C23.7978 36.068 23.5139 36.7546 23.7611 37.3521C24.0122 37.9552 24.6998 38.2313 25.2924 37.986L27.4576 37.0889C28.055 36.8417 28.3388 36.155 28.0916 35.5576C27.8443 34.9613 27.1623 34.6764 26.5604 34.9236Z" fill="#EA95A9"/>
<path d="M54.7088 23.2644L52.5436 24.1616C51.9462 24.4088 51.6624 25.0954 51.9096 25.6929C52.1607 26.296 52.8482 26.5722 53.4408 26.3268L55.6061 25.4297C56.2034 25.1825 56.4872 24.4958 56.24 23.8984C55.9928 23.3022 55.3085 23.0195 54.7088 23.2644Z" fill="#EA95A9"/>
<path d="M55.6061 35.8208L53.4408 34.9236C52.848 34.6798 52.159 34.9579 51.9096 35.5576C51.6624 36.1549 51.9462 36.8416 52.5436 37.0888L54.7088 37.986C55.3029 38.2319 55.9895 37.9537 56.24 37.352C56.4872 36.7546 56.2035 36.068 55.6061 35.8208Z" fill="#EA95A9"/>
<path d="M27.4576 24.1612L25.2924 23.264C24.6996 23.0168 24.0107 23.2994 23.7611 23.898C23.5139 24.4953 23.7978 25.182 24.3951 25.4292L26.5604 26.3264C27.1545 26.5723 27.8411 26.2941 28.0917 25.6924C28.3388 25.0951 28.055 24.4084 27.4576 24.1612Z" fill="#EA95A9"/>
<path d="M41.1045 47.2877L44.7946 48.5178C44.398 47.0522 43.9709 44.923 43.7236 42.2549L39.999 40.2974L36.2746 42.2547C36.0259 44.9285 35.5955 47.0631 35.2031 48.5182L38.8866 47.29C39.2505 47.1699 39.6236 47.1103 39.9989 47.1103C40.3742 47.1103 40.7474 47.1698 41.1045 47.2877Z" fill="#EA95A9"/>
</g>
<defs>
<clipPath id="clip0_1663_10750">
<rect width="40" height="40" fill="white" transform="translate(20 20)"/>
</clipPath>
</defs>
</svg>
