<svg width="114" height="24" viewBox="0 0 114 24" fill="none" xmlns="http://www.w3.org/2000/svg">
<g clip-path="url(#clip0_1247_5383)">
<path d="M0.485972 1.50399C0.441817 1.41309 0.423082 1.31194 0.431753 1.21125C0.440425 1.11057 0.47618 1.01411 0.535228 0.932095C0.594277 0.850083 0.674417 0.785579 0.767152 0.74542C0.859887 0.705262 0.961761 0.690946 1.06197 0.70399H3.19797C3.32804 0.714745 3.45227 0.762705 3.55583 0.842144C3.65938 0.921583 3.73789 1.02915 3.78197 1.15199L7.70197 16H7.82997L13.078 0.79999C13.115 0.689816 13.1845 0.593415 13.2773 0.523453C13.3701 0.45349 13.4819 0.41324 13.598 0.40799H14.182C14.2975 0.405327 14.4111 0.437471 14.5082 0.500245C14.6052 0.563019 14.6811 0.65352 14.726 0.75999L20.038 15.96H20.174L23.998 1.17599C24.0388 1.05267 24.1154 0.944267 24.2179 0.86451C24.3205 0.784754 24.4444 0.737239 24.574 0.72799H26.734C26.8342 0.714946 26.9361 0.729262 27.0288 0.76942C27.1215 0.809579 27.2017 0.874083 27.2607 0.956095C27.3198 1.03811 27.3555 1.13457 27.3642 1.23525C27.3729 1.33594 27.3541 1.43709 27.31 1.52799L21.254 23.144C21.2182 23.2703 21.1431 23.3819 21.0394 23.4625C20.9358 23.543 20.8092 23.5884 20.678 23.592H20.166C20.0502 23.5911 19.937 23.5577 19.8393 23.4954C19.7417 23.4331 19.6636 23.3446 19.614 23.24L13.95 7.19999H13.782L8.18197 23.2C8.13371 23.304 8.05702 23.3922 7.96077 23.4545C7.86451 23.5168 7.75261 23.5506 7.63797 23.552H7.14997C7.01876 23.5484 6.89211 23.503 6.7885 23.4225C6.68488 23.3419 6.60972 23.2303 6.57397 23.104L0.485972 1.50399Z" fill="#7A7A7A"/>
<path d="M31.3751 1.34424C31.3739 1.26236 31.3894 1.1811 31.4205 1.10534C31.4515 1.02958 31.4976 0.960869 31.5559 0.903342C31.6141 0.845814 31.6834 0.800651 31.7596 0.770562C31.8357 0.740472 31.9172 0.726077 31.9991 0.728239H39.1991C43.0951 0.728239 45.8951 3.30424 45.8951 6.68824C45.8951 9.16824 44.0631 10.9362 42.5431 11.8082C44.2551 12.5122 46.5431 14.0962 46.5431 17.0562C46.5431 20.6642 43.5751 23.2722 39.5191 23.2722H31.9991C31.9185 23.2722 31.8388 23.2563 31.7645 23.2252C31.6902 23.1942 31.6228 23.1487 31.5663 23.0913C31.5097 23.034 31.4651 22.9661 31.435 22.8914C31.4049 22.8167 31.39 22.7368 31.3911 22.6562L31.3751 1.34424ZM39.5191 20.3122C39.9806 20.3188 40.4387 20.2322 40.866 20.0577C41.2933 19.8831 41.681 19.6241 42.0059 19.2962C42.3308 18.9684 42.5862 18.5783 42.7568 18.1495C42.9275 17.7206 43.0099 17.2617 42.9991 16.8002C42.9991 14.8322 41.1271 13.4162 38.9991 13.4162H34.6231V20.3122H39.5191ZM39.0071 10.5202C39.4583 10.5374 39.9081 10.4589 40.3269 10.2898C40.7456 10.1208 41.1238 9.86501 41.4367 9.53933C41.7495 9.21365 41.9899 8.82545 42.1419 8.40024C42.294 7.97503 42.3544 7.52244 42.3191 7.07224C42.3497 6.62903 42.2852 6.18439 42.1297 5.76822C41.9742 5.35204 41.7314 4.97398 41.4177 4.65946C41.1039 4.34493 40.7264 4.10124 40.3106 3.94475C39.8948 3.78827 39.4503 3.72263 39.0071 3.75224H34.6551V10.5202H39.0071Z" fill="#7A7A7A"/>
<path d="M51.3359 1.34403C51.3359 1.18065 51.4008 1.02397 51.5164 0.90845C51.6319 0.792927 51.7886 0.728027 51.9519 0.728027H64.7999C64.9633 0.728027 65.12 0.792927 65.2355 0.90845C65.351 1.02397 65.4159 1.18065 65.4159 1.34403V3.14403C65.4138 3.30601 65.348 3.46064 65.2327 3.57444C65.1174 3.68824 64.9619 3.75204 64.7999 3.75203H54.6559V10.328H63.2559C63.4153 10.334 63.5665 10.3999 63.6793 10.5127C63.792 10.6255 63.858 10.7767 63.8639 10.936V12.744C63.8639 12.9053 63.7999 13.0599 63.6859 13.1739C63.5718 13.288 63.4172 13.352 63.2559 13.352H54.6559V20.28H64.7999C64.9619 20.28 65.1174 20.3438 65.2327 20.4576C65.348 20.5714 65.4138 20.726 65.4159 20.888V22.656C65.4159 22.8194 65.351 22.9761 65.2355 23.0916C65.12 23.2071 64.9633 23.272 64.7999 23.272H51.9519C51.7886 23.272 51.6319 23.2071 51.5164 23.0916C51.4008 22.9761 51.3359 22.8194 51.3359 22.656V1.34403Z" fill="#7A7A7A"/>
<path d="M70.2344 0.984267C70.2426 0.827233 70.3114 0.679507 70.4263 0.572105C70.5411 0.464704 70.6931 0.405981 70.8504 0.408267H71.6504L85.6264 16.5763V1.37627C85.6253 1.29575 85.6403 1.21583 85.6703 1.14114C85.7004 1.06645 85.745 0.998474 85.8016 0.941166C85.8582 0.883857 85.9255 0.838356 85.9998 0.807302C86.0741 0.776248 86.1539 0.76026 86.2344 0.760267H88.2984C88.4591 0.766325 88.6114 0.83341 88.7244 0.947858C88.8373 1.06231 88.9024 1.21551 88.9064 1.37627V23.0163C88.9001 23.1726 88.8331 23.3203 88.7195 23.4279C88.6059 23.5355 88.4548 23.5945 88.2984 23.5923H87.4584L73.5224 6.97627V22.6563C73.5234 22.7368 73.5085 22.8167 73.4784 22.8914C73.4483 22.9661 73.4037 23.0341 73.3471 23.0914C73.2906 23.1487 73.2232 23.1942 73.1489 23.2252C73.0746 23.2563 72.9949 23.2723 72.9144 23.2723H70.8504C70.6889 23.2663 70.5357 23.1995 70.4214 23.0852C70.3071 22.971 70.2403 22.8177 70.2344 22.6563V0.984267Z" fill="#7A7A7A"/>
<path d="M105.114 0.408035C108 0.364145 110.791 1.43598 112.906 3.40003C112.972 3.45561 113.025 3.52484 113.061 3.6029C113.097 3.68096 113.116 3.76598 113.116 3.85204C113.116 3.93809 113.097 4.02311 113.061 4.10117C113.025 4.17923 112.972 4.24846 112.906 4.30403L111.49 5.75203C111.266 6.04003 110.978 6.04003 110.69 5.75203C109.136 4.39445 107.153 3.62943 105.09 3.59203C104.011 3.61696 102.948 3.85424 101.96 4.29032C100.973 4.72641 100.081 5.35275 99.3361 6.13357C98.5909 6.91438 98.0069 7.83437 97.6174 8.84096C97.228 9.84755 97.0406 10.921 97.0661 12C97.0492 13.081 97.2458 14.1547 97.6446 15.1595C98.0434 16.1644 98.6366 17.0806 99.3902 17.8558C100.144 18.6309 101.043 19.2498 102.036 19.6767C103.029 20.1037 104.097 20.3305 105.178 20.344C107.219 20.3113 109.183 19.5575 110.722 18.216C110.83 18.1142 110.973 18.0575 111.122 18.0575C111.271 18.0575 111.414 18.1142 111.522 18.216L113.002 19.664C113.06 19.7207 113.107 19.7885 113.138 19.8634C113.17 19.9383 113.186 20.0187 113.186 20.1C113.186 20.1813 113.17 20.2618 113.138 20.3367C113.107 20.4116 113.06 20.4794 113.002 20.536C110.907 22.5669 108.095 23.6883 105.178 23.656C102.102 23.656 99.1511 22.4339 96.9757 20.2585C94.8003 18.083 93.5781 15.1325 93.5781 12.056C93.5781 8.97952 94.8003 6.02902 96.9757 3.8536C99.1511 1.67817 102.102 0.456035 105.178 0.456035L105.114 0.408035Z" fill="#7A7A7A"/>
<path d="M102.223 11.2C102.563 11.3292 102.879 11.5129 103.159 11.744V11.704C103.275 11.5706 103.377 11.4258 103.463 11.272C103.575 11.0766 103.666 10.8702 103.735 10.656C103.758 10.585 103.776 10.5129 103.791 10.44V10.312C103.791 10.232 103.791 10.176 103.791 10.12C103.827 9.81977 103.827 9.51627 103.791 9.21602C103.754 8.8689 103.685 8.52604 103.583 8.19202C103.564 8.13911 103.54 8.0882 103.511 8.04002C103.421 7.88533 103.275 7.77089 103.103 7.72002C102.973 7.67992 102.833 7.67992 102.703 7.72002C102.613 7.74313 102.528 7.78499 102.455 7.84288C102.382 7.90077 102.322 7.97339 102.279 8.05602C102.234 8.13853 102.206 8.22907 102.197 8.32243C102.187 8.41579 102.196 8.51013 102.223 8.60002C102.223 8.66402 102.223 8.72802 102.279 8.78402L102.327 8.99202V9.14402V9.28002C102.372 9.54481 102.372 9.81523 102.327 10.08C102.313 10.1755 102.289 10.2694 102.255 10.36C102.255 10.44 102.183 10.52 102.143 10.6C102.089 10.6923 102.025 10.7782 101.951 10.856C101.893 10.9279 101.825 10.9924 101.751 11.048L101.703 11.088L101.887 11.16L102.223 11.2Z" fill="#7A7A7A"/>
<path d="M100.466 10.2801C100.638 10.2801 100.807 10.229 100.95 10.1332C101.094 10.0374 101.205 9.90117 101.271 9.74183C101.337 9.5825 101.355 9.40717 101.321 9.23801C101.287 9.06886 101.204 8.91349 101.082 8.79154C100.96 8.66959 100.805 8.58653 100.636 8.55289C100.467 8.51924 100.291 8.53651 100.132 8.60251C99.9727 8.66851 99.8365 8.78028 99.7407 8.92368C99.6449 9.06708 99.5937 9.23567 99.5938 9.40813C99.5938 9.6394 99.6856 9.8612 99.8492 10.0247C100.013 10.1883 100.234 10.2801 100.466 10.2801Z" fill="#7A7A7A"/>
<path d="M102.323 13.9041C102.38 13.9973 102.426 14.0966 102.459 14.2001C102.486 14.2896 102.507 14.3804 102.523 14.4721C102.52 14.4933 102.52 14.5149 102.523 14.5361L102.659 14.4161L102.843 14.2641C103.125 14.033 103.445 13.8517 103.788 13.7281V13.6721C103.73 13.5084 103.658 13.3503 103.571 13.2001C103.459 13.0022 103.322 12.8194 103.164 12.6561L103.003 12.4961L102.907 12.4081L102.764 12.2881C102.516 12.1054 102.247 11.9524 101.963 11.8321C101.644 11.689 101.312 11.5765 100.971 11.4961H100.819C100.637 11.5017 100.462 11.5694 100.324 11.6881C100.224 11.7836 100.155 11.9059 100.124 12.0401C100.1 12.1302 100.095 12.2241 100.109 12.3162C100.123 12.4083 100.155 12.4966 100.203 12.5761C100.305 12.7345 100.462 12.8488 100.643 12.8961L100.835 12.9441L101.043 13.0081L101.187 13.0561L101.315 13.1041C101.552 13.2016 101.773 13.3337 101.971 13.4961L102.179 13.7041C102.234 13.7659 102.282 13.8329 102.323 13.9041Z" fill="#7A7A7A"/>
<path d="M100.864 14.144C100.734 14.0636 100.584 14.022 100.432 14.024C100.298 14.0244 100.167 14.0554 100.047 14.1146C99.9279 14.1738 99.8235 14.2597 99.7424 14.3655C99.6613 14.4714 99.6055 14.5945 99.5794 14.7253C99.5533 14.8561 99.5575 14.9911 99.5918 15.12C99.6524 15.3431 99.7991 15.533 99.9998 15.648C100.129 15.7284 100.279 15.77 100.432 15.768C100.585 15.7678 100.735 15.727 100.867 15.6497C100.999 15.5724 101.109 15.4614 101.184 15.328C101.241 15.2293 101.278 15.1204 101.293 15.0073C101.308 14.8943 101.3 14.7794 101.27 14.6694C101.241 14.5593 101.189 14.4562 101.12 14.366C101.05 14.2759 100.963 14.2004 100.864 14.144Z" fill="#7A7A7A"/>
<path d="M103.027 16.688C103.12 16.6878 103.212 16.6686 103.298 16.6314C103.383 16.5942 103.46 16.54 103.523 16.4719L103.659 16.3279L103.819 16.1839L103.931 16.0799L104.035 15.9999C104.239 15.8421 104.466 15.7153 104.707 15.624C104.801 15.5934 104.898 15.5693 104.995 15.552C105.186 15.516 105.381 15.516 105.571 15.552L105.835 15.632H105.899C105.899 15.568 105.899 15.5039 105.899 15.4479L105.859 15.216C105.799 14.8584 105.799 14.4935 105.859 14.1359H105.803C105.629 14.1041 105.452 14.088 105.275 14.088C105.051 14.0864 104.828 14.1133 104.611 14.1679L104.387 14.224L104.267 14.2639L104.091 14.3359C103.807 14.4474 103.538 14.5953 103.291 14.7759C103.003 14.9821 102.735 15.2152 102.491 15.4719C102.454 15.5131 102.421 15.5588 102.395 15.6079C102.309 15.7638 102.283 15.9463 102.323 16.1199C102.351 16.2556 102.421 16.379 102.523 16.4719C102.652 16.5966 102.824 16.6656 103.003 16.6639L103.027 16.688Z" fill="#7A7A7A"/>
<path d="M105.17 16.8C105.018 16.7999 104.87 16.8385 104.738 16.912C104.584 17.0128 104.466 17.1595 104.401 17.3313C104.335 17.5031 104.326 17.6911 104.374 17.8685C104.422 18.0459 104.525 18.2037 104.667 18.3192C104.81 18.4348 104.986 18.5023 105.17 18.512C105.321 18.5164 105.471 18.4775 105.602 18.4C105.701 18.3436 105.788 18.2681 105.857 18.1779C105.927 18.0878 105.978 17.9847 106.008 17.8746C106.038 17.7646 106.046 17.6497 106.031 17.5367C106.016 17.4236 105.979 17.3146 105.922 17.216C105.844 17.0865 105.734 16.9798 105.602 16.9068C105.47 16.8337 105.321 16.7969 105.17 16.8Z" fill="#7A7A7A"/>
<path d="M108.174 13.168C107.834 13.0389 107.518 12.8551 107.238 12.624L107.198 12.664C107.088 12.8015 106.986 12.9458 106.894 13.096C106.785 13.2917 106.696 13.4981 106.63 13.712C106.608 13.783 106.589 13.8551 106.574 13.928V14.056C106.574 14.136 106.574 14.192 106.574 14.248C106.538 14.5483 106.538 14.8518 106.574 15.152C106.611 15.4991 106.681 15.842 106.782 16.176C106.801 16.2289 106.825 16.2798 106.854 16.328C106.897 16.4063 106.955 16.475 107.025 16.53C107.095 16.5851 107.176 16.6252 107.262 16.648C107.392 16.6919 107.532 16.6919 107.662 16.648C107.843 16.5927 107.995 16.4694 108.086 16.304C108.172 16.1389 108.192 15.9473 108.142 15.768C108.142 15.696 108.142 15.632 108.086 15.576L108.038 15.368V15.216V15.08C107.998 14.8148 107.998 14.5452 108.038 14.28C108.059 14.1851 108.085 14.0916 108.118 14C108.149 13.9171 108.186 13.8368 108.23 13.76C108.281 13.666 108.346 13.5798 108.422 13.504C108.483 13.4341 108.55 13.3698 108.622 13.312L108.67 13.272L108.486 13.208L108.174 13.168Z" fill="#7A7A7A"/>
<path d="M109.935 14.0801C109.762 14.0801 109.593 14.1312 109.45 14.227C109.307 14.3229 109.195 14.459 109.129 14.6184C109.063 14.7777 109.046 14.953 109.079 15.1222C109.113 15.2913 109.196 15.4467 109.318 15.5687C109.44 15.6906 109.595 15.7737 109.764 15.8073C109.934 15.841 110.109 15.8237 110.268 15.7577C110.428 15.6917 110.564 15.5799 110.66 15.4365C110.755 15.2931 110.807 15.1245 110.807 14.9521C110.807 14.7208 110.715 14.499 110.551 14.3355C110.388 14.1719 110.166 14.0801 109.935 14.0801Z" fill="#7A7A7A"/>
<path d="M109.601 12.8802C109.778 12.8711 109.947 12.8036 110.081 12.6882C110.181 12.5927 110.25 12.4704 110.281 12.3362C110.325 12.1548 110.294 11.9636 110.197 11.8047C110.099 11.6457 109.943 11.5319 109.761 11.4882L109.569 11.4322L109.361 11.3682L109.217 11.3202L109.089 11.2722C108.851 11.1766 108.63 11.0443 108.433 10.8802C108.36 10.8149 108.29 10.7455 108.225 10.6722C108.17 10.6053 108.122 10.5329 108.081 10.4562C108.025 10.3631 107.979 10.2638 107.945 10.1602C107.919 10.0734 107.898 9.9853 107.881 9.89622C107.881 9.89622 107.881 9.84822 107.881 9.82422L107.729 9.95222L107.553 10.0962C107.275 10.3284 106.958 10.5098 106.617 10.6322V10.6882C106.676 10.8539 106.748 11.0144 106.833 11.1682C106.947 11.3604 107.081 11.54 107.233 11.7042L107.393 11.8642L107.497 11.9522C107.543 11.995 107.591 12.0351 107.641 12.0722C107.889 12.2549 108.158 12.4079 108.441 12.5282C108.758 12.6701 109.088 12.7825 109.425 12.8642H109.585L109.601 12.8802Z" fill="#7A7A7A"/>
<path d="M109.528 10.2159C109.73 10.3255 109.966 10.3534 110.188 10.2938C110.41 10.2343 110.6 10.0918 110.72 9.89587C110.777 9.79722 110.814 9.68824 110.829 9.5752C110.844 9.46216 110.836 9.3473 110.806 9.23724C110.777 9.12718 110.725 9.02409 110.656 8.93392C110.586 8.84375 110.499 8.76828 110.4 8.71187C110.27 8.63151 110.12 8.58987 109.968 8.59187C109.815 8.59201 109.664 8.63282 109.532 8.71014C109.4 8.78745 109.291 8.89848 109.216 9.03187C109.155 9.1286 109.116 9.23719 109.101 9.35034C109.086 9.46349 109.095 9.57857 109.128 9.68787C109.153 9.79933 109.202 9.90413 109.271 9.99521C109.34 10.0863 109.427 10.1615 109.528 10.2159Z" fill="#7A7A7A"/>
<path d="M104.563 9.11214C104.623 9.46965 104.623 9.83462 104.563 10.1921H104.619C105.013 10.2721 105.418 10.2721 105.811 10.1921L106.027 10.1281L106.155 10.0881L106.331 10.0241C106.614 9.90655 106.883 9.75619 107.131 9.57614C107.421 9.37218 107.689 9.13896 107.931 8.88014C107.974 8.84152 108.009 8.79543 108.035 8.74414C108.123 8.58852 108.148 8.4058 108.107 8.23214C108.08 8.09646 108.01 7.9731 107.907 7.88014C107.843 7.81743 107.766 7.76816 107.683 7.7352C107.599 7.70224 107.509 7.68625 107.419 7.68814C107.323 7.68807 107.228 7.70794 107.14 7.74649C107.052 7.78505 106.972 7.84145 106.907 7.91214L106.771 8.04814L106.611 8.19214L106.491 8.29614L106.387 8.37614C106.186 8.53384 105.962 8.66057 105.723 8.75214L105.435 8.82414C105.245 8.86008 105.05 8.86008 104.859 8.82414C104.766 8.80596 104.675 8.77918 104.587 8.74414H104.531C104.531 8.81614 104.531 8.88014 104.531 8.94414L104.563 9.11214Z" fill="#7A7A7A"/>
<path d="M105.665 7.44807C105.777 7.39858 105.877 7.32617 105.959 7.23553C106.041 7.14489 106.103 7.03805 106.141 6.92193C106.179 6.80581 106.192 6.683 106.18 6.56147C106.167 6.43993 106.129 6.32238 106.068 6.21644C106.007 6.1105 105.925 6.01854 105.826 5.9465C105.728 5.87446 105.615 5.82397 105.495 5.79829C105.376 5.77261 105.252 5.77232 105.133 5.79743C105.013 5.82254 104.9 5.8725 104.801 5.94407C104.701 5.99841 104.613 6.07365 104.544 6.16472C104.475 6.2558 104.426 6.3606 104.401 6.47207C104.368 6.58136 104.359 6.69645 104.374 6.8096C104.389 6.92275 104.429 7.03134 104.489 7.12807C104.608 7.32137 104.795 7.46218 105.014 7.52167C105.232 7.58115 105.465 7.55483 105.665 7.44807Z" fill="#7A7A7A"/>
</g>
<defs>
<clipPath id="clip0_1247_5383">
<rect width="113.6" height="24" fill="white"/>
</clipPath>
</defs>
</svg>
